<svg width="180" height="180" viewBox="0 0 180 180" fill="none" xmlns="http://www.w3.org/2000/svg">
<path d="M108.264 143.482H105.564C105.209 143.437 104.855 143.392 104.5 143.349C101.47 142.965 98.379 142.846 95.4211 142.154C77.7676 138.024 65.2638 127.581 57.7997 111.082C57.6862 110.83 57.5511 110.587 57.4248 110.338C57.3671 110.352 57.3094 110.365 57.2518 110.379V140.903H20V39.5241H57.3366V70.1645C57.5385 69.9842 57.6232 69.7949 57.7024 69.6056C67.5476 46.2834 92.1172 33.1848 117.017 37.9848C140.681 42.5469 158.499 62.7959 159.898 86.8374C160.644 99.6656 157.322 111.394 149.632 121.721C140.613 133.832 128.529 140.919 113.532 142.965C111.786 143.203 110.019 143.313 108.264 143.482ZM115.982 62.9185C116.083 62.7959 116.15 62.6986 116.231 62.6157C119.863 58.8502 118.774 52.8336 114.059 50.6418C112.42 49.8812 110.679 49.6612 108.891 49.6667C104.902 49.6793 100.911 49.6685 96.9226 49.672C96.6342 49.672 96.3458 49.7027 96.0663 49.7189V76.8589C99.4406 76.8589 102.737 76.8751 106.032 76.8534C107.801 76.8426 109.576 76.8607 111.333 76.7002C115.068 76.3613 117.869 73.9785 118.482 70.6493C119.032 67.6607 118.415 64.9932 115.984 62.9185H115.982ZM104.471 86.9328H117.545V79.6509H95.9168V106.829H117.593V99.5196H104.498V96.9889C104.891 96.9889 105.216 96.9889 105.542 96.9889C108.752 96.9889 111.964 96.9601 115.173 97.0088C116.043 97.0214 116.389 96.8555 116.341 95.8893C116.252 94.1554 116.319 92.4124 116.314 90.6731C116.314 90.3593 116.281 90.0457 116.26 89.6493H104.473V86.9328H104.471ZM103.156 117.38V134.522H110.531V117.37H117.604V109.686H96.0411V117.38H103.156Z" fill="white"/>
<path d="M104.34 69.7715V66.4675C105.924 66.4675 107.494 66.3791 109.05 66.5036C109.893 66.5702 110.245 67.3219 110.214 68.1672C110.182 69.0505 109.733 69.5714 108.882 69.703C108.529 69.7571 108.168 69.766 107.81 69.7697C106.679 69.7769 105.549 69.7733 104.34 69.7733V69.7715Z" fill="white"/>
<path d="M104.363 56.5593C105.751 56.5593 107.063 56.5215 108.374 56.5719C109.407 56.6117 109.897 57.1416 109.902 58.0608C109.908 58.9927 109.432 59.5587 108.424 59.6056C107.09 59.6668 105.753 59.62 104.365 59.62V56.5593H104.363Z" fill="white"/>
</svg>
