<?xml version="1.0" encoding="UTF-8"?><svg id="bet-co-za" xmlns="http://www.w3.org/2000/svg" viewBox="0 0 584.87 328.89"><path d="M274.52,302.27c-24.65,24.65-65.28,23.98-90.75-1.49-25.47-25.47-26.14-66.1-1.49-90.75,24.65-24.65,65.28-23.98,90.75,1.49,25.47,25.47,26.14,66.1,1.49,90.75Zm304.09-96.91c-.04,.87,.07,1.74,.31,2.57h-1.59c-.21-.76-.31-1.55-.31-2.34,0-.95-.23-1.86-2.37-1.86h-2.04v4.2h-1.65v-10.09l4.25-.05c1.31,0,3.61,.44,3.61,2.81-.02,1.11-.74,2.09-1.8,2.42,1.03,.29,1.7,1.28,1.6,2.34Zm-1.42-4.69c0-1.83-1.59-1.68-2.21-1.68h-2.34v3.5h2.14c.62,0,2.42,0,2.42-1.83Zm6.44,2.24c-.03,4.92-4.04,8.89-8.96,8.86-4.9-.03-8.86-4.01-8.86-8.91-.03-4.89,3.92-8.88,8.81-8.91h.15c4.92,.03,8.89,4.04,8.86,8.96Zm-1.32,.2c0-.06,0-.12,0-.18,.1-4.16-3.2-7.62-7.36-7.72-.06,0-.12,0-.19,0-4.26-.1-7.8,3.28-7.9,7.54s3.28,7.8,7.54,7.9c4.26,.1,7.8-3.28,7.9-7.54Zm-275.2,79.65h0c-9.83-.02-17.81,7.94-17.82,17.77-.02,9.83,7.94,17.81,17.77,17.82,9.83,.02,17.81-7.94,17.82-17.77v-.02c0-9.82-7.95-17.78-17.77-17.79Zm57.35-55.55h19.03l-49.47,66v25.11h97.85v-33.48h-47.56l47.56-61.93v-29.1h-97.85s-8.99,33.4,30.44,33.4Zm158.93-33.53l35.56-.54v125.2h-35.62v-7.26c-8.69,4.73-18.43,7.2-28.32,7.18-33.5,0-60.67-27.83-60.67-62.21s27.19-62.22,60.67-62.22c9.89-.02,19.63,2.44,28.32,7.16v-7.42l.05,.1Zm-24.24,33.8c-15.92-.82-29.49,11.43-30.31,27.35v1.39c0,.6,.02,1.21,.06,1.81,1.01,15.94,14.75,28.04,30.69,27.03l-.05,.05c14.62-.95,26.21-12.7,26.96-27.33,.82-15.92-11.43-29.49-27.35-30.31ZM19.06,284.34c-9.83-.01-17.81,7.94-17.82,17.77-.02,9.83,7.94,17.81,17.77,17.82,9.83,.01,17.81-7.94,17.82-17.77v-.03c0-9.82-7.95-17.78-17.77-17.79Zm74.81-55.49c3.13,0,6.23,.5,9.19,1.5,4.32,1.14,8.16,3.67,10.92,7.18,7.54,10.14,20.09,17.1,41.56,11.28-4.93-34.06-36.54-57.68-70.6-52.75-34.06,4.93-57.68,36.54-52.75,70.6,4.93,34.06,36.54,57.68,70.6,52.75,27.33-3.95,48.8-25.42,52.75-52.75h-34.2c-4.94,15.16-21.23,23.45-36.39,18.51-15.16-4.94-23.45-21.23-18.51-36.39,3.86-11.87,14.93-19.92,27.42-19.93Zm407.59-40.69l.64-5.1c-5.38-.72-10.81-.86-16.22-.44l.41,5.15c5.06-.41,10.14-.28,15.17,.39Zm-62.37,23.1l4.58,2.37c7.12-11.77,18.5-20.35,31.78-23.95l-1.39-4.95c-14.68,3.92-27.24,13.44-34.97,26.52Zm128.35,108.59h5.15v-28.53h-5.15v28.53Zm0-39.42h5.15v-12.59h-5.15v12.59Zm-357.63,43.21c4.42,2.14,9.15,3.57,14.01,4.25l.72-5.1c-4.34-.6-8.55-1.88-12.49-3.78l-2.24,4.64Zm24.31-.59l.39,5.15c22.17-1.65,39.63-16.56,40.35-17.2l-3.37-3.92c-.18,.16-16.94,14.45-37.36,15.97ZM407.04,76.15v87.91l29.2,.83,4.74-.34V74.3h24.34v-26.68h-24.36c.51,.52,.15-35.33,.15-35.33l-34.1,1.85V49.47h-26.68s-1.26,27.43,26.71,26.68Zm-81.79,89.04c-34.39,.03-62.29-27.83-62.31-62.22-.03-34.39,27.83-62.29,62.22-62.31,34.39-.03,62.29,27.83,62.31,62.22-.02,4.89-.6,9.76-1.73,14.52h-86.5c4.57,10.28,14.68,16.99,25.93,17.2,7.39-.04,14.46-3.02,19.65-8.29h38.08c-9.52,23.49-32.32,38.86-57.66,38.88Zm-27.14-73.9h54.08c-2.77-8.88-9.72-15.82-18.6-18.6-14.93-4.66-30.82,3.66-35.48,18.6ZM167.51,13.91V47.75c8.7-4.71,18.43-7.18,28.32-7.16,33.5,0,60.67,27.86,60.67,62.21s-27.19,62.22-60.67,62.22c-9.89,.02-19.63-2.45-28.32-7.18v7.26h-35.56V49.47c0-19.64,15.92-35.56,35.56-35.56Zm-2.71,87.53c-.4,15.82,12.11,28.97,27.93,29.37,15.82,.4,28.97-12.11,29.37-27.93v-.03h-1.29v-1.34l1.26-.08h0s0,0,0,0h.03c-.38-15.27-12.66-27.55-27.93-27.93-15.82-.4-28.97,12.11-29.37,27.93Zm-4.63-95.59V.7c-.95,0-24.13,.31-37,27.19l4.64,2.21c11.41-23.85,31.52-24.26,32.37-24.26Zm-34.33,29.1l-5.15-.72c-.05,.33-1.13,8.06-1.13,11.56h5.15c0-3.14,1.13-10.84,1.13-10.84Zm86.24,83.64c3.83-5.69,5.44-12.59,4.51-19.39l-5.15,.49c.77,5.52-.47,11.13-3.5,15.81-6.49,8.68-20.04,6.54-20.16,6.54l-.85,5.15c1.54,.21,3.1,.31,4.66,.31,5.56,0,14.78-1.19,20.5-8.91Zm184.92,43.8h5.15v-11.74h-5.15v11.74Zm5.15-60.39h-5.15v38.6h5.15v-38.6ZM454.73,14.73h-5.15v20.99h5.15V14.73Z" style="fill:#fff; fill-rule:evenodd;"/><path d="M267.97,303.01l-.64,.57-1.62,1.37-.7,.57-1.65,1.26-.64,.46-1.86,1.26-.49,.31c-.7,.46-1.42,.9-2.14,1.32l-.26,.15c-8.33,4.73-17.67,7.38-27.24,7.72,.53-13.95,6.01-27.25,15.45-37.52l22.12,22.12-.33,.41Zm-82.4-1.65l40.66-40.81,16.28,16.28c-10.39,11.26-16.37,25.89-16.84,41.2-14.92-.63-29.13-6.53-40.09-16.66Zm30.88-58.01l16.48-8.35,15.01,14.86-8.22,16.76-23.28-23.28Zm-34.43,54.33c-10.17-10.97-16.1-25.2-16.74-40.15,15.31-.47,29.94-6.45,41.2-16.84l16.27,16.28-40.74,40.71Zm-8.91-72.49l.15-.26c.41-.72,.85-1.44,1.31-2.14l.31-.49,1.26-1.85,.46-.64c.41-.57,.85-1.11,1.26-1.65l.57-.69,1.36-1.62,.57-.64,.31-.31,22.12,22.12c-10.28,9.44-23.58,14.92-37.52,15.45,.3-9.58,2.93-18.93,7.64-27.27h.18Zm43.06-31.52l15.99,15.45-1.29,21.11-18.28,9.25-23.17-23.18-1.14-9.11c7.88-6.89,17.44-11.58,27.71-13.6l.18,.08Zm27.86,1.31c2.16,.62,4.25,1.37,6.28,2.17l-15.14,7.88-12.64-12.21c7.18-.53,14.39,.21,21.32,2.16h.18Zm12.26,4.92c5.55,2.93,10.64,6.65,15.11,11.05,4.49,4.47,8.31,9.57,11.33,15.14l-9.66,19.13-21.09,1.52-16.02-15.81,1.29-21.14,19.03-9.89Zm29.12,32.11c3.47,8.26,5.11,17.18,4.79,26.14v1.57l-12.33-12.49,7.54-15.22Zm3.94,34.12c-.26,1.49-.57,2.96-.93,4.46-2.2,8.72-6.36,16.83-12.18,23.69l-10.12-1.16-22.63-22.63,9.14-18.64,21.07-1.55,15.66,15.84Zm-13.65,36.57l-.16-.15c1.29-1.21,2.58-2.58,3.74-3.84v-.13c6.74-7.61,11.54-16.74,14.01-26.6,.48-1.87,.86-3.76,1.13-5.67,.07-.15,.11-.32,.13-.49,0-.61,.13-1.21,.21-1.83,.08-.62,.16-1.21,.21-1.8,0-1,.18-1.98,.23-2.96v-5.59c-.19-5.63-1.1-11.21-2.7-16.61v-.13c-.39-1.34-.82-2.57-1.31-3.99v-.23c-.96-2.64-2.09-5.22-3.37-7.73,0,0,0-.13-.13-.18-3.37-6.44-7.71-12.32-12.88-17.43-5.16-5.09-11.08-9.34-17.56-12.59-.64-.34-1.29-.59-1.96-.9l-1.98-.9c-1.11-.49-2.21-.9-3.35-1.31l-.75-.28c-10.57-3.75-21.92-4.75-32.99-2.91l-.54,.16c-11.88,2.06-22.94,7.41-31.93,15.45l-.18,.15c-1.7,1.52-3.31,3.13-4.82,4.84l-.33,.31c-.77,.77-1.52,1.57-2.27,2.39l-.54,.64c-.54,.62-1.08,1.21-1.57,1.86l-.52,.61-1.49,1.99-.36,.49c-.51,.72-1.03,1.47-1.52,2.21l-.18,.28c-.54,.82-1.06,1.67-1.55,2.57-5.71,9.89-8.69,21.13-8.63,32.55v.93c.8,37.07,30.83,66.85,67.91,67.34h.41c11.42,.06,22.66-2.91,32.55-8.63,.88-.48,1.73-1,2.58-1.55l.28-.18,2.21-1.52,.49-.36,1.96-1.49,.64-.52c.64-.49,1.24-1.03,1.86-1.57l.64-.54c.83-.75,1.59-1.49,2.39-2.27,.8-.77,1.34-1.24,1.98-1.9h0Zm-79.21-91.08l-3.09-4.12c.54-.41,13.5-10.04,22.12-10.61l.36,5.15c-5.92,.34-16.02,7-19.39,9.58m190.48,50l26.76-36.13,4.14,3.07-26.76,36.13-4.14-3.06Zm33.63-43.28h5.15v-16.79h-5.15v16.79Zm-246.6,8.87l4.29-6.73,4.34,2.77-4.29,6.73-4.34-2.77Zm-80.69,88.7c-12.54-.01-24.71-4.35-34.43-12.28l3.2-4.04c9.27,7.57,20.97,11.53,32.93,11.15l.18,5.15-1.88,.03Zm-42.02-19.31c-3.86-4.06-7.2-8.58-9.94-13.47l4.58-2.37c2.52,4.46,5.59,8.59,9.11,12.31l-3.76,3.53ZM275.22,101.44h-5.15c0-.39,.39-38.88,34.17-50.55l1.67,4.87c-30.28,10.45-30.69,44.24-30.69,45.68" style="fill:#000010; fill-rule:evenodd;"/></svg>