<?xml version="1.0" encoding="UTF-8"?><svg id="betfred" xmlns="http://www.w3.org/2000/svg" xmlns:xlink="http://www.w3.org/1999/xlink" viewBox="0 0 249.29 52.84"><defs><linearGradient id="linear-gradient" x1="0" y1="26.42" x2="249.29" y2="26.42" gradientUnits="userSpaceOnUse"><stop offset="0" stop-color="#f12f51"/><stop offset=".51" stop-color="#7d398c"/><stop offset="1" stop-color="#005a99"/></linearGradient></defs><path d="M249.29,52.84c-.17,0-.34-.02-.51-.02-74.89,0-149.79,0-224.68,0-7.94,0-15.88,0-23.83,0-.09,0-.18,0-.28,0V.01C.28,0,.55,0,.83,0c7.25,0,14.5,0,21.75,0,66.75,0,133.5,0,200.25,.01,8.82,0,17.64,0,26.46,0V52.84Z" style="fill:url(#linear-gradient);"/><path d="M186.39,21.99h14.41c-.17,1.05-.33,2.07-.49,3.08-.23,1.44-.48,2.88-.69,4.33-.06,.38-.19,.5-.58,.5-4.43-.01-8.87,0-13.3,0-.2,0-.39,0-.62,0-.24,1.87-.48,3.7-.72,5.57h17.24c-.02,.24-.02,.43-.04,.62-.35,2.5-.72,4.99-1.05,7.49-.05,.41-.19,.53-.6,.53-9.14-.01-18.28,0-27.43,0-.17,0-.33,0-.57,0,.09-.61,.16-1.17,.24-1.72,.63-4.15,1.27-8.3,1.9-12.45,.73-4.74,1.46-9.48,2.19-14.22,.32-2.11,.65-4.22,.95-6.34,.06-.46,.21-.63,.71-.63,8.63,.02,17.27,.01,25.9,.01,.26,0,.52,0,.84,0-.16,1.03-.3,2-.45,2.97-.26,1.66-.53,3.31-.76,4.97-.06,.42-.21,.54-.64,.54-5.02-.02-10.04,0-15.05-.02-.49,0-.69,.1-.76,.62-.15,1.23-.39,2.46-.59,3.69-.02,.13-.02,.27-.03,.47Z" style="fill:#fff;"/><path d="M56.86,35.47h17.28c-.09,.67-.16,1.31-.25,1.94-.29,2.06-.61,4.11-.87,6.17-.06,.43-.21,.52-.6,.52-5.3-.01-10.59,0-15.89,0-3.82,0-7.64,0-11.45,0-.2,0-.39,0-.65,0,.14-.92,.26-1.76,.39-2.61,1.01-6.63,2.02-13.26,3.04-19.88,.63-4.13,1.28-8.27,1.9-12.4,.06-.37,.2-.44,.53-.44,8.79,0,17.58,0,26.37,0,.15,0,.3,.02,.5,.03-.44,2.82-.86,5.6-1.3,8.42h-16.23c-.26,1.59-.52,3.15-.78,4.77h14.45c-.1,.66-.19,1.26-.29,1.86-.29,1.82-.6,3.64-.86,5.47-.07,.5-.27,.6-.74,.59-4.4-.02-8.8,0-13.21-.02-.42,0-.62,.08-.67,.55-.19,1.66-.42,3.32-.65,5.05Z" style="fill:#fff;"/><path d="M121.3,31.43c-.25,1.73-.5,3.4-.75,5.07-.35,2.39-.69,4.78-1.03,7.17-.04,.28-.13,.42-.46,.42-3.45-.01-6.9,0-10.34,0-.12,0-.24-.02-.42-.04,.11-.78,.21-1.54,.33-2.3,.48-3.18,.97-6.35,1.45-9.53,.73-4.82,1.46-9.64,2.19-14.45,.42-2.75,.82-5.5,1.24-8.26,.14-.91,0-.75,.85-.76,7.79,0,15.58,0,23.36,0,.23,0,.46,0,.76,0-.04,.32-.06,.6-.11,.88-.39,2.48-.79,4.95-1.17,7.43-.06,.37-.21,.43-.54,.43-4.22,0-8.43,0-12.65,0-.18,0-.36,0-.59,0-.29,1.82-.58,3.6-.87,5.46h11.64c-.16,1.04-.3,2.01-.45,2.98-.26,1.67-.54,3.34-.78,5.01-.06,.39-.18,.5-.58,.5-3.49-.02-6.99,0-10.48,0-.18,0-.37,0-.6,0Z" style="fill:#fff;"/><path d="M88.43,17.78h-10c.12-.75,.23-1.45,.34-2.14,.36-2.15,.72-4.31,1.07-6.46,.05-.32,.16-.43,.5-.43,10,0,20.01,0,30.01,0,.12,0,.24,.02,.44,.03-.12,.7-.22,1.38-.34,2.05-.36,2.12-.74,4.24-1.08,6.36-.07,.44-.22,.6-.69,.59-2.83-.03-5.66,0-8.5-.02-.36,0-.49,.1-.55,.47-.59,4.19-1.21,8.37-1.82,12.55-.62,4.27-1.24,8.55-1.86,12.83-.04,.3-.12,.48-.51,.48-3.48-.02-6.96-.01-10.43-.01-.13,0-.27-.02-.46-.04,1.29-8.76,2.58-17.48,3.88-26.27Z" style="fill:#fff;"/><path d="M39.54,25.85c2.03-1.29,3.34-3.1,3.85-5.47,.29-1.34,.33-2.69,.19-4.04-.13-1.29-.51-2.5-1.24-3.58-1.09-1.61-2.68-2.5-4.49-3.06-2.42-.74-4.92-.94-7.43-.95-4.6-.02-9.2,0-13.81,0-.46,0-1.05-.12-1.33,.11-.26,.21-.2,.83-.27,1.26-.85,5.67-1.71,11.34-2.56,17.02-.73,4.85-1.46,9.7-2.18,14.55-.12,.77-.22,1.54-.34,2.37h.57c6.33,0,12.65,.01,18.98,0,2.18,0,4.33-.21,6.43-.84,2.41-.72,4.5-1.93,5.87-4.12,1.29-2.07,1.64-4.37,1.43-6.75-.24-2.66-1.52-4.7-3.94-5.96-.09-.05-.18-.11-.27-.16,.04-.05,.05-.08,.07-.1,.15-.1,.31-.2,.47-.3Zm-6.98,7.28c-.19,1.13-.85,1.95-1.95,2.24-.94,.25-1.93,.4-2.9,.44-1.75,.07-3.51,.02-5.26,.02-.1,0-.21-.02-.36-.04,.13-.89,.26-1.75,.38-2.61,.18-1.22,.36-2.43,.53-3.65,.03-.26,.14-.34,.38-.33,2.06,.04,4.12,.06,6.18,.1,.15,0,.3,.04,.46,.06,2.2,.32,2.9,1.66,2.55,3.78Zm.3-11.92c-.44,.83-1.2,1.24-2.07,1.39-.83,.15-1.67,.23-2.52,.25-1.43,.04-2.85,.01-4.37,.01,.17-1.06,.33-2.04,.5-3.02,.15-.91,.31-1.82,.46-2.73,.04-.22,.09-.37,.36-.36,1.8,.05,3.59,.1,5.39,.14,.03,0,.06,0,.09,.01,2.3,.31,3.26,2.24,2.16,4.3Z" style="fill:#fff;"/><path d="M237.91,16.75c-1.41-3.22-3.67-5.63-6.99-6.92-1.97-.77-4.06-1.01-6.16-1.04-5.08-.05-10.16-.02-15.24-.05-.5,0-.64,.16-.71,.62-.43,3.03-.88,6.05-1.33,9.08-.63,4.26-1.27,8.51-1.9,12.77-.51,3.42-1.02,6.84-1.53,10.26-.13,.85-.24,1.69-.37,2.61h.64c5.28,0,10.56,0,15.84,0,1.88,0,3.75-.16,5.59-.55,6.35-1.36,10.67-5.02,12.61-11.3,.65-2.11,.92-4.29,1-6.5,.11-3.09-.2-6.12-1.46-8.98Zm-11.2,14.5c-1.16,2.64-3.27,3.81-6.05,3.93-1.37,.06-2.74,.05-4.11,.07-.09,0-.18-.02-.33-.04,.24-1.63,.46-3.21,.69-4.79,.55-3.79,1.1-7.58,1.65-11.36,.04-.29,.09-.58,.14-.86,.12-.75,.12-.77,.9-.75,1.35,.05,2.72,.01,4.04,.22,2.46,.38,3.73,1.65,4.17,4.1,.58,3.26,.24,6.43-1.1,9.48Z" style="fill:#fff;"/><path d="M170.36,22.52c.78-1.96,.91-4,.63-6.08-.4-2.97-1.91-5.11-4.67-6.33-2.13-.94-4.4-1.3-6.7-1.32-5.88-.06-11.76-.03-17.64-.05-.34,0-.45,.12-.5,.44-.83,5.58-1.66,11.16-2.49,16.74-.77,5.15-1.53,10.31-2.3,15.46-.13,.88-.25,1.75-.38,2.65,.12,.02,.2,.05,.27,.05,3.45,0,6.9,0,10.34,0,.28,0,.37-.12,.41-.38,.27-1.84,.55-3.68,.83-5.52,.32-2.1,.64-4.19,.95-6.29,.06-.4,.21-.53,.61-.52,.75,.03,1.51-.03,2.26,.02,1.07,.07,2.16,.12,3.2,.33,1.62,.34,2.4,1.36,2.55,3.01,.15,1.65-.27,3.24-.42,4.86-.12,1.3-.16,2.6-.21,3.91-.01,.34,.09,.58,.56,.58,3.69-.02,7.39-.01,11.08-.02,.16,0,.44-.11,.44-.17,0-.29,.03-.76-.12-.84-.96-.52-1.02-1.37-.93-2.27,.17-1.77,.4-3.54,.56-5.32,.12-1.36,.06-2.71-.47-3.99-.61-1.47-1.8-2.33-3.19-2.98-.15-.07-.3-.15-.5-.25,.21-.1,.35-.17,.48-.23,2.43-1.19,4.32-2.93,5.34-5.49Zm-9.9-2c-.15,1.85-1.08,2.79-2.95,3.1-.62,.1-1.25,.16-1.88,.17-1.62,.02-3.23,0-4.85,0h-.49c.14-.91,.26-1.76,.39-2.61,.18-1.17,.37-2.34,.55-3.51,.04-.24,.03-.48,.41-.47,1.86,.04,3.72,.04,5.58,.08,.43,.01,.86,.1,1.27,.22,1.52,.43,2.1,1.43,1.97,3.01Z" style="fill:#fff;"/></svg>