<svg width="250" height="75" viewBox="0 0 250 75" fill="none" xmlns="http://www.w3.org/2000/svg">
<path d="M0 55.0281V19.6493H8.69218C12.6911 19.6493 15.621 19.7763 17.4806 20.0452C19.3305 20.3122 20.9434 20.7269 22.2888 21.3646C23.9019 22.1286 25.1237 23.1939 25.9987 24.4819C26.8777 25.7754 27.2657 27.2368 27.3097 28.8611C27.372 31.1882 25.8172 35.2856 21.4174 35.9277C27.7989 37.3766 28.7547 39.0978 28.7547 44.9343C28.7547 46.6742 28.2667 48.26 27.2896 49.7008C26.3102 51.146 24.9659 52.2544 23.2523 53.049C21.7288 53.7552 19.9375 54.2614 17.8854 54.5662C15.8327 54.8713 12.4405 55.0281 7.69939 55.0281H6.79383H0ZM7.40085 32.7305H9.83631C13.4801 32.7305 16.3237 32.9837 17.8342 32.4381C19.3447 31.8932 20.11 30.4458 20.11 29.1563C20.11 27.8948 19.3862 26.7303 17.9393 26.201C16.483 25.6682 13.6857 25.6661 10.0598 25.6661H7.40085V32.7305ZM7.52678 47.8323H12.4329C15.5674 47.8323 17.9517 47.7399 19.5739 47.0217C21.1955 46.3037 21.9996 44.9945 21.9996 43.622C21.9996 42.328 21.1924 41.0777 19.5875 40.3998C17.9771 39.7195 15.6485 39.6394 12.596 39.6394H7.52678V47.8323ZM33.5945 55.0281V19.6493H57.9358V26.0323H41.3852V33.3059H56.8807V39.7386H41.3852V48.5958H57.9358V55.0281H33.5945ZM78.8767 26.0816V55.0281H70.5581V26.0816H60.4403V19.6493H88.9949V26.0816H78.8767ZM134.443 55.0281V19.6493H142.234V48.5958H158.98V55.0281H134.443ZM162.772 55.0281V19.6493H170.205V55.0281H162.772ZM174.299 55.0281L178.023 19.6493H185.833C188.766 26.1931 191.778 32.0579 195.062 39.4074C198.428 32.2467 201.379 26.1588 204.358 19.6493H212.047L215.795 55.0281H208.723C207.777 47.0762 207.314 38.6504 206.884 29.9993C201.989 41.0391 199.242 45.9013 194.992 55.0281C190.934 46.1296 187.518 38.9797 183.588 29.9741C182.75 41.02 182.502 45.4658 181.37 55.0281H174.299ZM228.062 35.6316H236.335C238.407 35.6316 239.907 35.2048 240.841 34.3532C241.778 33.4981 242.248 32.1268 242.248 30.2466C242.248 28.5062 241.777 27.2362 240.841 26.4364C239.905 25.6364 238.407 25.2405 236.335 25.2405H228.062V35.6316ZM220.411 55.0281V19.6493H236.335C240.998 19.6493 244.436 20.532 246.663 22.3049C248.89 24.0778 250 26.8161 250 30.5268C250 33.9577 248.879 36.6438 246.638 38.5923C244.392 40.5445 241.295 41.5197 237.33 41.5197H228.062V55.0281H220.411ZM110.85 49.0413C117.594 49.0413 123.169 44.0583 123.169 37.3634C123.169 30.7569 117.525 25.6203 110.85 25.6203C104.127 25.6203 98.4627 30.687 98.4627 37.3634C98.4627 44.1678 104.017 49.0413 110.85 49.0413ZM130.464 37.3552C130.464 39.857 129.974 42.2205 128.996 44.4453C128.009 46.678 126.601 48.6342 124.755 50.3208C122.85 52.0568 120.695 53.3851 118.292 54.3059C115.898 55.2271 113.417 55.6914 110.85 55.6914C108.61 55.6914 106.404 55.3326 104.258 54.6073C102.104 53.8823 100.13 52.839 98.3356 51.4862C96.0186 49.7342 94.25 47.6479 93.0142 45.2115C91.7869 42.7747 91.1686 40.1584 91.1686 37.3552C91.1686 34.837 91.6574 32.4821 92.6278 30.2738C93.5979 28.0734 95.0227 26.1092 96.9027 24.3899C98.7483 22.6867 100.885 21.3665 103.323 20.429C105.76 19.4921 108.275 19.0193 110.85 19.0193C113.417 19.0193 115.915 19.4921 118.335 20.429C120.756 21.3665 122.893 22.6867 124.755 24.3899C126.618 26.1092 128.034 28.0734 129.004 30.2897C129.974 32.4983 130.464 34.8533 130.464 37.3552Z" fill="#FEFEFE"/>
<path d="M82.8627 16.6931C88.5609 7.56995 99.0326 1.43936 110.995 1.43936C122.958 1.43936 133.43 7.56995 139.128 16.6931H140.876C135.023 6.74902 123.823 0 110.995 0C98.1586 0 86.9584 6.74902 81.1143 16.6931H82.8627Z" fill="#FDC600"/>
<path fill-rule="evenodd" clip-rule="evenodd" d="M89.4222 16.0276C94.6945 9.83103 102.829 6.66992 110.867 6.66992C118.904 6.66992 127.038 9.83133 132.31 16.0276L133.42 17.3317H127.887L127.657 17.1049C123.227 12.7581 117.009 10.5847 110.858 10.5847C104.704 10.5847 98.4983 12.7657 94.06 17.1061L93.829 17.3317H88.3125L89.4222 16.0276Z" fill="#FDC600"/>
<path d="M82.8627 58.3071C88.5609 67.4301 99.0326 73.5608 110.995 73.5608C122.958 73.5608 133.43 67.4301 139.128 58.3071H140.876C135.023 68.2512 123.823 74.9999 110.995 74.9999C98.1586 74.9999 86.9584 68.2512 81.1143 58.3071H82.8627Z" fill="#FDC600"/>
<path fill-rule="evenodd" clip-rule="evenodd" d="M89.4222 58.9731C94.6945 65.1698 102.829 68.3309 110.867 68.3309C118.904 68.3309 127.038 65.1694 132.31 58.9731L133.42 57.6692H127.887L127.657 57.8955C123.227 62.2422 117.009 64.4156 110.858 64.4156C104.704 64.4156 98.4983 62.235 94.06 57.8947L93.829 57.6692H88.3125L89.4222 58.9731Z" fill="#FDC600"/>
</svg>
