<svg width="122" height="76" viewBox="0 0 122 76" fill="none" xmlns="http://www.w3.org/2000/svg">
<path d="M69.51 41.7C49.62 41.7 49.27 55.48 49.27 55.48C49.27 55.48 46.13 75.37 66.46 75.37H82.86V71.53C82.86 68.84 80.67 66.65 77.98 66.65H69.51C69.51 66.65 64.77 67.05 64.77 62.16H86.41C86.41 62.16 89.39 41.7 69.5 41.7H69.51ZM72.64 55.14H64.44C64.44 55.14 63.85 48.9 68.54 48.9C73.23 48.9 72.64 55.14 72.64 55.14ZM35.29 41.7C23.81 41.26 22.47 46.51 22.47 46.51V28H12.71C9.55 28 7 30.56 7 33.71V75.38H21.62V69.52C21.62 69.52 24.93 75.38 32.62 75.38C40.31 75.38 46.6 69.23 46.28 58.54C46.28 58.54 46.77 42.14 35.29 41.7ZM26.1 64.94C23.8 64.94 21.94 61.66 21.94 57.62C21.94 53.58 23.81 50.3 26.1 50.3C28.39 50.3 30.26 53.58 30.26 57.62C30.26 61.66 28.39 64.94 26.1 64.94Z" fill="black"/>
<path d="M94.84 32.97C91.96 32.97 89.8 32.25 89.05 31.96V26.41C89.81 26.54 91.15 26.74 92.39 26.74C93.55 26.74 94.35 26.57 94.85 26.21C96.51 25.03 95.56 22.27 95.52 22.16L87.64 0.49999H97.55L101.49 15.08L105.31 0.49999H114.44C113.19 4.36999 106.79 24.12 106.39 25.41C106 26.68 103.44 31.65 98.12 32.66C97.04 32.86 95.94 32.97 94.85 32.97H94.84ZM19.41 23.57C15.26 23.57 12.14 22.38 10.12 20.03C6.71001 16.05 7.61001 9.99999 7.62001 9.93999C7.64001 9.49999 8.05001 0.72999 21.09 0.50999H21.58C25.52 0.50999 28.53 1.66999 30.51 3.95999C33.53 7.44999 33.35 12.62 33.22 14.13H17.7V14.63C17.7 16.46 18.56 17.36 19.28 17.8C20.08 18.28 20.95 18.35 21.4 18.35C21.54 18.35 21.62 18.35 21.62 18.35H27.63C29.28 18.35 30.62 19.69 30.62 21.34V23.59H19.4L19.41 23.57ZM20.89 4.63999C19.92 4.63999 19.12 4.96999 18.54 5.61999C17.24 7.04999 17.46 9.53999 17.47 9.64999L17.51 10.1H24.28L24.32 9.64999C24.33 9.53999 24.55 7.04999 23.25 5.61999C22.66 4.96999 21.87 4.63999 20.9 4.63999H20.89ZM65.45 23.56V21.47C65.45 20.06 66.59 18.92 67.99 18.92C68.45 18.92 68.89 18.93 69.34 18.93C75.78 18.93 76.59 17.87 76.86 17.52C77.1 17.2 77.17 16.83 77.07 16.44C76.74 15.22 74.92 14.85 72.62 14.38C68.82 13.6 64.09 12.64 64.09 7.82999C64.09 0.69999 71.78 0.48999 72.65 0.48999H84.85L84.94 2.40999C84.9 3.06999 84.64 3.67999 84.18 4.15999C83.65 4.70999 82.95 5.00999 82.19 5.00999H81.55C74.34 5.00999 73.49 6.28999 73.47 7.25999C73.46 8.31999 74.88 8.56999 77.03 8.93999C80.77 9.58999 86.43 10.56 86.43 16.09C86.43 23.46 76.99 23.55 76.59 23.55H65.45V23.56ZM51.55 23.56V18.89L50.63 20.3C50.54 20.43 48.45 23.56 43.16 23.56C38.25 23.56 35.32 20.89 35.32 16.43C35.32 14.22 36.43 9.06999 46.68 9.06999C47.96 9.06999 49.36 9.14999 50.83 9.31999L51.39 9.37999V5.07999H40.65C39.22 5.07999 38.03 3.91999 38.01 2.48999L37.97 0.50999H51.94C56.86 0.50999 60.87 4.50999 60.87 9.43999V23.58H51.57L51.55 23.56ZM47.76 12.86C46.2 12.86 44.92 14.13 44.92 15.7C44.92 17.27 46.19 18.54 47.76 18.54H48.66C50.22 18.54 51.5 17.27 51.5 15.7V12.86H47.77H47.76Z" fill="white"/>
<path fill-rule="evenodd" clip-rule="evenodd" d="M92.5901 35.33C94.1501 35.53 96.0701 35.56 98.2101 35.15C101.96 34.44 104.39 31.88 105.71 29.85C107.02 30.83 107.87 32.39 107.87 34.16V41.05H115.13V50.68H107.87V60.4C107.87 61.38 108.1 62.35 108.63 63.17C109.53 64.55 111.39 65.9 115.13 64.05V73.7C115.13 73.7 111.78 75.74 104.28 75.74C96.7801 75.74 92.2901 71.2 92.2401 65.06C92.1801 58.93 92.2401 50.63 92.2401 50.63L86.5701 50.68V41.14H92.5801V35.33H92.5901Z" fill="black"/>
</svg>
