<?xml version="1.0" encoding="UTF-8"?><svg id="gbets" xmlns="http://www.w3.org/2000/svg" xmlns:xlink="http://www.w3.org/1999/xlink" viewBox="0 0 668.58 336.16"><defs><linearGradient id="linear-gradient" x1="14.63" y1="187.48" x2="142.14" y2="91.92" gradientUnits="userSpaceOnUse"><stop offset="0" stop-color="#ffea01"/><stop offset=".99" stop-color="#ed6925"/></linearGradient></defs><path d="M273.01,199.61c-6.68,0-12.58-.27-18.44,.08-5.32,.32-7.02-2.07-6.19-6.87,.96-5.52,2.09-11.01,3.2-16.79h58.07c4.32,21.41-11.13,56.08-40.25,64.08-16.41,4.5-32.34,3.92-48.26-1.92-22.97-8.43-34.9-28.84-34.11-52.34,.83-24.86,10.84-46.15,33.89-58.33,27.42-14.48,66.15-11.23,84.07,16.42,.53,.82,.93,1.72,1.76,3.25-8.35,5.71-16.51,11.29-25.12,17.17-7.43-12.8-18.33-17.12-32.16-15.21-12.48,1.72-25.16,13.72-26.67,26.36-.72,6.06-.71,12.34-.03,18.41,1.25,11.27,11.58,19.98,24.01,21.05,12.93,1.12,22.28-3.99,26.24-15.37Z" style="fill:#fff;"/><path d="M666.6,264.24c-218.83-7.5-434.06,19.77-646.82,70.92,211.78-60.58,427.05-87.41,646.82-70.92Z" style="fill:#f1b825;"/><path d="M364.25,114.62c-2.82,17.81-5.42,34.18-8.12,51.17,5.18-2.75,9.73-6.08,14.83-7.71,20.98-6.74,39.42,3.5,43.41,25.28,3.11,16.94,.24,33.38-12.27,46.64-15.36,16.29-35.66,17.47-53.02,3.32-1.14-.93-2.29-1.83-4.37-3.5,.77,9.68-4.39,10.89-11.44,10.31-5.54-.45-11.14-.09-17.13-.09,2.08-14.27,3.9-27.43,5.94-40.55,3.62-23.28,7.38-46.54,11.1-69.81,.61-3.79,1.03-7.65,2.15-11.3,.46-1.51,2.47-3.55,3.86-3.61,7.9-.35,15.81-.17,25.05-.17Zm21.49,82.88c.13-11.61-5.42-17.11-16.09-17.94-13.57-1.06-19.73,10.8-20.54,21.03-.78,9.82,6.75,17.4,16.41,17.57,10.98,.2,20.09-9.11,20.22-20.66Z" style="fill:#fff;"/><path d="M455.76,205.9c-1.58,6.9-.5,12.23,5.22,14.76,10.66,4.71,19.94,1.03,28.65-6.76,5.16,5.31,10.2,10.5,15.25,15.69-17.15,17.45-50.45,18.52-67.19,2.36-7.5-7.24-10.46-16.71-11-26.32-.98-17.4,6.48-35.95,24.03-44.75,18.04-9.03,39.89-6.64,53.19,5.67,9.34,8.65,12.07,19.84,12.42,31.93,.15,5.14-1.83,7.74-7.79,7.57-14.88-.42-29.79-.14-44.69-.14-2.75,0-5.49,0-8.09,0Zm2.39-17.42h29.24c-.12-7.37-3.53-11.22-9.96-12.4-7.66-1.4-18.14,2.86-19.28,12.4Z" style="fill:#fff;"/><path d="M576.42,232.97c3.28-6.99,6.18-13.17,9.16-19.55,6.11,2.7,11.56,5.4,17.23,7.49,2.79,1.02,6.11,1.56,8.99,1.07,2.43-.41,6.2-2.36,6.44-4.05,.33-2.29-1.51-5.89-3.54-7.31-3.91-2.74-8.54-4.51-13-6.39-11.36-4.79-17.26-12.47-16.87-22.32,.39-10.1,8.6-20.69,18.97-23.84,13.81-4.19,27.39-3.04,40.34,3.22,1.77,.85,3.96,4.24,3.5,5.67-1.67,5.23-4.39,10.12-6.23,14.11-7.91-1.84-14.66-3.82-21.56-4.77-2.06-.28-4.51,2.32-6.79,3.6,1.45,2.18,2.42,5.17,4.44,6.38,4.59,2.73,9.69,4.59,14.6,6.77,10.05,4.46,16.21,11.63,15.4,23.15-.86,12.09-7.95,19.66-18.88,23.7-18.24,6.76-35.15,2.57-52.2-6.94Z" style="fill:#fff;"/><path d="M527.29,240.05c3.25-20.58,6.28-39.72,9.45-59.8-4.29-.34-8.2-.66-12.77-1.02,.73-6.41,1.18-12.43,2.29-18.32,.23-1.24,2.78-2.64,4.43-2.9,2.97-.47,6.08-.13,9.43-.13,1.08-6.4,1.72-12.25,3.19-17.89,.53-2.05,2.92-5,4.63-5.12,7.87-.55,15.81-.24,25.04-.24-1.09,7.98-2.05,15.08-3.1,22.79,4.86,.29,8.87,.53,13.79,.83-.77,6.33-1.14,12.37-2.48,18.17-.34,1.47-3.98,3.38-5.79,3.1-9.08-1.42-10.48,3.99-11.4,11.04-1.93,14.7-4.5,29.31-6.52,43.99-.57,4.14-2.18,5.74-6.39,5.59-7.38-.26-14.78-.07-23.79-.07Z" style="fill:#fff;"/><path d="M97.8,1s9.79,76.07-29.05,99.15c-48.54,28.83-96.68,61.34-43.52,121.8,32.66,37.15,91.72,21.12,114.23-5.87,22.51-26.99,25.11-64.73,19.09-98.81C147.11,52.54,97.8,1,97.8,1Z" style="fill:url(#linear-gradient);"/></svg>