<?xml version="1.0" encoding="UTF-8"?><svg xmlns="http://www.w3.org/2000/svg" viewBox="0 0 136.73 51"><g id="a"/><g id="b"/><g id="c"/><g id="d"/><g id="e"/><g id="f"/><g id="g"/><g id="h"/><g id="i"/><g id="j"/><g id="k"/><g id="l"/><g id="m"/><g id="n"/><g id="o"/><g id="p"/><g id="q"/><g id="r"/><g id="s"/><g id="t"/><g id="u"/><g id="v"/><g id="w"/><g id="x"/><g id="y"/><g id="a`"/><g id="aa"/><g id="ab"/><g id="ac"/><g id="ad"/><g id="ae"/><g id="af"/><g id="ag"/><g id="ah"/><g id="ai"/><g id="aj"/><g id="ak"/><g id="al"/><g id="am"/><g id="an"/><g id="ao"/><g id="ap"/><g id="aq"/><g id="ar"/><g id="as"/><g id="at"/><g id="au"/><g id="av"/><g id="aw"/><g id="ax"/><g id="ay"/><g id="b`"/><g id="ba"/><g id="bb"/><g id="bc"/><g id="bd"/><g id="be"/><g id="bf"/><g id="bg"/><g id="bh"/><g id="bi"/><g id="bj"/><g id="bk"/><g id="bl"/><g id="bm"/><g id="bn"/><g id="bo"/><g id="bp"/><g id="bq"/><g id="br"/><g id="bs"/><g id="bt"/><g id="bu"/><g id="bv"/><g id="bw"/><g id="bx"/><g id="by"/><g id="c`"/><g id="ca"/><g id="cb"/><g id="cc"/><g id="cd"/><g id="ce"/><g id="cf"/><g id="cg"/><g id="ch"/><g id="ci"/><g id="cj"/><g id="ck"/><g id="cl"/><g id="cm"/><g id="cn"/><g id="co"/><g id="cp"/><g id="cq"/><g id="cr"/><g id="cs"/><g id="ct"/><g id="cu"/><g id="cv"/><g id="cw"/><g id="cx"/><g id="cy"/><g id="d`"/><g id="da"/><g id="db"/><g id="dc"/><g id="dd"/><g id="de"/><g id="df"/><g id="dg"/><g id="dh"/><g id="di"/><g id="dj"/><g id="dk"/><g id="dl"/><g id="dm"/><g id="dn"/><g id="do"/><g id="dp"/><g id="dq"/><g id="dr"/><g id="ds"/><g id="dt"/><g id="du"/><g id="dv"/><g id="dw"/><g id="dx"/><g id="dy"/><g id="e`"/><g id="ea"/><g id="eb"/><g id="ec"/><g id="ed"/><g id="ee"/><g id="ef"><path d="M79.69,12.39c-.39,2.77-.81,5.53-1.15,8.3-.31,2.55-2.57,3.85-4.94,2.78-.43-.2-.5-.53-.57-.93-1.24-7.02-2.49-14.04-3.72-21.06-.04-.24-.06-.66,.04-.71,1.49-.7,3.09-.35,4.63-.28,1.06,.05,.91,1.1,.99,1.86,.32,3.17,.64,6.34,1.41,9.54,.33-2.46,.66-4.92,1-7.38,.09-.65,.29-1.3,.25-1.94-.14-2.1,1.07-2.28,2.73-2.2,1.17,.06,1.6,.51,1.73,1.63,.38,3.31,.84,6.62,1.34,10.49,.88-2.65,.61-4.91,1.05-7.07,.06-.32-.02-.66,.04-.98,.91-4.75-.65-3.87,4.42-4.04,1.3-.04,1.62,.46,1.41,1.62-1.2,6.77-2.38,13.53-3.56,20.3-.14,.82-.52,1.3-1.45,1.23-.65-.05-1.32-.08-1.97,0-1.45,.19-1.93-.44-2.07-1.85-.32-3.1-.83-6.18-1.26-9.27l-.35-.03h0ZM.01,11.72v8.08C.01,23.68,.01,23.63,3.89,23.55c1.18-.03,1.65-.36,1.6-1.59-.08-2.16,.01-4.34-.03-6.5-.02-.95,.17-1.45,1.28-1.41,.98,.03,1.45,.28,1.41,1.34-.06,1.64-.01,3.28,0,4.93,0,3.2,0,3.08,3.26,3.24,1.88,.09,2.32-.56,2.29-2.31-.09-5.65-.02-11.3-.04-16.95-.02-4.48,.67-3.83-4-3.93-1.27-.03-1.57,.5-1.53,1.63,.06,1.77,.04,3.55,0,5.32-.02,.9,.4,2-1.29,2.04-1.66,.04-1.36-.99-1.37-1.94-.01-1.05,.02-2.1,0-3.15C5.37-.04,6.45,.44,1.45,.37,.34,.35-.02,.75,0,1.86c.06,3.28,.02,6.57,.02,9.85H.01Zm122.83,.16c0,3.35,.03,6.7-.02,10.05-.02,1.16,.31,1.68,1.56,1.62,1.83-.09,3.68,.02,5.51-.03,3.8-.11,5.75-1.59,6.35-5.34,.66-4.09,.63-8.26,.02-12.34-.55-3.7-2.04-4.91-5.74-5.27-1.95-.19-3.94-.02-5.9-.13-1.37-.08-1.86,.39-1.83,1.79,.08,3.22,.03,6.43,.03,9.65h.02Zm5.49-5.06c0-.51-.34-1.28,.6-1.39,.77-.09,1.42,.09,1.75,.91,.27,.68,.39,1.38,.38,2.11-.02,2.36-.02,4.72,0,7.08,0,.81-.13,1.57-.46,2.29-.34,.74-1.06,.69-1.71,.64-.84-.06-.56-.77-.57-1.22-.04-1.77-.02-3.54-.02-5.31h0c0-1.7-.03-3.41,.02-5.11h.01Zm-21.33,5.14c0,1.71-.05,3.42,0,5.12,.14,4.09,2.38,6.41,6.45,6.76,3.63,.32,6.6-1.75,7.09-5.56,.54-4.22,.61-8.54-.05-12.75-.6-3.8-2.89-5.38-6.8-5.33-3.73,.06-5.93,1.74-6.52,5.46-.32,2.05-.06,4.19-.06,6.29h-.11Zm8.2,5.25c-.03,.78-.26,1.62-1.31,1.64-1.07,.02-1.33-.85-1.34-1.61-.06-3.53-.05-7.06,0-10.59,.01-.82,.41-1.6,1.4-1.56,.87,.04,1.2,.79,1.23,1.53,.06,1.83,.02,3.66,.02,5.49h.02c0,1.7,.05,3.4-.02,5.1Zm-10.23-10.5c-.17-3.69-2.36-6.15-5.59-6.41-4.71-.39-7.28,1.13-7.89,5.32-.62,4.27-.62,8.63,.03,12.92,.66,4.37,3.58,5.43,7,5.28,4.13-.18,6.34-2.63,6.46-6.67,.05-1.7,0-3.41,0-5.11s.07-3.54-.01-5.31v-.02Zm-5.51,10.32c-.02,.87-.18,1.79-1.34,1.8-1.17,0-1.34-.97-1.35-1.8-.05-3.4-.04-6.8,0-10.2,.01-.89,.31-1.81,1.42-1.73,.93,.06,1.24,.88,1.25,1.72,.03,1.7,0,3.4,0,5.1h0c0,1.7,.03,3.4-.01,5.1h.03ZM29.56,7.14c-.17-3.64-1.91-6.09-4.69-6.75-4.92-1.18-8.83,1.35-9.02,6-.15,3.74-.14,7.49,0,11.23,.14,3.69,2.53,5.92,6.32,6.24,3.63,.3,6.3-1.74,7.13-5.32,.5-2.15,.16-4.32,.28-5.78,0-2.34,.07-3.98-.01-5.62h-.01Zm-5.66,10.23c-.03,.71-.26,1.48-1.25,1.46-1.02-.03-1.32-.75-1.32-1.6-.02-3.53-.02-7.06,0-10.59,0-.89,.47-1.56,1.39-1.57,.91,0,1.17,.8,1.2,1.53,.06,1.83,.02,3.66,.02,5.49h0c0,1.76,.05,3.53-.02,5.29h-.02ZM61.42,7.58c-.33-1.22-.68-2.43-.99-3.65-1.02-4.04,.04-3.47-4.53-3.52h-.39c-1.07-.09-1.22,.46-.96,1.34,.47,1.62,.69,3.34,1.39,4.84,2.2,4.78,3.38,9.71,2.89,14.99-.14,1.51,.09,2.5,2.07,2.39,3.18-.17,3.57-.23,3.39-2.58-.36-4.74,.51-9.22,2.23-13.6,.5-1.27,.92-2.59,1.3-3.9,1.11-3.83,1.81-3.38-2.53-3.51-1.39-.04-1.98,.42-2.19,1.82-.27,1.8-.83,3.55-1.27,5.32l-.4,.06h-.01Zm-29.8,4.34c0,3.28,.06,6.57-.03,9.85-.04,1.41,.46,1.82,1.81,1.78,2.56-.09,5.13-.16,7.68,.02,1.91,.13,2.33-.59,2.26-2.34-.12-2.76-.03-2.76-2.79-2.76-.59,0-1.19-.08-1.77,0-1.45,.22-1.72-.44-1.7-1.76,.08-4.14,.03-8.27,.03-12.41s0-3.93-3.93-3.95c-1.4,0-1.59,.53-1.57,1.72,.06,3.28,.02,6.57,.02,9.85h0Zm13.38,10.08c0,.85,0,1.55,1.2,1.53,3.09-.05,6.17-.03,9.26-.01,.76,0,.97-.33,1.06-1.06,.45-3.79,.29-4-3.44-4-.39,0-.79-.05-1.18,0-1.16,.17-1.42-.36-1.41-1.44,.06-4.2,.03-8.4,.02-12.61,0-4.2,0-4.14-4.23-4.07-1.11,.02-1.3,.4-1.29,1.36,.04,3.35,0,6.7,0,10.05v10.24h0Z" style="fill:#f8f6fa;"/><path d="M41.41,27.04h4.32v7.25c.71-1.24,1.89-1.74,3.14-1.74,2.66,0,3.71,2.04,3.71,5.31v6.5c0,3.86-.65,6.64-4.12,6.64-1.72,0-2.52-.93-2.91-1.82-.02,.63-.07,1.13-.12,1.54h-4.05c.05-1.08,.03-3.03,.03-4.47V27.04Zm6.85,17.82v-6.27c0-1.34-.15-2.27-1.21-2.27s-1.32,.79-1.32,2.37v6.26c0,1.65,.41,2.27,1.27,2.27,.74,0,1.26-.58,1.26-2.35Zm13.52-1.97v2.61c0,1.14,.26,1.99,1.24,1.99,1.06,0,1.24-.89,1.24-2.05v-.4h4.19v.25c0,2.4-.73,5.71-5.4,5.71s-5.54-2.61-5.54-6.29v-6.06c0-2.95,1.34-6.11,5.56-6.11,3.72,0,5.44,2.25,5.44,6.07v4.25h-6.72l-.02,.02Zm2.55-3.09v-1.75c0-1.37-.3-2.02-1.26-2.02-.83,0-1.27,.6-1.27,2.02v1.75h2.53Zm8.22-6.97h1.75v-4.05h4.29v4.05h2.02v3.86h-2.02v9.3c0,.81,.12,1.31,1.11,1.31,.23,0,.6-.02,.78-.08v3.38c-.74,.3-1.84,.36-2.48,.36-2.61,0-3.74-.94-3.74-4.07v-10.21h-1.7v-3.84Zm16.33,12.1v.84c0,.99,.2,1.8,1.11,1.8,.66,0,.99-.43,.99-1.39s-.23-1.65-2.33-3c-2.65-1.69-3.71-2.98-3.71-5.58,0-3.28,1.77-5.06,5.06-5.06,3.96,0,5.05,2.2,5.05,5.23v.76h-3.99v-1.09c0-1.13-.31-1.52-.96-1.52s-.93,.48-.93,1.29,.36,1.26,1.89,2.2c3.28,2.05,4.27,3.49,4.27,6.16,0,3.51-1.54,5.43-5.36,5.43-4.53,0-5.23-2.83-5.23-5.43v-.66h4.14v.02Z" style="fill:#eddc56;"/></g></svg>