<svg width="250" height="28" viewBox="0 0 250 28" fill="none" xmlns="http://www.w3.org/2000/svg">
<path d="M174.641 14.2553C177.127 19.9747 172.505 27.3487 165.765 27.7427C158.19 28.1876 150.569 27.9234 142.966 27.9095C140.896 27.9095 141.334 26.5284 141.735 25.3233C143.806 19.1126 145.826 12.8787 148.004 6.70514C150.424 -0.145148 148.783 0.726202 156.609 0.679853C161.497 0.652044 166.385 0.679853 171.269 0.675218C174.114 0.675218 177.132 0.62887 178.447 3.70177C179.851 6.98787 178.633 9.9588 176.418 12.5682C175.924 13.1476 175.308 13.625 174.636 14.2553H174.641ZM152.197 20.8831C155.98 20.8831 159.734 20.9109 163.489 20.8553C164.063 20.846 164.809 20.6097 165.163 20.2111C165.723 19.5807 166.017 18.7279 166.423 17.9678C165.709 17.6341 165.009 17.0408 164.282 17.0084C161.661 16.8925 159.035 16.962 156.409 16.962C154.045 16.962 152.642 18.2691 152.197 20.8831ZM155.289 11.6366C159.105 11.6366 162.715 11.6598 166.325 11.6134C166.908 11.6042 167.626 11.4095 168.027 11.0387C168.596 10.5103 168.927 9.73633 169.356 9.06891C168.68 8.69349 168.018 8.03071 167.327 7.99363C164.711 7.86385 162.085 7.93801 159.464 7.93801C157.2 7.93801 155.809 9.17242 155.289 11.6412V11.6366Z" fill="white"/>
<path d="M211.063 11.3864C210.415 13.3098 209.977 14.9923 209.24 16.5449C209.035 16.9806 207.966 17.2123 207.29 17.2216C201.782 17.2726 196.269 17.3977 190.77 17.1892C188.256 17.0918 187.234 17.9864 187.15 20.4938H208.097C207.318 22.8576 206.702 24.9572 205.896 26.9872C205.718 27.4368 204.869 27.891 204.324 27.891C196.021 27.9466 187.719 27.9652 179.422 27.9003C177.057 27.8817 176.273 26.6396 177.043 24.1183C178.27 20.1091 179.646 16.1463 180.975 12.1696C181.87 9.49534 182.78 6.82567 183.708 4.16064C184.431 2.08423 185.872 0.749395 188.148 0.735491C196.679 0.679872 205.215 0.716951 213.745 0.735491C213.96 0.735491 214.17 0.883805 214.608 1.04139C213.909 3.21513 213.312 5.41204 212.435 7.49772C212.239 7.96584 211.045 8.2393 210.308 8.24393C204.725 8.30418 199.132 8.38761 193.554 8.22539C191.194 8.15587 190.322 9.08747 190.266 11.391H211.063V11.3864Z" fill="white"/>
<path d="M137.337 27.7751H128.149C127.957 26.5562 127.766 25.3094 127.533 23.8309C122.836 23.8309 118.205 23.7336 113.582 23.9236C112.785 23.956 111.829 25.0869 111.32 25.9305C110.317 27.5805 109.025 28.1181 107.113 27.9744C104.902 27.8076 102.673 27.9374 99.9629 27.9374C100.551 27.0011 100.84 26.4218 101.236 25.9258C106.707 19.0199 112.22 12.1465 117.654 5.21737C120.644 1.4029 124.473 -0.381514 129.371 0.0680658C132.435 0.350791 134.333 1.79223 134.702 4.55923C135.7 12.0213 136.563 19.5019 137.468 26.9779C137.491 27.1865 137.398 27.4136 137.332 27.7844L137.337 27.7751ZM125.947 7.90094L125.317 7.7758C122.967 10.8394 120.621 13.9031 118.083 17.2077H126.922C126.586 14.0097 126.269 10.9553 125.952 7.90094H125.947Z" fill="#39B5FF"/>
<path d="M72.612 0.679873C70.0514 7.98438 67.7753 15.0062 65.112 21.8796C63.6708 25.5968 60.3919 27.6176 56.39 27.7705C50.3499 27.9976 44.2911 27.9976 38.251 27.7983C34.0999 27.6639 32.6307 25.6802 33.1671 21.6154C33.335 20.3455 33.7408 19.0941 34.1465 17.8705C35.8443 12.7305 37.6214 7.61823 39.2911 2.46892C39.6969 1.21751 40.224 0.564002 41.6932 0.647429C43.9087 0.772569 46.1382 0.679873 48.6941 0.679873C46.7632 6.38536 44.9628 11.7062 43.1624 17.0316C42.071 20.2528 42.2809 20.5355 45.7837 20.5355C48.4982 20.5355 51.2128 20.4845 53.9273 20.5541C56.1102 20.6097 57.3695 19.6827 58.0365 17.6387C59.6829 12.5682 61.4553 7.54407 63.1158 2.47819C63.5169 1.24996 64.0393 0.564002 65.5225 0.647429C67.7473 0.772569 69.9861 0.679873 72.626 0.679873H72.612Z" fill="#FFEA00"/>
<path d="M250 1.10165C249.319 3.19659 248.689 5.37033 247.859 7.46992C247.696 7.88705 246.782 8.22076 246.198 8.23466C243.484 8.31346 240.76 8.40615 238.055 8.22539C236.203 8.10025 235.504 8.84646 234.99 10.4548C233.311 15.7524 231.464 20.999 229.743 26.2827C229.365 27.4507 228.862 28.0393 227.481 27.9605C225.252 27.8354 223.008 27.9281 220.424 27.9281C222.644 21.3049 224.767 14.9784 226.996 8.33663H215.172C215.993 5.85699 216.651 3.69252 217.458 1.5883C217.616 1.1758 218.363 0.72159 218.834 0.716955C228.997 0.689146 239.16 0.716955 249.324 0.754034C249.459 0.754034 249.594 0.888444 249.99 1.09701L250 1.10165Z" fill="white"/>
<path d="M30.0466 20.5355C29.3003 22.8576 28.6986 24.9618 27.9057 26.9965C27.7331 27.4368 26.8796 27.8864 26.3386 27.891C19.2863 27.9374 12.2294 27.9976 5.18182 27.8539C1.10533 27.7705 -0.363889 25.9815 0.074544 21.9909C0.23779 20.4984 0.704209 19.0153 1.17529 17.5785C2.8404 12.5126 4.60813 7.47918 6.24059 2.40404C6.66037 1.10165 7.28071 0.577908 8.69395 0.647431C10.8441 0.754032 13.0083 0.67524 15.5503 0.67524C14.79 3.02047 14.1464 5.08297 13.4607 7.12694C12.304 10.5892 11.1193 14.0468 9.96261 17.509C9.01112 20.3594 9.12772 20.5263 12.0988 20.5263C17.9803 20.5355 23.8619 20.5263 30.0466 20.5263V20.5355Z" fill="#FFEA00"/>
<path d="M85.9326 0.679864C83.9456 6.59392 82.1033 12.063 80.2749 17.5368C79.3281 20.364 79.454 20.5355 82.4344 20.5355C88.3113 20.5401 94.1928 20.5355 100.368 20.5355C99.6126 22.8715 99.0109 24.9803 98.218 27.015C98.0455 27.4553 97.1872 27.891 96.6415 27.891C89.5893 27.9374 82.5324 27.9976 75.4848 27.8493C71.4176 27.7659 69.9577 25.9675 70.3962 21.9677C70.5501 20.5494 70.9885 19.1404 71.4363 17.7732C73.1247 12.6377 74.9158 7.53016 76.5669 2.38085C76.9913 1.06456 77.6397 0.577898 79.0342 0.642785C81.1844 0.744752 83.3486 0.670595 85.9372 0.670595L85.9326 0.679864Z" fill="#39B5FF"/>
</svg>
