<svg width="150" height="54" viewBox="0 0 150 54" fill="none" xmlns="http://www.w3.org/2000/svg">
<path d="M96.4706 11.6514C95.3363 12.0175 94.3025 12.197 93.3621 12.197H85.3074L86.2263 9.54077H77.3675L72.7012 23.1233L81.5312 23.0874L83.9362 16.2028H93.3334C95.5445 16.2028 98.0212 15.8151 100.756 15.0398C104.963 13.8697 107.828 12.0319 109.364 9.54077H99.6796C98.9832 10.4669 97.9207 11.1704 96.4778 11.6514H96.4706Z" fill="white"/>
<path d="M106.291 1.16299C104.195 0.387664 101.819 0 99.1554 0H80.6409L78.0996 7.38711H86.9656L88.1286 4.01302H95.9392C97.1668 4.01302 98.2006 4.2571 99.0477 4.73809C100.081 5.26933 100.606 6.05183 100.606 7.07124C100.606 7.17174 100.584 7.27943 100.57 7.38711H110.311C110.455 6.87741 110.534 6.38206 110.534 5.90107C110.534 3.79047 109.12 2.21111 106.291 1.16299Z" fill="white"/>
<path d="M67.1659 0.0358968L64.6245 7.41582H73.4905L76.039 0L67.1659 0.0358968Z" fill="white"/>
<path d="M60.5972 19.1246H54.2726C52.4132 19.1246 50.9344 18.6652 49.836 17.7535C48.7376 16.8417 48.192 15.607 48.192 14.0492C48.192 13.2451 48.3571 12.3836 48.6874 11.4576L49.3335 9.58386H40.5536L39.8501 11.6227C39.4481 12.8144 39.2471 13.9199 39.2471 14.9393C39.2471 17.6601 40.5752 19.7564 43.2386 21.2424C45.4999 22.5059 48.314 23.1377 51.681 23.1377L68.0776 23.1736L72.7367 9.59104H63.8708L60.5828 19.1318L60.5972 19.1246Z" fill="white"/>
<path d="M52.643 0L43.8488 0.0358968L41.3003 7.41582H50.0801L52.643 0Z" fill="white"/>
<path d="M30.0366 10.5602C28.1486 9.92843 26.0308 9.61256 23.6761 9.61256C23.6761 9.61256 18.7657 9.5982 18.4642 9.57666H4.47247C4.88167 10.8904 6.15233 11.9098 8.30601 12.6349C10.1941 13.2666 12.2975 13.5825 14.6306 13.5825H19.0457C20.1728 13.5825 21.1922 13.7189 22.0824 13.9845C23.4033 14.3722 24.0637 14.9967 24.0637 15.851C24.0637 16.0449 24.0278 16.2531 23.9561 16.4756C23.5756 17.5524 22.4485 18.3062 20.5676 18.7513C19.5338 18.9954 18.4714 19.1174 17.3873 19.1174H1.37835L0 23.1592L18.7585 23.1233C20.8548 23.073 23.0802 22.7213 25.4349 22.068C30.0294 20.8332 32.8077 18.8375 33.7768 16.0736C33.9419 15.5423 34.0209 15.047 34.0209 14.5875C34.0209 12.7713 32.6928 11.4288 30.0294 10.553L30.0366 10.5602Z" fill="white"/>
<path d="M12.8646 1.12708C8.29164 2.36185 5.52776 4.35759 4.5586 7.12148C4.52989 7.22198 4.51553 7.32249 4.48682 7.42299H14.3507C14.3507 7.42299 14.3435 7.37274 14.3435 7.34402C14.3435 7.15019 14.3937 6.942 14.4871 6.71946C14.8388 5.64262 15.9731 4.88883 17.8755 4.44374C18.8877 4.19966 19.9359 4.07761 21.0199 4.07761H36.9212L38.3354 0.0717773H19.5769C17.4591 0.12203 15.2193 0.473798 12.8646 1.12708Z" fill="white"/>
<path d="M136.565 12.3119H122.042C122.386 11.3212 122.803 10.4166 123.305 9.58386H114.411C114.03 10.2946 113.7 11.034 113.427 11.8237L109.507 23.1664L118.309 23.1305L120.642 16.3177H135.201L132.868 23.1664L141.698 23.1305L146.371 9.58386H137.519L136.572 12.3119H136.565Z" fill="white"/>
<path d="M144.16 0.035867H133.521C130.836 0.035867 127.964 0.545568 124.899 1.56498C120.922 2.87154 117.9 4.83138 115.832 7.41579H124.935C125.323 7.0066 125.732 6.62611 126.177 6.28153C128.058 4.78831 130.276 4.0417 132.817 4.0417H139.422L138.252 7.41579H147.096L149.63 0.0645806C150.858 0.0645806 149.027 0.0502233 144.153 0.0286865L144.16 0.035867Z" fill="white"/>
<path d="M81.3154 30.4242L79.937 34.43H91.5238L90.3751 37.7682H99.2411L100.39 34.43H111.984L113.362 30.4242H81.3154Z" fill="white"/>
<path d="M84.9551 53.5188L93.821 53.4829L98.4945 39.9291H89.6286L84.9551 53.5188Z" fill="white"/>
<path d="M141.037 40.9126C139.149 40.2808 137.031 39.965 134.676 39.965C134.676 39.965 129.766 39.9506 129.464 39.9291H115.473C115.882 41.2428 117.152 42.2622 119.306 42.9873C121.194 43.619 123.298 43.9349 125.631 43.9349H130.046C131.18 43.9349 132.192 44.0713 133.082 44.3369C134.403 44.7246 135.064 45.3492 135.064 46.2035C135.064 46.3973 135.028 46.6055 134.956 46.828C134.576 47.9049 133.449 48.6586 131.568 49.1037C130.534 49.3478 129.471 49.4699 128.387 49.4699H112.529L111.345 53.5116L129.766 53.4757C131.862 53.4254 134.088 53.0737 136.442 52.4204C141.037 51.1856 143.815 49.1899 144.784 46.426C144.949 45.8948 145.028 45.3994 145.028 44.94C145.028 43.1237 143.7 41.7812 141.037 40.9054V40.9126Z" fill="white"/>
<path d="M130.577 30.4242C128.459 30.4744 126.219 30.8262 123.865 31.4795C119.292 32.7143 116.528 34.71 115.559 37.4739C115.53 37.5744 115.516 37.6749 115.487 37.7754H125.351C125.351 37.7754 125.343 37.7252 125.343 37.6964C125.343 37.5026 125.394 37.2944 125.487 37.0719C125.839 35.995 126.973 35.2413 128.875 34.7962C129.888 34.5521 130.936 34.43 132.02 34.43H148.323L149.335 30.4242H130.577Z" fill="white"/>
<path d="M41.9248 42.2264C41.5228 43.3678 41.3218 44.4375 41.3218 45.4282C41.3218 48.1203 42.6786 50.2022 45.385 51.6595C47.6679 52.8727 50.4749 53.4829 53.7916 53.4829H68.8458L70.2241 49.4771H56.376C54.653 49.4556 53.289 48.9818 52.2768 48.0629C51.1928 47.1009 50.6759 45.7225 50.719 43.935H72.1696L73.5479 39.9291H42.937C42.5422 40.6542 42.2048 41.4152 41.932 42.2192L41.9248 42.2264Z" fill="white"/>
<path d="M53.404 31.9175C49.4412 33.2384 46.4333 35.1911 44.3657 37.7755H53.605C54.2655 37.0791 55.0264 36.4689 55.8951 35.9377C57.5821 34.9111 59.384 34.3942 61.3223 34.3942H75.4576L76.836 30.3525H61.9971C59.3625 30.3525 56.4981 30.8765 53.4112 31.9175H53.404Z" fill="white"/>
<path d="M33.9058 41.9033C35.1765 41.2931 36.2246 40.6326 37.0717 39.9363H6.10901L1.43555 53.5188L19.7059 53.4901C21.9816 53.4901 24.4224 53.1957 27.0212 52.6071C32.0393 51.4943 35.0185 49.5632 35.959 46.8209C36.1672 46.2394 36.2748 45.7153 36.2748 45.2559C36.2748 44.1359 35.478 43.016 33.9058 41.9033ZM26.3105 46.8209C25.93 47.9192 24.7886 48.6802 22.879 49.1181C21.838 49.3909 20.7827 49.513 19.7059 49.513H11.644L13.5464 43.978H21.3571C22.4626 43.978 23.4748 44.1144 24.3866 44.38C25.7362 44.7677 26.4038 45.3851 26.4038 46.2394C26.4038 46.4332 26.3751 46.627 26.3033 46.8209H26.3105Z" fill="white"/>
<path d="M34.8536 31.3718C32.7071 30.7401 30.3811 30.4242 27.8542 30.4242H9.37563L6.84863 37.7754H15.7003L16.8273 34.4372H24.638C25.7436 34.4372 26.7558 34.5736 27.6747 34.8392C28.9956 35.2556 29.6561 35.8802 29.6561 36.7057C29.6561 36.8996 29.6202 37.1078 29.5484 37.3303C29.4981 37.4883 29.4264 37.6318 29.3402 37.7754H38.9528C39.1179 37.4811 39.2615 37.1796 39.3692 36.878C39.5343 36.4186 39.6132 35.9807 39.6132 35.5643C39.6132 33.6691 38.0267 32.2764 34.8464 31.3718H34.8536Z" fill="white"/>
</svg>
