<svg width="250" height="63" viewBox="0 0 250 63" fill="none" xmlns="http://www.w3.org/2000/svg">
<path d="M196.748 8.45087C194.273 8.26387 190.575 7.74301 189.526 10.6711C189.47 10.8293 189.249 11.5547 189.249 11.6463V14.9673H200.124V6.44525H210.749V14.966H227.437L232.937 34.1374L238.625 14.966H250C249.877 15.6739 249.604 16.3567 249.378 17.0357C245.316 29.2087 241.009 41.875 236.503 53.8737C234.649 58.8099 232.224 62.525 226.437 62.9542C224.561 63.0935 222.366 62.9291 220.626 62.2664V54.6857H223.314C224.313 54.6857 225.895 53.9364 226.502 53.1194C226.885 52.6023 228.04 49.816 227.979 49.2687L216.377 15.8433V22.484H210.751V38.8352C210.751 39.1214 211.058 40.0815 211.225 40.3652C212.156 41.9416 215.336 41.3429 216.877 41.2789V48.9223C211.558 50.431 203.482 50.7096 200.979 44.6224C200.682 43.8982 200.126 42.0721 200.126 41.3416V22.484H189.251V49.1721H178.501V22.484H173.626V14.966H178.501C178.117 9.15498 179.504 3.43179 185.343 1.08729C188.183 -0.0523267 193.406 -0.408771 196.304 0.565175C196.433 0.607848 196.751 0.752183 196.751 0.870161V8.45087H196.748Z" fill="white"/>
<path d="M110.124 16.8449H98.9987C99.0425 12.6479 95.8159 10.7302 91.9378 10.9573C86.7453 11.2611 83.7426 16.127 88.8838 19.2785C91.9253 21.1423 95.8159 21.9054 99.12 23.3023C104.839 25.7184 109.808 29.4196 110.13 36.1983C110.854 51.4188 89.0026 52.6977 79.6381 45.9642C75.7212 43.1478 73.8516 39.0901 73.749 34.263H84.9995C84.9094 38.1713 86.5477 40.6075 90.4734 41.2425C93.9838 41.8111 99.2751 41.3655 98.9825 36.5962C98.7911 33.4723 96.0385 32.231 93.4973 31.1943C89.0302 29.3707 84.4942 28.3917 80.5098 25.4184C72.4259 19.384 73.6765 8.73081 82.8297 4.58527C93.271 -0.14515 109.885 3.01766 110.124 16.8462V16.8449Z" fill="white"/>
<path d="M121.811 14.9658L125.311 35.3911L130.743 15.0236L138.106 14.9834L143.497 34.8878L146.874 14.9658H157.123L149.047 49.1794L140.004 49.1669L134.436 29.1232L128.814 49.0502L119.742 49.1167L111.749 14.9658H121.811Z" fill="white"/>
<path d="M11.375 62.9542L17.3704 60.6335L24.6239 57.3151C24.6577 57.1067 24.3188 57.1783 24.1837 57.1858C23.4346 57.2335 22.5604 57.4167 21.8175 57.4468C19.569 57.5372 17.3029 57.4104 15.0605 57.3163L14.8754 57.0666C17.4517 56.4528 19.9066 55.4349 22.3716 54.4924L28.2494 51.6785C25.3105 52.3223 22.324 52.7403 19.3176 52.9348C19.1513 52.9461 18.5372 53.0277 18.5009 52.8055C25.772 50.397 33.078 46.9091 39.236 42.3281C42.989 39.5368 51.1242 32.6075 47.8526 27.3286C44.8337 22.4588 33.8396 26.3345 29.5938 27.9021C28.1031 28.4531 26.6174 29.0581 25.1854 29.7484C24.8027 29.7659 25.1004 29.6153 25.2092 29.5212C29.1236 26.1551 34.9689 22.7161 39.9038 21.1962C51.3818 17.6606 66.2078 21.5389 60.47 36.5497C56.273 47.5292 41.4395 55.4124 30.9395 59.0722C24.7152 61.241 17.997 62.8525 11.375 62.9529V62.9542Z" fill="#5075FF"/>
<path d="M50.2484 0.0567149L41.9144 3.41658L37.1246 5.69581C37.0958 5.91922 37.406 5.81756 37.5448 5.805C40.1611 5.55524 42.6798 5.51382 45.3161 5.56403L46.9969 5.81881C43.0312 6.96345 39.1969 8.50093 35.4525 10.2242L33.3728 11.3324C36.2317 10.6948 39.1343 10.3133 42.0545 10.0761L43.2463 10.2053C36.5206 12.349 29.8311 15.542 24.032 19.5758C20.0463 22.3495 10.2591 30.062 13.8921 35.6836C16.9023 40.3412 27.1298 36.8947 31.3118 35.3924C32.8638 34.8351 34.7184 33.8373 36.2104 33.4119C36.3017 33.3855 36.4818 33.3215 36.4955 33.447C28.6017 39.8755 18.0279 45.2862 7.62159 42.092C0.318056 39.8492 -1.39152 34.0005 1.0309 27.0887C5.90576 13.1811 26.996 4.02404 40.3499 1.22143C43.5827 0.543688 46.9356 0.0178073 50.2484 0.0567149Z" fill="#E83399"/>
<path d="M170.998 49.1719H160.249V14.9658H170.81L170.998 15.1541V49.1719Z" fill="white"/>
<path d="M164.346 1.09227C167.308 0.754657 170.635 1.81018 171.342 5.03575C172.475 10.2092 166.531 12.8236 162.39 10.7514C157.699 8.40566 159.179 1.68091 164.346 1.09102V1.09227Z" fill="white"/>
</svg>
