<svg width="250" height="139" viewBox="0 0 250 139" fill="none" xmlns="http://www.w3.org/2000/svg">
<path d="M192.642 109.295C195.634 108.852 199.415 109.909 202.033 111.253C202.642 111.566 203.192 111.974 203.803 112.274L207.5 103C206.873 102.828 203.765 101.413 203.156 101.196C194.954 98.2665 181.014 99.0744 178.821 109.45C178.764 109.723 178.85 110.019 178.798 110.249C178.781 110.324 178.629 110.273 178.606 110.447C177.832 116.37 181.309 120.197 186.491 121.943C189.196 122.854 192.876 123.263 195.305 124.566C196.695 125.312 196.581 126.98 195.084 127.562C191.194 129.071 184.448 126.614 181.198 124.371C181.099 124.302 181.086 124.164 180.99 124.093L177.401 133.63L179.529 134.971C180.117 135.158 180.68 135.574 181.207 135.807C187.113 138.426 196.098 139.122 201.966 135.834C203.082 135.209 206 133.5 207.5 130C207.5 130 208.417 126.004 208 123.5C207.5 120.5 204.977 117.852 204.977 117.852L202.996 116.43C201.411 115.604 199.636 114.934 197.824 114.435C195.923 113.911 192.516 113.47 190.947 112.508C190.771 112.4 190.175 111.698 190.158 111.488C190.038 110.005 191.409 109.479 192.642 109.297L192.642 109.295Z" fill="#A4A7A8"/>
<path d="M101.651 103.785C101.533 103.751 101.482 103.475 101.11 103.609L101.737 103.053C110.505 98.0093 109.269 84.1957 102.102 78.606C100.838 77.6211 99.3733 76.7955 97.9225 76.2346C97.8322 76.1992 97.7735 75.9234 97.4306 76.0576L97.4771 75.8712C97.1296 76.0445 97.2228 75.8312 97.1706 75.8107C96.1727 75.4305 95.0732 75.1677 93.8982 74.932C93.573 74.8668 93.2599 74.6254 92.8192 74.7522L92.9133 74.5677C91.305 74.4736 89.7425 73.9965 88.1202 74.0962C79.6345 73.7458 70.9858 73.9173 62.501 73.9191C58.1561 73.9201 53.8038 73.9769 49.4654 73.8167C49.3695 74.276 49.075 74.6077 49.1281 75.1258L48.9436 75.0317C48.9707 75.3056 48.9129 75.5563 48.8439 75.8181C48.0519 78.8492 46.7204 81.9557 46.1455 84.93C46.1297 85.0092 45.6992 85.9279 45.6852 85.9885C45.6442 86.1664 45.7029 86.3882 45.6815 86.5755L45.497 86.4814C45.6647 86.7898 44.9538 88.3701 45.0302 88.4362H84.8544C85.0044 88.4362 86.4235 88.9189 86.6005 88.999C88.8731 90.0286 89.8002 92.8613 88.8051 95.1562C88.0848 96.8185 85.8364 97.5173 84.203 97.7447L66.2728 97.7466L61.8954 112.395L62.214 112.548C70.0251 112.823 78.1036 112.167 85.884 112.539C86.3666 112.563 87.3832 112.629 87.8183 112.732C87.8966 112.751 87.8444 112.901 88.0159 112.923C88.2311 112.951 88.4957 112.889 88.7203 112.917L88.5349 113.101C88.9318 112.949 89.0651 113.242 89.1666 113.279C91.3544 114.079 92.1874 115.86 91.9806 118.174C91.9359 118.675 91.7448 118.891 91.6125 119.221C91.5781 119.307 91.6405 119.469 91.6032 119.545C91.224 120.322 90.1608 121.016 89.3651 121.333C89.134 121.425 88.383 121.733 88.2842 121.757C87.8174 121.867 86.9732 121.74 86.4421 121.949L73.0711 121.945V119.245H59.8426L54.5334 137.489L87.6543 137.493C94.871 137.037 102.665 134.979 106.83 128.589C108.57 125.921 109.556 122.948 109.774 119.663C109.825 118.884 109.738 118.071 109.774 117.29C109.774 117.29 109.264 106.024 101.652 103.784L101.651 103.785Z" fill="#A4A7A8"/>
<path d="M127.03 127.489C127.241 126.333 126.867 125.087 127.002 123.943C127.017 123.808 127.013 123.704 127.146 123.622H140.887V114.035H126.82V111.056H125.702L125.706 110.222C125.844 110.222 125.984 110.178 126.121 110.177C130.398 110.148 134.636 110.177 138.881 110.121C139.747 110.108 140.704 110.062 141.539 110.217V100.584C141.539 100.548 141.703 100.478 141.491 100.351H114.151V109.752H115.455L115.549 137.491H143.263L143.356 127.624H127.147L127.031 127.488L127.03 127.489Z" fill="#A4A7A8"/>
<path d="M144.893 110.777H155.14L155.233 137.491H166.785V110.916L166.924 110.777H175.635V100.492L144.893 100.352V110.777Z" fill="#A4A7A8"/>
<path d="M60.9292 23.9357C60.6478 24.6979 60.4838 25.5039 60.248 26.281C59.6144 28.3691 58.8727 30.4535 58.3174 32.6199C58.3081 32.6572 57.9596 33.1771 57.9503 33.2153C57.8971 33.4343 57.9819 33.752 57.9475 33.9896L57.763 33.8955C57.4285 35.5708 56.7977 37.18 56.3038 38.8143C55.9162 40.0983 55.3487 41.5677 55.0636 42.8033C55.0208 42.9906 55.086 43.2254 55.0655 43.422L54.8279 43.5748L53.6631 38.9224L53.4787 39.0165L46.673 14.3542H32.9879L28.6049 29.6149L28.4204 29.5208C28.4278 30.0901 28.234 30.7153 28.0765 31.2735C27.7644 32.3813 27.3153 33.4715 27.0274 34.5235C26.7991 35.3584 27.0674 35.528 27.1979 36.1877C27.5631 38.0372 27.8585 39.8784 28.2564 41.8314C29.3894 47.3997 30.4768 52.7276 31.689 58.2279C31.8568 58.9901 32.14 59.7374 32.2397 60.5173C32.4223 60.5415 32.2835 60.316 32.3348 60.2135C32.3748 60.1334 32.4848 60.1446 32.5099 60.0728C32.6124 59.7803 32.6301 59.3768 32.7103 59.0973C32.727 59.0376 33.056 58.8485 32.891 58.4693L33.0755 58.5634C32.9507 57.995 33.3886 57.8273 33.2637 57.2589L33.4482 57.353L39.2234 38.8292L46.9199 68.0619L62.4712 67.9678L77.1393 23.9357H60.9301H60.9292Z" fill="#D8B55D"/>
<path d="M21.618 28.2183L21.6161 27.0079L21.4316 27.1933C21.3692 26.843 21.4074 26.269 21.3356 25.954C20.4476 22.0546 19.5131 17.842 18.6586 13.8139C18.1406 11.3727 17.7064 8.70219 17.0569 6.36995C16.5696 4.62194 16.5034 2.64098 16.0236 0.919054C16.0021 0.841717 15.8605 0.855694 15.8437 0.787674C15.7906 0.567774 15.8745 0.251902 15.8409 0.0142984C15.4151 0.215562 15.0787 0.0226844 14.6809 0.0105713C12.6897 -0.0518578 10.7031 0.185745 8.71097 0.112135L0.005373 0.0133666C0.00630477 0.180155 -0.011399 0.351602 0.0128272 0.517458C0.11905 1.27033 0.373425 2.1518 0.505738 2.8059C1.85868 9.48768 3.49208 16.3036 4.79657 22.8233C4.88416 23.2594 5.16928 23.5957 5.03604 24.1212L5.22053 24.0271C5.25501 24.2647 5.17022 24.5815 5.22333 24.8014C5.2373 24.8583 5.34539 25.054 5.41434 25.3689C5.59604 26.201 5.94545 26.9893 5.87371 27.8446L6.0582 27.7505L6.99091 32.8716L7.1754 32.7775L7.17726 33.7092L7.36176 33.6151C7.28162 34.2879 7.5947 34.8935 7.73074 35.5281C9.38371 43.259 11.1718 51.1838 12.8676 58.8784C13.491 61.7064 14.2122 64.5185 14.7908 67.4741C14.8281 67.6669 14.8178 67.8617 14.815 68.0555H30.0925L21.8006 28.1232L21.6161 28.2173L21.618 28.2183Z" fill="#D8B55D"/>
<path d="M240.221 32.4411C236.281 30.4238 231.89 29.8489 227.549 30.5561C226.847 30.6708 226.156 30.9894 225.441 31.0109L225.535 31.1953C225.221 31.1823 224.918 31.2634 224.622 31.3547C220.919 32.5054 217.016 35.8048 215.075 39.1332C211.5 45.2633 211.402 52.9775 214.833 59.1347C220.81 69.8632 235.603 71.8954 244.5 63.2681C245.679 62.1248 247.427 59.6649 247.991 58.1666C248.019 58.0939 248.318 57.9942 248.172 57.6299L248.356 57.724C248.287 57.2218 248.625 56.8593 248.778 56.4195C249.139 55.3778 249.572 54.0677 249.748 52.9225C250.988 44.79 247.628 36.2335 240.22 32.4402L240.221 32.4411ZM233.618 56.5201C233.136 56.7475 232.638 56.9907 232.015 57.0773C231.415 57.1612 230.631 57.0065 230.008 57.0717L230.193 56.8872C228.774 56.8248 227.458 55.9583 226.577 54.8737C226.338 54.5783 225.909 53.9717 225.733 53.6456C223.904 50.2679 224.599 43.957 228.586 42.2015C228.773 42.1186 228.965 42.0794 229.17 42.086L229.076 41.9015H229.822L229.727 41.7151C230.784 41.6657 231.817 41.5735 232.87 41.744C238.915 43.9197 239.35 53.8142 233.618 56.5211L233.618 56.5201Z" fill="#D8B55D"/>
<path d="M96.4642 30.913C93.298 30.9614 90.1374 31.0257 86.9619 31.0136C86.3022 31.0108 85.8018 30.9652 85.1012 31.0183C84.966 31.0285 84.803 30.9335 84.7219 30.9456C84.5784 30.967 84.2719 31.4832 84.4033 31.6621L84.2188 31.568C84.2216 31.7749 84.2094 31.9892 84.1405 32.1858C83.1034 35.1153 81.621 38.3411 80.5233 41.0927C77.5081 48.6568 74.1854 57.0969 71.2475 64.2874C70.8263 65.318 70.2794 66.5684 69.7715 67.7052C69.7352 67.7862 69.5889 67.7695 69.5898 67.8226L69.7315 68.0555H82.0747C82.2816 67.6316 82.3142 67.0343 82.4549 66.6373C82.5099 66.4817 82.849 65.9078 82.904 65.7475C82.972 65.55 82.9888 65.2872 83.0074 65.0766L83.1919 65.1707C83.0214 64.798 83.368 64.5818 83.3764 64.5464C83.4771 64.1281 83.5097 64.1243 83.6308 63.7917C83.7435 63.4805 84.1181 62.1043 84.3362 62.0344L88.4556 61.9039L96.8742 62.0195L99.2632 68.0546H111.606L96.6552 31.008L96.4651 30.9111L96.4642 30.913ZM88.4192 50.2586C89.0323 48.5674 89.8132 46.7514 90.4197 44.885C90.4682 44.735 90.4598 44.5682 90.4598 44.4126H90.7384C90.7729 44.4471 90.908 45.2307 90.9546 45.3611C91.2723 46.2556 91.687 47.1744 92.0187 48.1155C92.4911 49.4544 92.9104 50.73 93.4191 52.0233C93.4816 52.1808 93.3334 52.4594 93.6251 52.4203C93.6521 52.4566 93.503 52.6048 93.4862 52.6048H87.7101L87.6104 52.4147C88.0288 51.7587 88.1583 50.976 88.4183 50.2586H88.4192Z" fill="#D8B55D"/>
<path d="M166.149 58.1899L166.009 58.0502V54.3268L166.149 54.187H179.889V44.7397L179.75 44.6H166.009V40.6902H181.845V31.0566L154.591 31.0044L154.644 68.0556H182.404L182.265 58.1899H166.149Z" fill="#D8B55D"/>
<path d="M137.875 47.8574C137.772 47.9422 137.013 46.6508 136.908 46.5036C134.479 43.1091 131.964 39.7566 129.529 36.3677C129.292 36.0388 129.163 35.6111 128.812 35.3614L125.82 31.0976L114.588 30.9177V33.7103C114.588 33.7205 114.72 33.6842 114.775 33.7746C115.173 34.4343 115.535 34.8414 115.948 35.4275C121.011 42.5957 126.053 49.5617 131.186 56.6422L139.461 68.0565H149.336V31.0566L137.735 31.01L137.876 47.8574H137.875Z" fill="#D8B55D"/>
<path d="M208.111 34.0392C208.086 33.0002 208.138 31.9557 208.115 30.9177L196.665 30.9214L196.56 31.4255L196.568 53.9587C196.312 56.1689 195.897 58.0203 193.259 57.8163C191.452 57.6765 189.967 56.3646 188.929 54.9902L188.745 54.9389L183.886 63.6315C183.902 64.0163 184.174 64.0089 184.365 64.2167C187.542 67.6819 191.562 68.9054 196.336 68.6184C198.841 68.4674 200.616 67.9335 202.657 66.5983C203.52 66.0346 204.602 65.3301 205.045 64.4272L205.224 64.5158C205.212 64.3704 205.359 64.1272 205.451 64.0014C206.076 63.1405 206.675 62.2683 206.99 61.3747C209.094 55.4039 208.11 45.7908 208.11 39.3401C208.11 37.5706 208.156 35.8133 208.112 34.0382L208.111 34.0392Z" fill="#D8B55D"/>
<path d="M126.328 55.2612C126.321 54.5623 126.395 53.6315 126.187 52.9746C126.01 52.4183 124.894 51.1697 124.498 50.6125C121.566 46.4885 118.636 42.4632 115.669 38.4034C115.343 37.9571 114.927 37.5052 114.588 37.0598V68.0554H126.185L126.329 67.7339C126.282 63.581 126.374 59.3833 126.328 55.2602V55.2612Z" fill="#D8B55D"/>
</svg>
