<svg width="250" height="131" viewBox="0 0 250 131" fill="none" xmlns="http://www.w3.org/2000/svg">
<path d="M156.21 71.676L152.028 85.9161H114.388V94.2744H149.704V108.361H114.388V116.564H156.21L152.028 130.805H98.9766C98.9595 130.805 98.7441 130.589 98.7441 130.572V71.9055C98.7441 71.8884 98.9595 71.6729 98.9766 71.6729H156.21V71.676ZM153.423 73.8438H100.913V128.64H150.48L153.423 118.579H112.22V106.35H147.536V96.2888H112.22V83.9048H150.479L153.421 73.8438H153.423Z" fill="#060808"/>
<path d="M30.7451 85.9178L35.1813 71.6978L71.4116 71.6699C77.9427 71.8901 83.9315 73.7944 88.2918 78.7939C94.1086 85.465 93.636 95.3539 86.3487 100.695C85.8715 101.071 86.9483 101.439 87.3342 101.73C96.4917 108.656 95.751 121.023 86.186 127.154C82.3045 129.642 77.6901 130.609 73.116 130.811C59.4355 131.414 45.3166 130.339 31.5896 130.811C31.4315 130.845 31.055 130.699 31.055 130.571V92.4138L46.7003 88.2346V94.2715H71.097C71.5805 94.2715 72.7302 93.9614 73.2276 93.7706C76.4195 92.5394 76.8704 87.9694 73.6041 86.5025C73.2927 86.3629 71.8144 85.9132 71.5603 85.9132H30.7451V85.9178ZM33.2228 128.64L74.0442 128.646C82.8654 128.322 92.4429 122.733 91.6154 112.776C91.1459 107.128 86.8538 103.475 82.1728 101.009C87.2939 98.1126 90.912 93.6125 90.052 87.405C88.8868 79.011 80.4157 74.0937 72.4885 73.844L36.8625 73.8409L36.503 74.0999L33.5342 83.9035H72.3351C73.5282 83.9035 75.8927 85.2836 76.6737 86.2233C79.7478 89.9202 76.7821 96.2859 72.1801 96.2859H44.6859V91.0228L33.2243 94.1955V128.637L33.2228 128.64Z" fill="#060808"/>
<path d="M219.253 71.6763L214.994 85.9164H194.161V130.574C194.161 130.591 193.945 130.806 193.928 130.806H178.593C178.576 130.806 178.361 130.591 178.361 130.574V85.9164H157.45V71.6763H219.253ZM216.466 73.8442H159.465V83.6741C159.465 83.6912 159.68 83.9067 159.697 83.9067H180.53V128.642H191.992V83.9067H213.522L216.464 73.8457L216.466 73.8442Z" fill="#060808"/>
<path d="M153.423 73.8438L150.479 83.9048H112.22V96.2887H147.536V106.35H112.22V118.579H153.423L150.479 128.64H100.912V73.8438H153.423Z" fill="#F0D348"/>
<path d="M33.2232 128.64V94.1984L44.6848 91.0256V96.2887H72.179C76.781 96.2887 79.7468 89.9231 76.6726 86.2262C75.8916 85.2864 73.5271 83.9063 72.334 83.9063H33.5331L36.502 74.1027L36.8614 73.8438L72.4874 73.8468C80.4162 74.0965 88.8872 79.0138 90.0509 87.4078C90.9124 93.6137 87.2928 98.1155 82.1717 101.012C86.8527 103.478 91.1464 107.131 91.6143 112.779C92.4402 122.736 82.8628 128.325 74.0431 128.649L33.2217 128.643L33.2232 128.64ZM44.6864 118.579H74.0384C75.2455 118.579 77.4721 117.056 78.2066 116.088C81.3706 111.926 78.1926 106.195 73.1087 106.195H44.6848V118.579H44.6864Z" fill="#F0D348"/>
<path d="M216.465 73.8438L213.523 83.9048H191.993V128.64H180.531V83.9048H159.698C159.681 83.9048 159.466 83.6893 159.466 83.6722V73.8423H216.467L216.465 73.8438Z" fill="#F0D348"/>
<path d="M44.6855 118.579V106.195H73.1095C78.1933 106.195 81.3714 111.926 78.2073 116.088C77.4713 117.056 75.2462 118.579 74.0391 118.579H44.6871H44.6855ZM46.6983 116.566H73.1079C73.2691 116.566 74.4467 116.222 74.6853 116.13C77.7765 114.938 78.4397 110.557 75.2586 108.999C74.9348 108.84 73.5402 108.361 73.2629 108.361H46.6983V116.564V116.566Z" fill="#060808"/>
<path d="M249.999 5.88428L245.584 20.4346H224.751V65.3245H208.643V20.4346H187.732V5.88428H250H249.999ZM246.746 8.36076H190.055V18.1132H210.966V62.848H222.272V18.1132H243.725L246.745 8.36076H246.746Z" fill="#F0D348"/>
<path d="M160.158 5.88428V50.7742H200.586L196.249 65.3245H144.282C144.265 65.3245 144.05 65.109 144.05 65.0919V6.11688C144.05 6.09983 144.265 5.88428 144.282 5.88428H160.158ZM157.681 8.36076H146.527V62.848H194.39L197.332 53.0956H157.679V8.36076H157.681Z" fill="#F0D348"/>
<path d="M101.422 4.84683C118.325 4.05442 135.564 10.0805 139.203 28.4533C142.66 45.9081 134.395 60.4258 117.132 64.9725C96.6325 70.3721 71.9212 62.8558 69.8572 38.933C68.0924 18.4791 81.6644 5.77415 101.422 4.84838V4.84683ZM101.267 7.16824C86.3996 8.01338 73.9618 16.2011 72.3349 31.8137C70.5065 49.3584 80.9067 61.609 98.1463 63.7552C116.062 65.9851 136.162 59.0457 137.389 38.4678C138.742 15.7855 122.106 5.98505 101.267 7.16979V7.16824Z" fill="#F0D348"/>
<path d="M12.3882 5.88262L48.0978 5.87642C61.6141 6.00202 74.2254 21.796 62.8815 33.203C62.1022 33.9861 60.9307 34.6281 60.1947 35.3166C60.0801 35.4236 59.8848 35.4531 59.9391 35.6779C59.9685 35.7974 61.6915 36.7976 62.0014 37.024C76.9091 47.9611 65.1794 65.6237 49.6365 65.94L4.7399 65.9633L4.51213 66.2006L2.78444 71.6699L8.35797 37.6179L0 40.327L13.1645 0.00232983C13.4419 -0.0333365 13.3148 0.349689 13.2978 0.521817C13.1304 2.26792 12.571 4.11946 12.3882 5.88262ZM7.43137 63.7753H49.9479C62.9699 63.3054 73.7048 48.7148 61.095 39.0151C60.156 38.2924 58.106 37.4287 57.7651 36.4626C56.9733 34.2218 59.3952 33.4263 60.7169 32.2772C71.4642 22.9311 60.5558 8.5762 48.8462 8.07067L14.1004 8.05826L10.9952 27.7073C13.4558 27.2529 15.9722 26.0729 18.3894 25.5766C18.6203 25.5286 18.9751 25.4092 18.893 25.7674L7.43292 63.7737L7.43137 63.7753Z" fill="#F0D348"/>
<path d="M7.43164 63.7755L18.8917 25.7692C18.9738 25.4109 18.619 25.5303 18.3881 25.5784C15.9724 26.0746 13.4545 27.2547 10.9939 27.7091L14.0991 8.06006L48.845 8.07246C60.5545 8.578 71.4629 22.9329 60.7156 32.279C59.3939 33.4281 56.9721 34.2236 57.7638 36.4644C58.1047 37.4305 60.1563 38.2958 61.0937 39.0169C73.7019 48.7166 62.9686 63.3056 49.9466 63.7755H7.43164ZM22.1456 22.2925C21.4732 25.1225 20.4536 27.8549 19.5425 30.612C19.4867 31.2075 19.967 31.5719 20.5171 31.5828C28.8363 31.1672 37.6731 32.1255 45.9304 31.5874C56.1183 30.9237 56.329 17.6667 46.3859 16.7223L15.4425 16.7533L15.0164 17.1022C14.3827 19.5477 13.9566 22.0971 13.6281 24.6154L22.1456 22.294V22.2925ZM18.7027 40.2884C17.6691 40.473 16.8603 40.8824 16.7224 42.0252C16.2994 45.5314 17.0385 49.8765 16.7348 53.4741C16.8154 53.9828 17.5777 54.8077 18.0751 54.9209C27.2559 55.0171 36.4382 54.9085 45.6205 54.9473C46.812 54.952 47.4953 55.1644 48.8248 54.9116C57.7576 53.2136 57.5717 40.8886 47.6348 40.2419C38.2449 39.6309 28.1623 40.6808 18.7027 40.29V40.2884Z" fill="#060808"/>
<path d="M246.746 8.36084L243.724 18.1133H222.271V62.8481H210.965V18.1133H190.053V8.36084H246.746Z" fill="#060808"/>
<path d="M157.682 8.36084V53.0957H197.335L194.391 62.8481H146.528V8.36084H157.682Z" fill="#060808"/>
<path d="M101.267 7.16829C122.105 5.98355 138.74 15.784 137.389 38.4663C136.162 59.0457 116.062 65.9836 98.1467 63.7537C80.9071 61.6075 70.5069 49.3569 72.3353 31.8122C73.9622 16.1996 86.4 8.01187 101.267 7.16674V7.16829ZM103.745 17.0742C91.0919 17.4712 83.9906 22.7436 84.099 35.9991C84.2028 48.9134 91.8326 53.9346 104.004 54.1858C117.954 54.4727 126.318 48.5567 125.461 33.8265C124.707 20.8471 115.61 16.7036 103.745 17.0758V17.0742Z" fill="#060808"/>
<path d="M22.1455 22.2924L13.6279 24.6138C13.9549 22.097 14.3825 19.5461 15.0163 17.1006L15.4424 16.7517L46.3858 16.7207C56.3289 17.6651 56.1181 30.9221 45.9302 31.5858C37.673 32.1239 28.8362 31.1656 20.517 31.5811C19.9669 31.5703 19.4866 31.2059 19.5423 30.6104C20.4534 27.8532 21.473 25.1209 22.1455 22.2909V22.2924ZM21.8371 29.4133H46.8522C46.9637 29.4133 48.27 28.9636 48.4791 28.8721C52.263 27.1849 52.796 21.8179 49.102 19.7368C48.631 19.4717 47.3372 18.8886 46.8537 18.8886H16.4155L15.7957 22.1389L24.7781 19.6639L21.8356 29.4148L21.8371 29.4133Z" fill="#F0D348"/>
<path d="M18.7024 40.2881C28.1621 40.6805 38.2462 39.6291 47.6346 40.2401C57.5715 40.8867 57.7574 53.2133 48.8246 54.9098C47.4951 55.1626 46.8134 54.9501 45.6203 54.9455C36.4395 54.9067 27.2557 55.0152 18.0749 54.9191C17.576 54.8059 16.8152 53.9809 16.7346 53.4723C17.0383 49.8746 16.2992 45.5295 16.7222 42.0234C16.8601 40.8821 17.6674 40.4727 18.7024 40.2866V40.2881ZM18.7396 52.9404H48.2466C48.4512 52.9404 49.9061 52.3914 50.1882 52.2503C53.9271 50.3786 54.4229 45.0876 50.4981 43.1058C50.137 42.9228 48.7254 42.4157 48.4016 42.4157H18.7396V52.9419V52.9404Z" fill="#F0D348"/>
<path d="M103.745 17.074C115.609 16.7018 124.706 20.8453 125.461 33.8247C126.316 48.5549 117.954 54.4724 104.004 54.184C91.8324 53.9328 84.2042 48.9116 84.0988 35.9973C83.9919 22.7418 91.0917 17.4694 103.745 17.0724V17.074ZM102.195 19.552C90.7214 20.2839 85.9272 25.9254 86.5765 37.3914C87.1451 47.4369 93.1061 51.2315 102.608 51.7091C112.641 52.2131 122.198 49.8017 122.982 38.1574C123.977 23.3683 116.017 18.6712 102.195 19.552Z" fill="#F0D348"/>
</svg>
