<svg width="251" height="239" viewBox="0 0 251 239" fill="none" xmlns="http://www.w3.org/2000/svg">
<path d="M50.1386 111.726C59.9705 110.746 79.8429 109.336 87.4907 116.633C92.4638 121.38 93.1493 131.43 89.3657 137.096C88.1157 138.969 83.6601 141.332 83.6802 142.796L94.0969 159.841C94.9369 159.862 98.8415 152.034 99.5942 150.624C105.656 139.325 112.175 121.601 119.003 111.8C119.561 111.001 120.139 110.236 121.032 109.766C122.403 109.531 124.218 112.76 124.87 113.814C131.893 125.139 142.753 146.683 147.934 159.029C148.398 160.13 148.929 161.251 148.761 162.493C148.156 163.353 136.415 164.064 135.058 161.829C132.813 158.996 123.055 135.465 121.597 135.122C120.555 134.874 120.212 136.009 119.796 136.66C116.953 141.017 109.433 160.808 106.772 162.46C105.764 163.084 104.688 163.259 103.519 163.232L81.6843 162.856C80.2998 162.231 67.5646 140.849 67.5781 139.432L68.7071 137.915C74.9101 137.882 80.4813 133.202 77.8066 126.603C76.1668 122.548 66.3281 121.199 62.8805 123.421V161.527C62.8805 164.058 52.1681 163.386 50.1318 162.527V111.719L50.1386 111.726Z" fill="#FCB514"/>
<path d="M36.0457 135.142C35.3938 136.075 40.703 139.634 41.6841 141.211C46.6707 149.187 41.0054 158.841 32.6653 161.526C26.4288 163.534 10.0108 164.104 3.45834 163.245C1.45565 162.983 0.508067 162.372 0.440863 160.237C1.58334 145.635 -0.970427 129.053 0.434143 114.706C0.676078 112.216 0.736562 111.39 3.46506 111.034C9.84947 110.202 26.6573 110.739 32.6855 112.739C42.4906 116.002 45.3535 130.188 36.0524 135.142H36.0457ZM13.8952 131.114H25.6425C26.1129 131.114 28.418 128.167 28.5591 127.287C29.4328 121.668 18.082 122.138 14.5269 122.716L13.8952 131.114ZM13.8952 142.48L14.5269 151.55C15.9651 152.557 27.3091 151.577 28.7003 150.207C32.2957 146.669 28.5121 142.48 24.2984 142.48H13.8952Z" fill="#FCB514"/>
<path d="M219.789 110.591C258.828 107.61 259.856 162.439 224.278 163.862C186.563 165.373 185.057 113.243 219.789 110.591ZM221.771 121.917C199.876 123.226 206.549 160.412 228.592 150.771C242.47 144.702 237.887 120.95 221.771 121.917Z" fill="#FCB514"/>
<path d="M180.542 112.605C182.672 110.222 190.542 110.739 193.458 111.679L193.74 114.009L169.722 161.661L166.664 164.487L139.493 112.82C139.977 110.135 150.817 110.517 152.779 112.095C155.804 114.532 162.9 133.115 165.736 137.962C166.153 138.681 166.563 139.298 167.249 139.788L180.548 112.599L180.542 112.605Z" fill="#FCB514"/>
<path d="M95.4671 195.705C94.8287 196.611 99.4389 199.679 100.434 201.102C104.177 206.46 102.739 215.382 97.416 219.37C90.7158 224.385 71.1392 224.774 62.873 223.814C60.1042 223.492 60.0773 221.914 59.8623 219.464C58.8878 208.534 58.8811 186.87 59.8623 175.947C59.9698 174.739 60.084 172.631 61.2265 171.959C63.74 170.482 87.5639 171.959 91.5827 173.161C101.878 176.249 105.077 190.488 95.4671 195.718V195.705ZM87.2615 190.206C87.9402 189.011 87.658 184.769 86.0652 183.997C84.2709 183.124 75.6889 182.499 73.9819 183.325C72.033 184.272 71.9658 191.012 73.74 191.589C76.4483 191.522 85.9107 192.563 87.2547 190.206H87.2615ZM73.3166 203.049C72.6714 205.251 71.6432 210.944 73.9819 212.079C75.9577 213.032 86.6768 212.361 88.1217 210.783C90.9644 207.668 88.2763 203.049 84.3918 203.049H73.3166Z" fill="white"/>
<path d="M143.787 183.661H122.309V191.683H140.763C142.564 193.207 142.282 203.721 140.091 203.721H122.309V211.743H143.451C145.044 213.798 145.4 222.834 142.645 223.639C137.497 222.995 113.411 225.197 110.515 223.156C109.459 222.411 109.016 220.692 108.868 219.444C107.739 209.722 107.954 186.568 108.848 176.612C109.036 174.544 109.439 172.113 111.912 171.644L142.658 171.738C145.441 172.671 144.574 181.17 143.774 183.661H143.787Z" fill="white"/>
<path d="M190.091 183.661H175.999V222.102C175.999 224.418 162.578 224.989 162.578 221.431V183.654H149.493C147.961 183.654 144.816 172.282 152.134 171.577C163.687 170.469 177.195 172.376 188.949 171.751C192.061 172.664 190.73 181.09 190.091 183.647V183.661Z" fill="white"/>
<path d="M148.29 62.8381L142.927 62.1735C143.949 64.6776 148.33 64.9462 146.637 68.1955C145.232 70.8943 139.809 69.1891 137.195 69.5046C134.412 69.8403 133.492 71.4717 130.004 70.6795C126.516 69.8873 123.525 63.3349 128.149 61.8311L120.723 59.7298C118.801 57.0713 121.933 52.7276 121.442 52.1368C117.376 53.5265 117.41 57.5949 115.743 60.8174C112.84 57.6218 110.34 54.359 111.308 49.7871C111.644 48.196 112.591 47.565 112.719 46.1283C100.4 50.9754 110.656 63.3416 117.101 68.84C124.742 75.3588 144.856 84.4958 142.107 96.4593C141.079 100.924 129.641 103.226 125.804 103.005C121.966 102.783 124.318 99.6817 124.076 96.6875C123.189 85.8117 101.086 78.7021 97.9473 67.5174C96.7041 67.3832 97.2955 69.7127 97.4433 70.3639C99.614 80.0448 113.64 88.3494 113.418 95.902C113.384 97.0568 112.752 100.34 111.173 100.192C87.282 91.9277 73.3237 51.8415 103.324 41.7712C101.516 39.2671 93.6395 43.1341 93.2632 42.7715C97.4903 32.8624 110.105 28.2973 120.098 32.077C120.494 30.3583 119.621 30.9088 118.841 30.3516C117.188 29.17 115.938 28.9216 114.352 28.1294C113.633 27.7736 113.088 28.4718 113.398 26.733C115.817 27.1895 118.142 26.0818 120.414 26.0348C131.791 25.7797 145.226 32.52 135.031 44.4566C135.716 46.3767 139.99 48.2766 140.582 49.4515C141.852 51.9623 139.547 53.4325 139.856 54.1375C140.609 55.8561 149.997 60.5086 148.283 62.8314L148.29 62.8381ZM135.541 38.099C136.489 36.9174 132.141 29.7138 129.506 30.7544L133.875 36.7831C133.74 37.77 134.997 38.7703 135.541 38.099ZM136.113 52.9089L130.851 52.1436C130.783 56.561 134.486 53.5064 136.556 56.1515C137.41 55.8091 136.308 53.023 136.113 52.9089Z" fill="#FCB514"/>
<path d="M146.294 96.2714C146.227 93.9418 145.85 91.2698 145.145 89.0544C144.439 86.8389 141.939 83.8044 142.235 82.0119C142.275 81.7501 145.299 79.293 145.897 78.1651C147.739 74.6741 148.935 69.5316 151.361 66.2285C151.832 65.5908 152.987 65.3826 153.33 64.8456C156.092 60.5825 146.274 55.7286 145.266 53.4595C144.446 51.62 145.998 50.4048 145.313 48.8339C144.627 47.2629 141.173 45.7658 140.682 44.6111C139.647 42.6038 141.885 41.5565 142.235 39.7506C143.203 34.749 141.274 32.3254 139.587 28.0825C168.411 39.7304 172.604 79.4071 146.301 96.2781L146.294 96.2714Z" fill="#007C59"/>
<path d="M127.619 14.588C129.857 16.0314 132.639 17.1459 134.574 14.7022C135.011 13.7623 134.05 12.6478 134.279 11.8019C134.742 10.0363 144.084 7.08907 146.281 6.68626L138.889 17.0317L136.819 22.6509C128.613 21.2277 121.624 21.2612 113.486 22.6375C112.585 19.9185 111.463 16.9042 109.937 14.4806C109.312 13.4937 103.365 7.27705 104.01 6.68626C106.564 7.27705 114.863 9.55963 115.724 11.9966C116.396 13.8831 113.519 17.3674 120.28 15.8636C125.831 14.6216 120.67 11.1172 120.777 9.0964C120.885 7.07565 124.608 2.47691 125.146 0.00634766C125.885 2.5709 129.951 7.91483 129.245 10.043C128.795 11.3991 126.691 12.6411 127.625 14.588H127.619Z" fill="#E23D28"/>
<path d="M134.406 76.6815C133.835 76.2787 133.149 74.5936 132.84 73.8484C132.786 71.4852 142.457 69.1624 143.519 73.3381C143.882 74.7681 141.839 78.1047 140.454 78.8298C140.145 78.9036 134.715 76.903 134.406 76.6815Z" fill="#FCB514"/>
</svg>
