<svg width="250" height="58" viewBox="0 0 250 58" fill="none" xmlns="http://www.w3.org/2000/svg">
<path fill-rule="evenodd" clip-rule="evenodd" d="M88.6701 19.9871C86.7222 18.7827 84.476 18.1517 82.1877 18.1659C74.7408 18.1659 69.1152 23.6848 69.1152 30.9714C69.1152 38.9013 75.4909 44.2051 84.9743 44.2051C89.8498 44.2051 95.3144 42.8122 96.7077 41.1507C97.2967 40.4539 97.4577 39.5446 97.4577 37.4539V8.57368C97.4577 6.80603 97.1365 6.21622 96.2255 6.21622C94.9503 6.37598 93.7048 6.71886 92.527 7.23434C91.3184 7.61448 90.1517 8.11705 89.0447 8.7343C88.45 9.05588 88.0643 9.66394 88.0259 10.3404C88.0352 10.6854 88.0894 11.0277 88.187 11.3586C88.348 12.109 88.5082 12.5908 88.5082 12.805C88.6347 13.53 88.6887 14.266 88.6692 15.0018L88.6701 19.9871ZM88.6701 35.7389C87.5093 36.4507 86.1728 36.8217 84.8123 36.8097C81.33 36.8097 78.7623 34.4522 78.7623 31.3443C78.7623 28.3444 81.12 26.094 84.3879 26.094C85.8842 26.1303 87.3516 26.5155 88.6737 27.2192V35.738L88.6701 35.7389ZM117.497 41.9003L117.551 42.0609C117.608 42.6791 117.916 43.2467 118.402 43.6315C118.887 44.0162 119.509 44.1845 120.122 44.0971C122.193 43.9723 124.233 43.539 126.177 42.8113C126.666 42.7178 127.024 42.293 127.033 41.7932C126.989 41.2764 126.863 40.7699 126.659 40.2932C126.283 39.1681 126.23 38.7397 126.23 35.4748V26.2011C126.23 22.5578 125.48 20.8964 123.23 19.6106C120.608 18.348 117.726 17.7238 114.818 17.7885C111.087 17.7979 107.375 18.3206 103.785 19.342C103.227 19.4716 102.722 19.771 102.34 20.1995C102.132 20.6709 102.041 21.1853 102.073 21.6994C102.073 23.8963 103.091 25.7148 104.324 25.7148C104.597 25.703 104.867 25.6489 105.124 25.5542C105.339 25.5007 105.767 25.34 106.518 25.0724C108.685 24.1998 110.987 23.7105 113.321 23.6259C115.84 23.6259 117.447 24.8582 117.447 26.8382V28.5523L117.232 28.4453C115.324 27.244 113.107 26.63 110.855 26.6794C104.319 26.6794 100.14 30.1085 100.14 35.4659C100.14 40.7162 104.211 44.1989 110.266 44.1989C112.862 44.2429 115.401 43.4355 117.497 41.8994L117.497 41.9003ZM117.443 37.1854C116.053 37.87 114.541 38.2707 112.995 38.3641C110.905 38.3641 109.347 37.0256 109.347 35.2027C109.347 33.2735 110.794 32.0948 112.995 32.0948C114.595 32.1324 116.146 32.6554 117.443 33.5947V37.1854ZM130.626 24.9162V49.9364C130.626 51.6505 130.787 52.0779 131.59 52.0779C132.124 52.0779 132.769 51.8637 135.127 51.0071C136.305 50.5788 137.269 50.204 138.074 49.8284C138.711 49.5406 139.17 48.962 139.306 48.2749C139.365 47.8313 139.382 47.3833 139.359 46.9364V24.9153H143.109C144.342 24.9153 144.985 23.683 144.985 21.4862C145.006 20.5937 144.804 19.7101 144.397 18.9164C144.057 18.5504 143.551 18.3881 143.062 18.4881H139.366V16.6642C139.366 13.8784 140.7 12.6997 143.973 12.5926C146.491 12.5391 147.027 12.2714 147.027 11.1462C147.017 10.5102 146.811 9.89289 146.438 9.37854L145.42 7.61C144.777 6.43127 144.241 6.16357 142.419 6.16357C138.776 6.16357 135.561 7.18169 133.522 8.94934C131.54 10.7179 130.629 13.2324 130.629 16.9863V18.4863L127.682 22.2902C127.299 22.6776 127.071 23.192 127.04 23.7366C127.062 24.0908 127.231 24.4196 127.506 24.6434C127.78 24.8672 128.136 24.9658 128.486 24.9153H130.629L130.626 24.9162ZM162.935 41.9003L162.988 42.0609C163.046 42.6791 163.353 43.2467 163.839 43.6315C164.325 44.0162 164.947 44.1845 165.559 44.0971C167.63 43.9723 169.671 43.539 171.614 42.8113C172.104 42.7178 172.461 42.2932 172.472 41.7932C172.427 41.2763 172.3 40.7699 172.096 40.2932C171.722 39.1681 171.667 38.7397 171.667 35.4748V26.2011C171.667 22.5578 170.917 20.8964 168.667 19.6106C166.045 18.3481 163.164 17.7238 160.256 17.7885C156.525 17.7978 152.813 18.3205 149.224 19.342C148.665 19.4716 148.16 19.7711 147.777 20.1995C147.57 20.6709 147.478 21.1853 147.51 21.6994C147.51 23.8963 148.528 25.7148 149.76 25.7148C150.034 25.7031 150.304 25.6489 150.561 25.5542C150.775 25.5007 151.204 25.34 151.954 25.0724C154.122 24.1999 156.424 23.7105 158.758 23.6259C161.276 23.6259 162.883 24.8582 162.883 26.8382V28.5523L162.67 28.4453C160.762 27.2441 158.544 26.6301 156.292 26.6794C149.756 26.6794 145.577 30.1085 145.577 35.4659C145.577 40.7162 149.648 44.1989 155.702 44.1989C158.299 44.2429 160.839 43.4355 162.936 41.8994L162.935 41.9003ZM162.881 37.1854C161.49 37.8701 159.978 38.2708 158.432 38.3641C156.343 38.3641 154.789 37.0256 154.789 35.2027C154.789 33.2735 156.235 32.0948 158.432 32.0948C160.032 32.1324 161.583 32.6554 162.881 33.5947V37.1854ZM184.422 19.8256V8.57368C184.422 6.80603 184.1 6.21622 183.19 6.21622C181.915 6.37603 180.67 6.71892 179.493 7.23434C178.284 7.61449 177.117 8.11707 176.01 8.7343C175.416 9.05624 175.03 9.66418 174.992 10.3404C175.001 10.6854 175.055 11.0278 175.153 11.3586C175.314 12.109 175.474 12.5908 175.474 12.805C175.601 13.53 175.655 14.266 175.635 15.0018V37.3986C175.635 40.3432 176.01 41.1463 177.724 42.0065C180.85 43.5042 184.279 44.2561 187.743 44.2033C197.066 44.2033 203.281 38.8995 203.281 30.8625C203.275 27.4586 202.016 24.1769 199.745 21.6468C197.602 19.2376 194.978 18.1668 191.281 18.1668C188.893 18.1426 186.537 18.7122 184.423 19.8247L184.422 19.8256ZM184.422 35.5239V27.2148C185.813 26.4902 187.355 26.1047 188.922 26.0896C190.343 25.9986 191.737 26.5089 192.765 27.4965C193.794 28.4841 194.362 29.8587 194.333 31.2863C194.333 34.4478 192.03 36.5911 188.708 36.5911C187.21 36.6224 185.731 36.2541 184.422 35.5239ZM214.803 32.9523H229.376C231.841 32.9523 232.483 32.4704 232.483 30.5948C232.483 23.576 226.804 18.165 219.411 18.165C212.017 18.165 205.798 24.1658 205.798 31.2917C205.798 38.6853 211.906 44.2042 220.104 44.2042C224.175 44.2042 228.944 42.4901 230.068 40.668C230.561 39.4433 230.798 38.1306 230.765 36.8106C230.765 35.6319 230.336 34.9368 229.641 34.9368C229.328 34.9628 229.021 35.0349 228.729 35.1509L226.479 36.2217C224.723 37.0028 222.828 37.4219 220.907 37.4539C217.697 37.4522 215.129 35.5774 214.804 32.9514L214.803 32.9523ZM215.337 28.1338C215.877 26.1747 217.706 24.8585 219.73 24.9724C221.693 24.8312 223.447 26.1931 223.802 28.1338H215.337ZM244.964 18.4898V13.4037C244.964 11.6361 244.643 10.9945 243.732 10.9945C242.414 11.1729 241.121 11.4964 239.874 11.9591C238.774 12.1885 237.711 12.5671 236.713 13.0843C236.307 13.4685 236.125 14.0344 236.231 14.5842V18.4952L233.337 22.2991C232.944 22.6847 232.698 23.1966 232.642 23.7455C232.672 24.0963 232.844 24.4196 233.116 24.6416C233.389 24.8637 233.739 24.9656 234.088 24.9242H236.231V37.2915C236.231 40.1844 236.553 41.4702 237.516 42.4348C238.956 43.675 240.819 44.3084 242.714 44.2024C244.66 44.2001 246.594 43.8927 248.446 43.2914C249.678 42.8095 250 42.0056 250 39.6481C250 37.2389 249.733 36.2725 248.932 36.2725C248.504 36.327 248.097 36.4931 247.753 36.7544C247.351 37.0512 246.86 37.2022 246.361 37.1827C245.396 37.1827 245.021 36.7544 245.021 35.4686L244.967 34.1301V24.9153H248.021C249.253 24.9153 249.95 23.683 249.95 21.4862C249.971 20.5931 249.768 19.709 249.361 18.9146C249.013 18.557 248.511 18.3964 248.021 18.4863H244.967L244.964 18.4898Z" fill="white"/>
<path fill-rule="evenodd" clip-rule="evenodd" d="M59.519 19.9559C59.5635 19.8087 49.7438 -4.12105 21.2545 2.0287C15.8282 3.18156 -1.49972 11.0882 0.104416 32.2831C0.450512 45.9603 17.7455 63.2139 40.764 56.5047C65.2016 48.1304 60.1338 26.957 60.1338 26.957C60.1338 26.957 62.3945 44.3765 45.7045 52.2287C59.0243 44.0793 60.5964 33.3405 58.4389 23.8C59.2094 31.7656 55.7867 34.9779 55.7867 34.9779C55.7867 34.9779 55.0883 45.1501 39.5896 51.2633C32.8082 53.453 24.8053 52.7347 19.6602 50.0578C0.57596 40.8046 6.20869 22.7292 6.20869 22.7292C6.20869 22.7292 9.33957 7.9411 27.1435 3.9641C41.6875 1.18101 54.7146 11.2899 59.519 19.9559ZM11.111 6.36618C21.1397 -0.301611 33.8633 -1.38947 44.8727 3.47958C46.846 4.70382 57.672 9.25813 62.9889 26.7508C63.0663 26.8195 60.5244 10.3789 45.0293 2.79697C39.8156 0.216435 23.5517 -3.27068 11.111 6.36618Z" fill="#F9E530"/>
<path fill-rule="evenodd" clip-rule="evenodd" d="M8.58887 30.4728C23.6142 9.05757 47.3107 5.88811 52.5341 18.5436C58.1073 33.0882 39.4688 49.1933 18.9281 46.2942C18.7555 46.2184 13.2251 45.948 14.0107 42.5466C15.493 28.5678 25.2557 19.5055 25.2557 19.5055L33.0727 16.8367C33.0727 16.8367 24.2477 25.3787 20.4051 41.0645C37.7223 44.1955 51.011 28.8399 48.2386 20.6468C47.5865 17.2489 33.4802 5.73107 8.58887 30.4728Z" fill="#F9E530"/>
</svg>
