<?xml version="1.0" encoding="utf-8"?>
<!-- Generator: Adobe Illustrator 16.0.0, SVG Export Plug-In . SVG Version: 6.00 Build 0)  -->
<!DOCTYPE svg PUBLIC "-//W3C//DTD SVG 1.1//EN" "http://www.w3.org/Graphics/SVG/1.1/DTD/svg11.dtd">
<svg version="1.1" id="Layer_1" xmlns="http://www.w3.org/2000/svg" xmlns:xlink="http://www.w3.org/1999/xlink" x="0px" y="0px"
	 width="200px" height="200px" viewBox="0 0 200 200" enable-background="new 0 0 200 200" xml:space="preserve">
<g>
	<path fill-rule="evenodd" clip-rule="evenodd" fill="#FCDF01" d="M48.903,105.902c-1.771,9.173-8.133,13.726-16.426,16.356
		c-1.047,0.333-2.272,0.092-3.15,0.969c-0.329,0-0.659,0-0.988,0c-1.977-0.42-3.954-0.42-5.931,0c-0.494,0-0.988,0-1.482,0
		c-4.859-0.869-9.117-2.944-12.806-6.242c-3.65-3.262-6.127-7.17-6.962-12.044c0-0.329,0-0.658,0-0.988
		c0.411-2.142,0.411-4.283,0-6.425c0-0.494,0-0.988,0-1.482C1.815,92.359,3.162,89,5.519,86.023c1.713-2.163,3.77-3.871,6.032-5.388
		c3.614-1.952,7.459-3.098,11.568-3.325c2.987-0.177,5.944-0.034,8.834,0.81c5.989,1.486,10.737,4.705,13.972,10.033
		c-0.022,0.265-0.135,0.482-0.338,0.654c-5.476-5.68-11.873-9.335-20.037-9.014c-11.893,0.469-21.609,11.745-19.684,22.81
		c2.11,12.128,16.079,19.582,27.637,14.663c5.638-2.399,10.069-5.938,12.061-12.189c0.691-2.17,1.532-4.396,2.456-6.537
		c1.334,1.606,0.621,3.472,0.667,5.237c-1.166,3.372-2.092,6.87-4.726,9.517c1.537-1.559,2.446-3.139,3.554-5.939
		C47.759,106.739,47.523,105.494,48.903,105.902z"/>
	<path fill-rule="evenodd" clip-rule="evenodd" fill="#FDFDFD" d="M198.842,109.884c-2.146,1.895-6.463,2.483-8.983,1.269
		c-1.427-0.688-2.051-1.845-2.078-3.354c-0.058-3.121-0.11-6.242-0.098-9.363c0.005-1.236,0.073-2.268-1.699-2.19
		c-1.153,0.049-1.444-0.905-0.821-1.69c1.61-2.034,3.002-4.066,2.578-6.868c-0.115-0.758,0.607-1.09,1.258-1.301
		c0.779-0.252,1.561-0.5,2.348-0.726c3.193-0.914,3.412-0.81,3.322,2.503c-0.053,1.92-0.06,3.49,2.578,2.959
		c0.777-0.156,0.94,0.845,1.596,0.971c0,1.153,0,2.307,0,3.46c-0.236,0.223-0.396,0.61-0.662,0.696
		c-2.793,0.908-2.813,3.091-2.639,5.448c0.121,1.641-0.422,3.59,2.338,3.463c0.699-0.032,0.612,0.856,0.963,1.265
		C198.842,107.577,198.842,108.73,198.842,109.884z"/>
	<path fill-rule="evenodd" clip-rule="evenodd" fill="#C0790E" d="M11.492,81.248c1.936-2.172,4.657-2.745,7.243-3.63
		c0.89-0.304,1.951-0.073,2.685-0.847c0.165,0,0.33,0,0.494,0c0.225,0.442,1.318,0.031,0.997,1.012
		C18.92,78.33,15.091,79.41,11.492,81.248z"/>
	<path fill-rule="evenodd" clip-rule="evenodd" fill="#964712" d="M22.91,77.783c-0.332-0.337-0.664-0.675-0.997-1.012
		c0.494,0,0.989,0,1.483,0c1.647,0.419,3.294,0.418,4.942,0c0.33,0,0.659,0,0.988,0c0.708,1.07,2.192,0.372,2.963,1.299
		c0.146,0.197,0.153,0.399,0.023,0.606C29.191,78.252,26.096,77.545,22.91,77.783z"/>
	<path fill-rule="evenodd" clip-rule="evenodd" fill="#CC910B" d="M32.331,78.341c-0.706-1.089-2.667,0.225-3.004-1.569
		c0.33,0,0.659,0,0.989,0c1.153,1.019,2.883,0.42,4.036,1.439C33.715,78.837,33.019,78.516,32.331,78.341z"/>
	<path fill-rule="evenodd" clip-rule="evenodd" fill="#B87B0C" d="M1.157,97.528c0.769,2.142,0.832,4.283,0,6.425
		C1.157,101.812,1.157,99.67,1.157,97.528z"/>
	<path fill-rule="evenodd" clip-rule="evenodd" fill="#BE820B" d="M22.408,123.228c1.977-0.803,3.954-0.761,5.931,0
		C26.362,123.228,24.385,123.228,22.408,123.228z"/>
	<path fill-rule="evenodd" clip-rule="evenodd" fill="#C0790E" d="M28.338,76.771c-1.647,0.76-3.294,0.772-4.942,0
		C25.044,76.771,26.691,76.771,28.338,76.771z"/>
	<path fill-rule="evenodd" clip-rule="evenodd" fill="#FCDF01" d="M9.519,98.492c5.231-6.207,11.069-11.125,18.952-13.04
		c2.167-0.526,4.357-0.762,6.602-0.451c6.784,0.939,10.491,6.304,8.886,12.984c-1.117,4.65-4.021,8.042-7.837,10.707
		c-6.028,4.21-12.773,5.482-19.969,4.561c-3.415-0.438-4.018-1.433-3.416-4.782c0.967-5.38,3.36-10.065,6.583-14.444
		c1.887-2.564,4.464-3.347,7.325-3.958c0.276,1.043-0.509,1.436-0.906,1.963c-3.458,4.587-5.857,9.679-7.553,15.151
		c-0.504,1.627,0.033,2.056,1.51,2.108c8.154,0.287,14.652-2.789,18.955-9.776c3.37-5.474,1.365-9.784-4.936-11.132
		c-3.229-0.69-6.386-0.146-9.448,0.985c-4.704,1.736-8.688,4.621-12.477,7.827C11.209,97.687,10.831,98.553,9.519,98.492z"/>
	<path fill-rule="evenodd" clip-rule="evenodd" fill="#FEFDFD" d="M104.329,107.166c-0.001-2.964-0.036-5.929,0.017-8.892
		c0.021-1.196-0.014-2.044-1.618-2.023c-1.442,0.019-1.735-0.952-0.829-1.949c1.799-1.977,2.4-4.223,2.662-6.876
		c0.414-4.169,6.4-7.556,10.283-6.037c1.652,0.646,2.395,2.333,2.422,3.973c0.023,1.396-1.48,0.968-2.356,1.075
		c-1.832,0.222-3.419,0.544-3.605,2.873c-0.11,1.369,0.239,2.024,1.704,1.795c1.857-0.291,2.784,0.475,2.782,2.403
		c-0.002,1.859-0.589,3.108-2.722,2.795c-1.728-0.255-1.791,0.697-1.776,2.022c0.056,5.104,0.036,10.209,0.017,15.313
		c-0.008,1.963-4.521,5.029-6.363,4.356c-0.866-0.316-0.596-1.087-0.602-1.69C104.314,113.259,104.33,110.212,104.329,107.166z"/>
	<path fill-rule="evenodd" clip-rule="evenodd" fill="#6E2C10" d="M32.331,78.341c0.673-0.043,1.347-0.086,2.02-0.13
		c0.342,0.051,0.685,0.102,1.027,0.151c1.143,1.217,2.674,1.702,4.188,2.222c0.338,0.348,0.678,0.695,1.017,1.043
		c2.089,1.354,3.374,3.601,5.478,4.937c0.187,0.536,0.373,1.072,0.559,1.607c-0.336,0.277-0.659,0.253-0.968-0.045
		c-3.421-4.596-7.86-7.755-13.337-9.449C32.303,78.563,32.309,78.452,32.331,78.341z"/>
	<path fill-rule="evenodd" clip-rule="evenodd" fill="#984B11" d="M48.903,105.902c-1.067,0.371-0.922,1.449-1.263,2.226
		c-1.158,2.637-2.593,5.048-5.143,6.673c2.925-2.93,4.437-6.573,5.532-10.433c0.478-0.047,0.779,0.279,1.116,0.528
		C49.064,105.232,48.984,105.567,48.903,105.902z"/>
	<path fill-rule="evenodd" clip-rule="evenodd" fill="#B3730D" d="M45.65,88.126c0.323,0.016,0.646,0.029,0.968,0.045
		c0.509,0.826,1.528,1.278,1.71,2.35c0.066,0.387,1.003,0.574,0.285,1.139c-0.643,0.505-1.035,0.062-1.379-0.437
		c-0.554-0.802-1.099-1.609-1.648-2.415C45.608,88.58,45.629,88.354,45.65,88.126z"/>
	<path fill-rule="evenodd" clip-rule="evenodd" fill="#501A0D" d="M49.145,104.896c-0.472,0.035-0.86-0.106-1.116-0.528
		c-0.003-1.942-0.006-3.885-0.009-5.828c1.026,0.008,1.603,0.449,1.496,1.55c-0.653,1.438-0.14,2.983-0.405,4.457
		C49.169,104.659,49.181,104.775,49.145,104.896z"/>
	<path fill-rule="evenodd" clip-rule="evenodd" fill="#D9AB08" d="M46.06,86.563c-2.376-1.035-3.723-3.212-5.478-4.936
		C43.137,82.464,44.449,84.681,46.06,86.563z"/>
	<path fill-rule="evenodd" clip-rule="evenodd" fill="#DCAE07" d="M39.566,80.584c-1.739-0.094-3.262-0.596-4.188-2.222
		C36.854,78.952,38.324,79.553,39.566,80.584z"/>
	<path fill-rule="evenodd" clip-rule="evenodd" fill="#88480E" d="M49.11,104.547c-0.522-1.546-0.753-3.065,0.405-4.458
		C49.487,101.585,49.996,103.13,49.11,104.547z"/>
	<path fill-rule="evenodd" clip-rule="evenodd" fill="#8E4610" d="M50.17,94.455c0.529,0.836,1.079,1.667,0.817,3.002
		C50.221,96.406,49.822,95.534,50.17,94.455z"/>
	<path fill-rule="evenodd" clip-rule="evenodd" fill="#FEFEFE" d="M77.394,86.414c-0.021-1.658,0.921-4.055-0.645-4.819
		c-1.68-0.821-3.709,0.677-5.492,1.463c-1.125,0.497-1.562,1.304-1.184,2.592c0.589,2.006,0.274,4.077,0.288,6.45
		c-0.535-0.202-0.832-0.317-1.131-0.427c-6.144-2.236-12.374,0.706-14.021,6.623c-1.68,6.029,1.973,11.689,8.399,13.069
		c3.468,0.745,6.864,0.382,10.255-0.48c2.471-0.629,3.685-1.936,3.615-4.709C77.312,99.593,77.477,93.001,77.394,86.414z
		 M67.423,105.832c-2.701,0.022-4.964-2.052-4.894-4.483c0.066-2.25,2-4.046,4.42-4.105c2.926-0.072,3.45,0.585,3.449,4.334
		C70.397,105.33,70.061,105.811,67.423,105.832z"/>
	<path fill-rule="evenodd" clip-rule="evenodd" fill="#FEFEFE" d="M160.891,98.001c-1.533-5.265-5.252-7.67-10.875-6.956
		c-1.127,0.144-2.224,0.521-3.664,0.87c0-2.676,0.01-5.221-0.002-7.767c-0.014-3.087-0.311-3.287-3.303-2.294
		c-0.39,0.129-0.771,0.285-1.166,0.396c-2.403,0.68-3.68,1.945-2.765,4.668c0.303,0.899,0.168,1.958,0.171,2.943
		c0.015,5.518,0.022,11.035,0.006,16.553c-0.005,1.663,0.277,3.09,2.055,3.809c4.697,1.899,9.432,2.297,14.132,0.168
		C160.271,108.222,162.399,103.187,160.891,98.001z M149.719,105.609c-2.975,0.045-3.37-0.437-3.37-4.105
		c0-3.644,0.575-4.335,3.554-4.268c2.445,0.055,4.312,1.85,4.324,4.16C154.239,103.821,152.37,105.568,149.719,105.609z"/>
	<path fill-rule="evenodd" clip-rule="evenodd" fill="#FEFEFD" d="M100.928,109.149c-0.909-2.402-0.273-4.896-0.5-7.052
		c0-1.93,0.047-3.576-0.01-5.22c-0.117-3.284-1.266-4.807-4.424-5.672c-4.508-1.234-8.977-0.604-13.386,0.571
		c-2.09,0.557-1.6,2.251-1.22,3.642c0.395,1.447,1.41,1.842,2.871,1.192c1.734-0.772,3.584-1.245,5.483-1.312
		c1.642-0.058,3.169,0.305,3.567,2.269c0.076,0.373,0.087,0.887-0.112,1.159c-0.336,0.46-0.717-0.049-1.052-0.193
		c-2.709-1.173-5.445-1.131-8.16-0.099c-3.132,1.189-4.546,3.507-4.351,6.929c0.165,2.891,2.055,5.167,5.009,6.002
		c2.554,0.722,5.038,0.518,7.449-0.597c0.528-0.244,0.879-0.772,1.652-0.042c1.271,1.201,5.613,0.859,6.859-0.254
		C101.059,110.066,101.098,109.6,100.928,109.149z M90.223,107.012c-1.791,0.007-3.119-0.54-3.208-2.391
		c-0.09-1.887,1.243-2.675,2.862-2.523c1.49,0.139,3.406,0.008,3.545,2.407C93.574,107.104,91.523,106.609,90.223,107.012z"/>
	<path fill-rule="evenodd" clip-rule="evenodd" fill="#FEFEFD" d="M136.68,109.343c-1.092-4.301-0.34-8.678-0.535-13.015
		c-0.105-2.322-1.121-3.922-3.285-4.715c-4.95-1.813-9.891-1.143-14.758,0.314c-1.916,0.573-1.334,2.176-0.903,3.511
		c0.417,1.296,1.198,1.842,2.634,1.232c1.82-0.771,3.735-1.304,5.722-1.386c2.521-0.105,3.501,0.947,3.407,3.768
		c-3.027-1.63-5.988-1.759-8.994-0.698c-3.144,1.108-4.8,3.579-4.643,6.779c0.149,3.021,2.055,5.351,5.094,6.227
		c2.557,0.736,5.04,0.514,7.449-0.592c0.549-0.252,0.91-0.744,1.664-0.051c1.25,1.151,5.225,0.932,6.627-0.113
		C136.611,110.267,136.813,109.868,136.68,109.343z M125.992,107.016c-1.77-0.025-3.133-0.527-3.223-2.39
		c-0.09-1.895,1.277-2.679,2.874-2.522c1.454,0.144,3.377-0.063,3.517,2.396C129.311,107.145,127.264,106.584,125.992,107.016z"/>
	<path fill-rule="evenodd" clip-rule="evenodd" fill="#FDFDFD" d="M172.257,102.773c1.646-0.036,3.292-0.014,4.938-0.013
		c1.316,0,2.634,0.007,3.951-0.001c3.453-0.021,4.047-0.787,3.24-4.176c-1.289-5.429-6.844-8.699-12.655-7.454
		c-5.536,1.187-9.376,6.88-8.241,12.215c1.505,7.072,9.681,10.478,17.007,7.209c2.201-0.98,2.771-2.578,2.702-4.722
		c-0.045-1.38-0.692-1.809-1.895-1.211c-1.482,0.737-3,1.359-4.633,1.623c-1.967,0.317-3.781-0.039-5.202-1.555
		c-0.376-0.4-0.899-0.865-0.693-1.485C171.02,102.474,171.74,102.784,172.257,102.773z M173.074,96.577
		c0.074-0.032,0.158-0.042,0.238-0.06c1.359-0.301,2.631-0.179,3.639,0.887c0.318,0.335,0.872,0.929,0.43,1.247
		c-0.896,0.644-2.044,0.118-2.894,0.273c-0.509,0-0.858,0.072-1.162-0.015c-0.701-0.202-1.9,0.62-2.041-0.536
		C171.175,97.469,172.22,96.938,173.074,96.577z"/>
</g>
</svg>
