<svg width="286" height="159" viewBox="0 0 286 159" fill="none" xmlns="http://www.w3.org/2000/svg">
<path d="M18 159H219.509L242.053 67.3042H40.5474L18 159Z" fill="#231F20"/>
<path d="M103.917 141.973H149.075L152.619 127.481H124.6L126.498 119.988H149.981L153.444 105.821H129.957L131.854 98.0803H160.036L163.413 84.3281H118.093L103.917 141.973Z" fill="white"/>
<path d="M217.353 98.328L220.815 84.3281H168.078L164.615 98.328H182.416L171.703 141.973H188.842L199.071 100.343L190.869 98.328H217.353Z" fill="white"/>
<path d="M96.0073 84.3279H62.7134L47.7755 91.0746L50.1246 100.631H58.6774L58.7144 100.594L51.7412 128.96H42.4374L39.2412 141.969H75.1061L77.1814 133.529V141.969H82.8266C94.2797 141.969 101.778 134.971 103.757 126.734L104.993 121.791C106.066 117.263 103.591 113.969 99.6363 111.829C104.087 110.265 107.464 107.629 108.618 103.263L109.525 99.5588C111.585 91.241 107.545 84.3242 96.011 84.3242L96.0073 84.3279ZM88.5088 122.457L88.0981 124.268C87.4397 126.985 85.627 128.963 82.083 128.963H68.9911L71.6029 118.339H84.4728C88.0981 118.339 89.1709 119.987 88.5125 122.457H88.5088ZM92.6261 101.788L92.2155 103.433C91.6384 105.903 89.9071 107.551 86.3632 107.551H74.2516L78.835 88.8972V97.3407H88.838C92.4633 97.3407 93.2883 99.0708 92.6298 101.788H92.6261Z" fill="white"/>
<path d="M177.833 16.0624C178.243 14.336 178.572 14.2509 180.304 14.2509H207.087L210.59 0.00341797H184.669C169.505 0.00341797 163.327 4.45068 160.69 14.6613L159.288 20.0956C156.487 31.1306 161.925 31.8737 173.131 33.9328C173.789 34.0141 185.657 36.2396 186.644 36.4836C187.961 36.7313 187.798 37.7183 187.632 38.4614L187.221 40.1102C186.644 42.5796 185.079 43.319 181.536 43.319H153.587L150.065 57.6478H180.056C195.219 57.6478 201.316 53.1155 203.872 42.8236L205.437 36.2359C207.416 27.8367 206.839 23.6372 196.536 21.6594C195.549 21.493 179.889 18.5318 179.889 18.5318C178.243 18.2028 177.337 17.9551 177.666 16.7204L177.829 16.0587L177.833 16.0624Z" fill="#231F20"/>
<path d="M85.883 0.00341797L71.7109 57.6478H88.7685L102.941 0.00341797H85.883Z" fill="#231F20"/>
<path d="M77.7328 14.0846L81.1954 0.00341797H35.8713L21.6992 57.6478H38.8382L43.8655 37.393H66.609L70.0715 23.2268H47.3244L49.0779 16.0993L40.8765 14.0846H77.7328Z" fill="#231F20"/>
<path d="M124.985 40.0254L128.447 57.6481H146.249L142.457 37.7186C148.309 35.1641 152.097 30.2252 153.499 24.5432L155.808 15.4009C157.868 7.16442 153.828 0 142.294 0H107.602L93.4297 57.6444H110.569L114.405 42.0365L106.203 40.0217H124.989L124.985 40.0254ZM138.088 18.3658L137.182 22.155C136.523 24.9535 134.629 26.9276 131.085 26.9276H118.063L121.36 13.6708H134.381C137.925 13.6708 138.831 15.5673 138.088 18.3658Z" fill="#231F20"/>
<path d="M264.541 14.0033L268 0.00341797H215.262L211.8 14.0033H229.601L218.888 57.6478H236.03L246.255 16.018L238.054 14.0033H264.541Z" fill="#231F20"/>
</svg>
