<?xml version="1.0" encoding="UTF-8"?>
<svg id="Layer_1" data-name="Layer 1" xmlns="http://www.w3.org/2000/svg" viewBox="0 0 1339.13 340.16">
  <defs>
    <style>
      .cls-1 {
        fill: #231f20;
      }

      .cls-1, .cls-2 {
        stroke-width: 0px;
      }

      .cls-2 {
        fill: #fff;
      }
    </style>
  </defs>
  <polygon class="cls-1" points="687.41 294.1 1232.13 294.1 1293.07 46.06 748.36 46.06 687.41 294.1"/>
  <g>
    <polygon class="cls-2" points="919.66 248.04 1041.73 248.04 1051.31 208.84 975.57 208.84 980.7 188.57 1044.18 188.57 1053.54 150.25 990.05 150.25 995.18 129.31 1071.36 129.31 1080.49 92.11 957.98 92.11 919.66 248.04"/>
    <polygon class="cls-2" points="1226.3 129.98 1235.66 92.11 1093.1 92.11 1083.74 129.98 1131.86 129.98 1102.9 248.04 1149.23 248.04 1176.88 135.43 1154.71 129.98 1226.3 129.98"/>
    <path class="cls-2" d="M898.28,92.11h-90l-40.38,18.25,6.35,25.85h23.12l.1-.1-18.85,76.73h-25.15l-8.64,35.19h96.95l5.61-22.83v22.83h15.26c30.96,0,51.23-18.93,56.58-41.21l3.34-13.37c2.9-12.25-3.79-21.16-14.48-26.95,12.03-4.23,21.16-11.36,24.28-23.17l2.45-10.02c5.57-22.5-5.35-41.21-36.53-41.21ZM878.01,195.25l-1.11,4.9c-1.78,7.35-6.68,12.7-16.26,12.7h-35.39l7.06-28.74h34.79c9.8,0,12.7,4.46,10.92,11.14ZM889.14,139.34l-1.11,4.45c-1.56,6.68-6.24,11.14-15.82,11.14h-32.74l12.39-50.46v22.84h27.04c9.8,0,12.03,4.68,10.25,12.03Z"/>
  </g>
  <g>
    <path class="cls-1" d="M468.12,135.55c1.11-4.67,2-4.9,6.68-4.9h72.4l9.47-38.54h-70.07c-40.99,0-57.69,12.03-64.82,39.65l-3.79,14.7c-7.57,29.85,7.13,31.86,37.42,37.43,1.78.22,33.86,6.24,36.53,6.9,3.56.67,3.12,3.34,2.67,5.35l-1.11,4.46c-1.56,6.68-5.79,8.68-15.37,8.68h-75.55l-9.52,38.76h81.07c40.99,0,57.47-12.26,64.38-40.1l4.23-17.82c5.35-22.72,3.79-34.08-24.06-39.43-2.67-.45-45-8.46-45-8.46-4.45-.89-6.9-1.56-6.01-4.9l.44-1.79Z"/>
    <polygon class="cls-1" points="219.56 92.11 181.25 248.04 227.36 248.04 265.67 92.11 219.56 92.11"/>
    <polygon class="cls-1" points="197.53 130.2 206.89 92.11 84.37 92.11 46.06 248.04 92.39 248.04 105.98 193.25 167.46 193.25 176.82 154.93 115.33 154.93 120.07 135.65 97.9 130.2 197.53 130.2"/>
    <path class="cls-1" d="M325.26,200.37l9.36,47.67h48.12l-10.25-53.91c15.82-6.91,26.06-20.27,29.85-35.64l6.24-24.73c5.57-22.28-5.35-41.66-36.53-41.66h-93.78l-38.31,155.93h46.33l10.37-42.22-22.17-5.45h50.78ZM360.68,141.78l-2.45,10.25c-1.78,7.57-6.9,12.91-16.48,12.91h-35.2l8.91-35.86h35.2c9.58,0,12.03,5.13,10.02,12.7Z"/>
    <polygon class="cls-1" points="702.51 129.98 711.86 92.11 569.3 92.11 559.94 129.98 608.06 129.98 579.1 248.04 625.44 248.04 653.08 135.43 630.91 129.98 702.51 129.98"/>
  </g>
</svg>