<svg width="250" height="109" viewBox="0 0 250 109" fill="none" xmlns="http://www.w3.org/2000/svg">
<path d="M131.484 0C107.278 0 87.6553 24.4002 87.6553 54.5C87.6553 84.5998 107.278 109 131.483 109C155.688 109 175.311 84.5998 175.311 54.5C175.311 24.4002 155.689 0 131.484 0ZM131.484 92.5203C114.598 92.5203 100.909 75.4981 100.909 54.5C100.909 33.5019 114.598 16.4796 131.484 16.4796C148.37 16.4796 162.059 33.5019 162.059 54.5C162.059 75.4981 148.37 92.5203 131.484 92.5203Z" fill="#94007B"/>
<path d="M120.815 18.8613C116.529 20.8457 112.699 23.992 109.569 27.9907C114.928 34.8392 118.231 44.1894 118.231 54.5C118.231 64.8106 114.929 74.1608 109.569 81.0093C112.699 85.008 116.529 88.1544 120.815 90.1387C127.463 80.5832 131.484 68.1262 131.484 54.5C131.484 40.8738 127.463 28.4156 120.815 18.8613Z" fill="#EB2C63"/>
<path d="M98.325 90.1387C95.0029 91.6764 91.4094 92.5192 87.6558 92.5192C70.7701 92.5192 57.081 75.4969 57.081 54.4988C57.081 33.5007 70.7701 16.4784 87.6558 16.4784C91.4082 16.4784 95.0029 17.3212 98.325 18.8589C101.518 14.2684 105.318 10.3478 109.57 7.29028C103.124 2.65417 95.6398 0 87.6558 0C63.4505 0 43.8281 24.4002 43.8281 54.5C43.8281 84.5998 63.4505 109 87.6558 109C95.6386 109 103.123 106.346 109.57 101.709C105.32 98.6498 101.519 94.7304 98.325 90.1399V90.1387Z" fill="#EB2C63"/>
<path d="M43.8277 0C19.6224 0 0 24.4002 0 54.5C0 84.5998 19.6224 109 43.8277 109C68.033 109 87.6554 84.5998 87.6554 54.5C87.6554 24.4002 68.033 0 43.8277 0ZM43.8277 92.5203C26.9419 92.5203 13.2529 75.4981 13.2529 54.5C13.2529 33.5019 26.9419 16.4796 43.8277 16.4796C60.7135 16.4796 74.4025 33.5019 74.4025 54.5C74.4025 75.4981 60.7135 92.5203 43.8277 92.5203Z" fill="#D98FCD"/>
<path d="M65.7423 27.9905C68.8721 23.9918 72.7021 20.8455 76.9875 18.8611C73.7932 14.2706 69.9942 10.35 65.7423 7.29248C61.4916 10.3512 57.6914 14.2706 54.4971 18.8611C58.7824 20.8455 62.6125 23.9918 65.7423 27.9905Z" fill="#ED5A97"/>
<path d="M65.7423 81.0093C62.6125 85.0079 58.7824 88.1543 54.4971 90.1386C57.6914 94.7291 61.4904 98.6497 65.7423 101.707C69.993 98.6485 73.7932 94.7291 76.9875 90.1386C72.7021 88.1543 68.8721 85.0079 65.7423 81.0093Z" fill="#ED5A97"/>
<path d="M109.569 27.9905C112.699 23.9918 116.529 20.8455 120.815 18.8611C117.62 14.2706 113.821 10.35 109.569 7.29248C105.319 10.3512 101.519 14.2706 98.3242 18.8611C102.61 20.8455 106.44 23.9918 109.569 27.9905Z" fill="#587078"/>
<path d="M109.569 81.0093C106.44 85.0079 102.61 88.1543 98.3242 90.1386C101.519 94.7291 105.318 98.6497 109.569 101.707C113.82 98.6485 117.62 94.7291 120.815 90.1386C116.529 88.1543 112.699 85.0079 109.569 81.0093Z" fill="#587078"/>
<path d="M175.312 0C151.107 0 131.484 24.4002 131.484 54.5C131.484 84.5998 151.107 109 175.312 109C199.517 109 219.14 84.5998 219.14 54.5C219.14 24.4002 199.517 0 175.312 0ZM175.312 92.5203C158.426 92.5203 144.737 75.4981 144.737 54.5C144.737 33.5019 158.426 16.4796 175.312 16.4796C192.198 16.4796 205.887 33.5019 205.887 54.5C205.887 75.4981 192.198 92.5203 175.312 92.5203Z" fill="#7454B5"/>
<path d="M153.398 81.0093C150.268 85.0079 146.438 88.1543 142.152 90.1386C145.347 94.7291 149.146 98.6497 153.398 101.707C157.648 98.6485 161.448 94.7291 164.643 90.1386C160.357 88.1543 156.527 85.0079 153.398 81.0093Z" fill="#722D66"/>
<path d="M153.398 27.9905C156.527 23.9918 160.357 20.8455 164.643 18.8611C161.448 14.2706 157.649 10.35 153.398 7.29248C149.147 10.3512 145.347 14.2706 142.152 18.8611C146.438 20.8455 150.268 23.9918 153.398 27.9905Z" fill="#722D66"/>
<path d="M227.575 54.5C239.96 54.5 250 42.2998 250 27.25C250 12.2002 239.96 0 227.575 0C215.19 0 205.15 12.2002 205.15 27.25C205.15 42.2998 215.19 54.5 227.575 54.5Z" fill="#7753B5"/>
<path d="M43.8277 92.5202C60.7138 92.5202 74.4026 75.4979 74.4026 54.4998C74.4026 33.5018 60.7138 16.4795 43.8277 16.4795C26.9417 16.4795 13.2529 33.5018 13.2529 54.4998C13.2529 75.4979 26.9417 92.5202 43.8277 92.5202Z" fill="white"/>
<path d="M87.6559 92.5202C104.542 92.5202 118.231 75.4979 118.231 54.4998C118.231 33.5018 104.542 16.4795 87.6559 16.4795C70.7699 16.4795 57.0811 33.5018 57.0811 54.4998C57.0811 75.4979 70.7699 92.5202 87.6559 92.5202Z" fill="white"/>
<path d="M131.484 92.5202C148.37 92.5202 162.059 75.4979 162.059 54.4998C162.059 33.5018 148.37 16.4795 131.484 16.4795C114.598 16.4795 100.909 33.5018 100.909 54.4998C100.909 75.4979 114.598 92.5202 131.484 92.5202Z" fill="white"/>
<path d="M175.312 92.5202C192.198 92.5202 205.887 75.4979 205.887 54.4998C205.887 33.5018 192.198 16.4795 175.312 16.4795C158.426 16.4795 144.737 33.5018 144.737 54.4998C144.737 75.4979 158.426 92.5202 175.312 92.5202Z" fill="white"/>
<path d="M76.0114 37.9099C76.0055 37.8595 75.8465 37.7467 75.8919 37.611C76.2803 37.665 76.6424 37.5102 77.0212 37.485C80.5669 37.2533 85.3984 37.3193 88.9751 37.485C94.7184 37.7503 97.669 40.7334 97.6295 46.5423C97.6128 49.104 96.8719 51.3789 94.8857 53.1423C94.5117 53.4748 93.9213 53.4808 94.0456 54.1579C94.8738 54.2479 95.8704 55.033 96.4919 55.6008C101.155 59.8552 100.114 67.8789 94.4304 70.6724C93.754 71.0049 91.9376 71.6663 91.2397 71.6663H76.0102V37.9111L76.0114 37.9099ZM81.7452 43.8449V51.2192L81.9244 51.3993H88.7325C88.8102 51.3993 89.9407 51.0151 90.071 50.9443C91.5719 50.1304 91.5349 47.5435 91.2732 46.0909C91.1047 45.1582 89.9431 43.8449 88.9715 43.8449H81.7452ZM81.9233 57.5155L81.744 57.6956V64.8898L81.9233 65.0699H90.2849C90.8262 65.0699 92.1933 64.1035 92.5459 63.6222C93.6274 62.1492 93.6286 58.8252 91.7846 57.9273C91.652 57.8625 90.5896 57.5155 90.5227 57.5155H81.9221H81.9233Z" fill="#EB2C63"/>
<path d="M120.966 37.6244L141.517 37.5596L141.512 44.2196H127.058C127.141 44.6602 126.971 45.0707 126.943 45.4801C126.874 46.4776 127.04 47.4896 127.063 48.4704C127.074 48.9397 126.853 50.9001 127.173 51.1185L139.839 51.0537V57.889C139.71 57.9334 139.577 57.769 139.54 57.769H127.058C127.162 58.4016 126.941 59.0294 126.927 59.6273C126.9 60.7305 127.033 62.0125 127.047 63.1181C127.051 63.4159 126.875 64.7387 127.247 64.8312L141.869 64.7243V71.0194C141.869 71.0795 142.058 71.2715 141.989 71.4396H120.966V37.6244Z" fill="#94007B"/>
<path d="M186.659 44.307H178.477L178.297 44.4871V71.527H172.205V44.4871L172.026 44.307H164.381C164.313 44.307 163.963 44.3946 163.963 44.1269V37.4717H186.598L186.658 44.307H186.659Z" fill="#7454B5"/>
<path d="M222.755 22.4096C225.287 22.0099 227.176 23.4156 227.548 25.9329C228.043 29.2822 226.702 32.6602 222.78 32.0396C218.554 31.3709 218.607 23.0651 222.755 22.4096ZM223.354 24.2055C221.646 24.4564 221.323 26.8861 221.65 28.2582C222.015 29.7851 222.819 30.6507 224.466 30.1225C226.212 29.5631 226.313 23.7721 223.354 24.2055Z" fill="white"/>
<path d="M245.719 31.8552H243.868L243.211 30.0557L240.331 30.0401L239.688 31.8552H237.837C237.832 31.3366 238.011 30.8108 238.161 30.3222C238.948 27.74 239.922 25.1831 240.759 22.619C241.046 22.3225 241.444 22.4821 241.732 22.4845C242.13 22.4881 242.611 22.3309 242.952 22.8218L245.719 31.8552ZM242.494 28.2574C242.618 28.1242 242.168 26.518 242.077 26.2191C241.991 25.9358 241.838 25.3812 241.838 25.3812L240.949 28.0666C241.129 28.2838 241.434 28.2442 241.733 28.2586C242.003 28.2706 242.226 28.2586 242.495 28.2586L242.494 28.2574Z" fill="white"/>
<path d="M237.238 22.6211V24.3593C237.238 24.7074 233.593 29.2595 233.177 29.9966C233.131 30.3771 233.425 30.0554 233.475 30.0554H237.059C237.092 30.0554 237.337 30.1778 237.361 30.2571C237.292 30.6004 237.531 31.7156 237.162 31.8368L230.72 31.7408C230.591 31.0962 230.646 30.3711 230.927 29.7745L234.73 24.4193C234.73 24.4193 233.569 24.4193 233.003 24.4133C232.628 24.4097 231.253 24.5586 231.114 24.5214C230.588 24.3821 230.798 23.0436 230.841 22.6115C230.926 22.489 231.073 22.5094 231.201 22.4938C232.437 22.3414 235.301 22.3918 236.587 22.4938C236.816 22.5118 237.019 22.5646 237.238 22.6199V22.6211Z" fill="white"/>
<path d="M215.114 22.6439C215.396 22.6019 216.546 22.7148 216.843 22.7736C217.767 22.956 218.496 23.5551 218.943 24.3822C219.124 24.7195 219.714 26.0508 219.145 26.1036L217.613 25.9571C217.061 25.7915 217.261 24.459 215.913 24.4158C213.829 24.3485 213.661 27.9187 214.276 29.3064C214.725 30.3183 216.011 30.7997 216.861 29.9258C217.223 29.5525 217.247 28.8562 217.557 28.7061C219.11 28.4745 219.693 28.3844 219.02 30.0566C218.68 30.9042 217.675 31.9545 216.741 32.0866C214.717 32.3723 213.197 31.8633 212.421 29.8502C211.492 27.4361 211.995 23.1085 215.113 22.6475L215.114 22.6439Z" fill="white"/>
<path d="M211.763 29.9355H209.432V32.148H211.763V29.9355Z" fill="white"/>
<path d="M230.015 29.9355H227.684V32.148H230.015V29.9355Z" fill="white"/>
<path d="M57.6149 37.4192L57.4954 71.5813H51.8214C51.7246 71.5813 51.4701 71.1996 51.5167 71.0483C51.2538 64.4591 51.8859 57.5734 51.5286 51.019C51.5095 50.6696 51.4211 50.3503 51.4031 50.0046L43.5817 63.9105L35.9968 50.1246L35.8761 71.4613H30.3216C30.2786 71.4613 30.128 71.3388 30.042 71.3208L30.1424 37.418H36.8907L43.8195 51.4427L51.3434 37.418H57.6137L57.6149 37.4192Z" fill="#D98FCD"/>
</svg>
