<?xml version="1.0" encoding="UTF-8"?> <svg xmlns="http://www.w3.org/2000/svg" xmlns:xlink="http://www.w3.org/1999/xlink" version="1.0" x="0px" y="0px" viewBox="0 0 300 140" style="enable-background:new 0 0 300 140;" xml:space="preserve"> <style type="text/css"> .st0{fill:#FFFFFF;} .st1{clip-path:url(#SVGID_4_);} .st2{fill:#2A9E43;} .st3{fill:#64BEA4;} .st4{fill:#756746;} .st5{fill:#0B090A;} .st6{fill:#1C3123;} .st7{fill:#0B6544;} .st8{fill:#F6D658;} .st9{fill:#069870;} .st10{fill:#B99280;} .st11{fill:#ECBB33;} .st12{fill:#C6C6C6;} .st13{fill:#F4C4AF;} .st14{display:none;fill:#FFFFFF;} .st15{fill:#052433;} .st16{fill:#042332;} .st17{fill:#062534;} .st18{fill:#F2F3F4;} .st19{fill:#0238A3;} .st20{fill:#C6172C;} .st21{fill:#C79F49;} .st22{fill:#0F0F0F;} .st23{fill:#FAFAFA;} .st24{fill:#09815B;} .st25{fill:#41B389;} .st26{fill:#0A805B;} .st27{fill:#41B188;} .st28{fill:#42B58B;} .st29{fill:#08805A;} .st30{fill:#41B289;} .st31{fill:#368F72;} .st32{fill:#408E74;} .st33{fill:#24674F;} .st34{fill:#F5F6F5;} .st35{fill:#094167;} .st36{fill:#053E65;} .st37{fill:#043D65;} .st38{fill:#167BBC;} .st39{fill:#197CBD;} .st40{fill:#446E88;} .st41{fill:#4E768F;} .st42{fill:#B3C4D0;} .st43{fill:#3A6782;} .st44{fill:#E5EDF4;} .st45{fill:#E5ECF1;} .st46{fill:#F9F9F9;} .st47{fill:#DEDEDE;} .st48{fill:#CDCDCD;} .st49{fill:#CCC0A3;} .st50{fill:#D4A223;} .st51{fill:#F6BF32;} .st52{fill:#F4BE32;} .st53{fill:#FAC42C;} .st54{fill:#E2B32A;} .st55{fill:#E3BF5B;} .st56{fill:#D8D8D8;} .st57{fill:#F5F4F2;} .st58{fill:#025FC9;} .st59{fill:#2C4980;} .st60{fill:#1E3F7D;} .st61{fill:#0F3778;} .st62{fill:#003277;} .st63{fill:#193C7B;} .st64{fill:#E8E8EA;} .st65{fill:#D2D7E1;} .st66{fill:#E1E4EB;} .st67{fill:#345386;} .st68{fill:#94A0BB;} .st69{fill:#E0E0E0;} .st70{fill:#EDEDED;} .st71{fill:#363636;} .st72{fill:#3A3A3A;} .st73{fill:#484849;} .st74{fill:#666769;} .st75{fill:#DBDFE7;} .st76{fill:#5C5D5E;} .st77{fill:#EAEAEC;} .st78{fill:#E6E6E6;} .st79{fill:#E3E3E3;} .st80{fill:#6F7072;} .st81{fill:#232323;} .st82{fill:#252525;} .st83{fill:#FB9705;} .st84{fill:#FB9807;} .st85{fill:#262626;} .st86{fill:#FB9806;} .st87{fill:#0AEA8C;} .st88{fill:#010101;} .st89{fill:#F2F2E9;} .st90{fill:#E80239;} .st91{fill:#E80138;} .st92{fill:#F6181A;} .st93{fill:#0E0E0E;} .st94{fill:#535353;} .st95{fill:#BCBCC1;} .st96{fill:#944296;} .st97{fill:#060606;} .st98{fill:#A3C413;} .st99{fill:#020202;} .st100{fill:#050505;} .st101{fill:#040404;} .st102{fill:#E7E7E7;} .st103{fill:#E56420;} .st104{fill:#E5641F;} .st105{fill:#E56520;} .st106{fill:#12395D;} .st107{fill:#E56521;} .st108{fill:#212220;} .st109{fill:#20211F;} .st110{fill:#FB3A02;} .st111{fill:#050F30;} .st112{fill:#0A1334;} .st113{fill:#FBCA05;} .st114{fill:#00001B;} .st115{fill:#047968;} .st116{fill:#E91D25;} .st117{fill:#E91C25;} .st118{fill:#E91D26;} .st119{fill:#E6BEBD;} .st120{fill:#EDCBC7;} .st121{fill:#E2BCBA;} .st122{fill:#084821;} .st123{fill:#04D147;} .st124{fill:#01451A;} .st125{fill:#E8EC02;} .st126{fill:#030303;} .st127{fill:#019AFB;} .st128{fill:#0399F9;} .st129{fill:#080D0B;} .st130{fill:#00B5B5;} .st131{fill:#EEB038;} .st132{fill:#040C0C;} .st133{fill:#8CD001;} .st134{fill:#030302;} .st135{fill:#FAD300;} .st136{fill:#E78C20;} .st137{fill:#F0D521;} .st138{fill:#FA3142;} .st139{fill:#FA3445;} .st140{fill:#040303;} .st141{fill:#050404;} .st142{fill:#DD7122;} .st143{fill:#0AFBD4;} .st144{fill:#0D0D0D;} .st145{fill:#232A37;} .st146{fill:#03AB44;} .st147{fill:#EDF6F1;} .st148{fill:#EDF7F1;} .st149{fill:#75CF95;} .st150{fill:#67CB8B;} .st151{fill:#62C988;} .st152{fill:#64CA89;} .st153{fill:#F18092;} .st154{fill:#0C0C0C;} .st155{fill:#0B0B0B;} .st156{fill:#141414;} .st157{fill:#101010;} .st158{fill:#393939;} .st159{fill:#E8173C;} .st160{fill:#1F1F1F;} .st161{fill:#080808;} .st162{fill:#222222;} .st163{fill:#161616;} .st164{fill:#151515;} .st165{fill:#313131;} .st166{fill:#2E2E2E;} .st167{fill:#DF1919;} .st168{fill:#F9080F;} .st169{fill:#F9060E;} .st170{fill:#F16469;} .st171{fill:#F14F04;} .st172{fill:#090909;} .st173{fill:#FB5012;} .st174{fill:#FB5114;} .st175{fill:#06AEDC;} .st176{fill:#9D408E;} .st177{fill:#FB5418;} .st178{fill:#FB6B39;} .st179{fill:#D48A78;} .st180{fill:#37B0DC;} .st181{fill:#47B23E;} .st182{fill:#61BA51;} .st183{fill:#97C73F;} .st184{fill:#67BD33;} .st185{fill:#FAA670;} .st186{fill:#C180B4;} .st187{fill:#AE5FA0;} .st188{fill:#9191C3;} .st189{fill:#A6B690;} .st190{fill:#FB8051;} .st191{fill:#5DBEE2;} .st192{fill:#B3A6CD;} .st193{fill:#9EAB7E;} .st194{fill:#7FC9E7;} .st195{fill:#90CB7A;} .st196{fill:#B6D157;} .st197{fill:#D49EC5;} .st198{fill:#CCDD7F;} .st199{fill:#6DC1E3;} .st200{fill:#242423;} .st201{fill:#39BD02;} .st202{fill:#4BFB02;} .st203{fill:#4CFB03;} .st204{fill:#232321;} .st205{fill:#252523;} .st206{fill:#222220;} .st207{fill:#282826;} .st208{fill:#262624;} .st209{fill:#2A2A29;} .st210{fill:#1D1D1B;} .st211{fill:#EBEBEB;} .st212{fill:#D9D9D9;} .st213{fill:#434242;} .st214{fill:#3E3D3D;} .st215{fill:#3C3B3B;} .st216{fill:#3D3D3D;} .st217{fill:#3F3F3F;} .st218{fill:#3D3C3C;} .st219{fill:#403F3F;} .st220{fill:#414040;} .st221{fill:#E2C780;} .st222{fill:#676767;} .st223{fill:#D4B775;} .st224{fill:#8E7541;} .st225{fill:#BBBBBB;} .st226{fill:#A98E55;} .st227{fill:#BEBEBE;} .st228{fill:#CBAD6E;} .st229{fill:#6F6F6F;} .st230{fill:#858585;} .st231{fill:#B6B6B6;} .st232{fill:#7E7E7E;} .st233{fill:#7A6235;} .st234{fill:#B4985F;} .st235{fill:#C3C4C4;} .st236{fill:#C0A46D;} .st237{fill:#A5A6A6;} .st238{fill:#B1955C;} .st239{fill:#D6BD7F;} .st240{fill:#8D8D8D;} .st241{fill:#969696;} .st242{fill:#D8BD73;} .st243{fill:#DFC57C;} .st244{fill:#5F4516;} .st245{fill:#9A8048;} .st246{fill:#B39F71;} .st247{fill:#585858;} .st248{fill:#482B1B;} .st249{fill:#706059;} .st250{fill:#F1EFED;} .st251{fill:#ECEBEA;} .st252{fill:#A06C43;} .st253{fill:#C98B55;} .st254{fill:#594034;} .st255{fill:#7B4A33;} .st256{fill:#90501E;} .st257{fill:#291915;} .st258{fill:#C49872;} .st259{fill:#E5B27D;} .st260{fill:#BB7033;} .st261{fill:#B47A4F;} .st262{fill:#0F0D0A;} .st263{fill:#A29286;} .st264{fill:#D6A572;} .st265{fill:#C08051;} .st266{fill:#20100E;} .st267{fill:#D87626;} .st268{fill:#713A20;} .st269{fill:#A98874;} .st270{fill:#EEEDEC;} .st271{fill:#E9E6E5;} .st272{fill:#056099;} .st273{fill:#07619A;} .st274{fill:#0D659C;} .st275{fill:#F9AC08;} .st276{fill:#F87D08;} .st277{fill:#EA3E0C;} .st278{fill:#F99205;} .st279{fill:#41AC30;} .st280{fill:#41AC2F;} .st281{fill:#424243;} .st282{fill:#444445;} .st283{fill:#ABDAA4;} .st284{fill:#40AC2E;} .st285{fill:#464647;} .st286{fill:#44AD33;} .st287{fill:#534A4F;} .st288{fill:#584F54;} .st289{fill:#C8C6C7;} .st290{fill:#50474C;} .st291{fill:#544B50;} .st292{fill:#DDDDDD;} .st293{fill:#0A0C08;} .st294{fill:#080905;} .st295{fill:#0D0F0B;} .st296{fill:#161716;} .st297{fill:#15805F;} .st298{fill:#FFE119;} .st299{fill:#00CB9F;} .st300{fill:#01CC9F;} .st301{fill:#1C1C1C;} .st302{fill:#1A1A1A;} .st303{fill:#0D3C2F;} .st304{fill:#1A473C;} .st305{fill:#104335;} .st306{fill:#0C3229;} .st307{fill:#0A372B;} .st308{fill:#EBF5F4;} .st309{fill:#1A3D35;} .st310{fill:#274B40;} .st311{fill:#F5E599;} .st312{fill:#D9D09A;} .st313{fill:#4C6D64;} .st314{fill:#13392F;} .st315{fill:#F8F6DE;} .st316{fill:#51776D;} .st317{fill:#769088;} .st318{fill:#D5E9E5;} .st319{fill:#1D5044;} .st320{fill:#D4E7E0;} .st321{fill:#F1EEB8;} .st322{fill:#D2C883;} .st323{fill:#B2D1C9;} .st324{fill:#E4C459;} .st325{fill:#E8BE42;} .st326{fill:#D4C472;} .st327{fill:#08DEAF;} .st328{fill:#070707;} .st329{fill:#025E98;} .st330{fill:#0A0D0D;} .st331{fill:#9E2125;} .st332{fill:#0D0F0F;} .st333{fill:#FB6703;} .st334{fill:#90CE45;} .st335{fill:#108038;} .st336{fill:#078A36;} .st337{fill:#852EFB;} .st338{fill:#101824;} .st339{fill:#7671FB;} .st340{fill:#5DBDFB;} .st341{fill:#8BF53D;} .st342{fill:#75CC30;} .st343{fill:#76B928;} .st344{fill:#F0F9E4;} .st345{fill:#FA5555;} .st346{fill:#FB0202;} .st347{fill:#33D61D;} .st348{clip-path:url(#SVGID_6_);} .st349{fill:#C2D3FA;} .st350{fill:#6C9AF0;} .st351{fill:#9DBCF5;} .st352{fill:#5489EE;} .st353{fill:#79A2F2;} .st354{fill:#AA7E15;} .st355{fill:#CDB476;} .st356{fill:#DF0436;} .st357{fill:#04AC12;} .st358{fill:#36424A;} .st359{fill:#306606;} .st360{fill:#396F0C;} .st361{fill:#7CB130;} .st362{fill:#171716;} .st363{fill:#73A62F;} .st364{fill:#3F750E;} .st365{fill:#161714;} .st366{fill:#181916;} .st367{fill:#171815;} .st368{fill:#77AC2E;} .st369{fill:#74A92D;} .st370{fill:#85B638;} .st371{fill:#55891C;} .st372{fill:#629822;} .st373{fill:#689E27;} .st374{fill:#487C14;} .st375{fill:#4B8114;} .st376{fill:#5B911E;} .st377{fill:#5E9520;} .st378{fill:#4D8316;} .st379{fill:#4E801C;} .st380{fill:#427020;} .st381{fill:#75A63B;} .st382{fill:#F0F3ED;} .st383{fill:#EFF2EC;} .st384{fill:#699C2C;} .st385{fill:#8DAF5F;} .st386{fill:#5F9226;} .st387{fill:#D32E3C;} .st388{fill:#FE6B09;} .st389{fill:#0A0A0A;} .st390{fill:#011346;} .st391{fill-rule:evenodd;clip-rule:evenodd;fill:url(#SVGID_7_);} .st392{fill-rule:evenodd;clip-rule:evenodd;fill:url(#SVGID_8_);} .st393{fill-rule:evenodd;clip-rule:evenodd;fill:url(#SVGID_9_);} .st394{fill-rule:evenodd;clip-rule:evenodd;fill:url(#SVGID_10_);} .st395{fill:#272753;} .st396{fill:#87879F;} .st397{fill:#020134;} .st398{fill:#FEFEFF;} .st399{fill:#FE277E;} .st400{fill:#FBFBFC;} .st401{fill:#FDFDFE;} .st402{fill:#FAFAFB;} .st403{fill:#FEFEFE;} .st404{fill:#FFFEFF;} .st405{fill:#FFFDFE;} .st406{fill:#FFFEFE;} .st407{fill:#080839;} .st408{fill:#09093A;} .st409{fill:#FF2A80;} .st410{fill:#FF2A81;} .st411{fill:#FF2980;} .st412{fill:url(#SVGID_11_);} .st413{fill:#E43802;} .st414{fill:url(#SVGID_12_);} .st415{fill:url(#SVGID_13_);} .st416{fill-rule:evenodd;clip-rule:evenodd;fill:#FFFFFF;filter:url(#Adobe_OpacityMaskFilter);} .st417{mask:url(#a_2_);} .st418{fill-rule:evenodd;clip-rule:evenodd;fill:#E41D32;} .st419{fill:#FFB900;} .st420{fill:#C51518;} .st421{fill:#991015;} .st422{fill:#03090B;} .st423{fill:#F8CD00;} .st424{fill:#ED1B30;} .st425{fill:#ED1C24;} .st426{fill:#0083DB;} .st427{fill:#FDE021;} .st428{fill:#E30421;} .st429{fill:#39F56A;} .st430{fill:#001A5B;} .st431{fill:#E02030;} .st432{fill:#41CC00;} .st433{fill-rule:evenodd;clip-rule:evenodd;fill:#FF761F;} .st434{fill-rule:evenodd;clip-rule:evenodd;fill:#F45E0B;} .st435{fill-rule:evenodd;clip-rule:evenodd;fill:#FF6404;} .st436{fill:#EC0000;} .st437{fill:#231F20;} .st438{fill:#23934A;} .st439{fill:#FFE418;} .st440{fill:#0A6008;} .st441{fill:#FF1300;} .st442{fill:#AB9471;} .st443{fill:#122A53;} .st444{fill:#FDB61B;} .st445{fill:#D60000;} .st446{fill-rule:evenodd;clip-rule:evenodd;fill:#44B6E5;} .st447{fill-rule:evenodd;clip-rule:evenodd;} .st448{fill-rule:evenodd;clip-rule:evenodd;fill:url(#logo_1_);} .st449{fill:#3C0098;} .st450{fill:#61B510;} .st451{fill:#F7760D;} .st452{fill:#0078FF;} .st453{fill:url(#SVGID_14_);} .st454{opacity:0.27;fill:#030303;enable-background:new ;} .st455{fill:#F7F4F1;} .st456{fill:#FFCA05;} .st457{fill:#1D1E1B;} .st458{opacity:0.5;fill:url(#SVGID_15_);enable-background:new ;} .st459{fill:url(#SVGID_16_);} .st460{fill:#F09021;} .st461{opacity:0.5;fill:url(#SVGID_17_);enable-background:new ;} .st462{opacity:0.5;fill:url(#SVGID_18_);enable-background:new ;} .st463{fill:#FFDF00;stroke:#FFDF00;stroke-width:1.5;stroke-miterlimit:10;} .st464{fill:#652B80;} .st465{opacity:0.5;fill:url(#SVGID_19_);enable-background:new ;} .st466{fill:#EB0143;} .st467{fill:#00A1E7;} .st468{fill:#43CC3C;} .st469{fill:#4172C1;} .st470{fill:#E8490D;} .st471{fill:url(#SVGID_20_);} .st472{fill:url(#SVGID_21_);} .st473{fill-rule:evenodd;clip-rule:evenodd;fill:#FF5500;} .st474{fill:url(#SVGID_22_);} .st475{fill:url(#SVGID_23_);} .st476{fill:url(#SVGID_24_);} .st477{fill:#353535;} .st478{fill:url(#SVGID_25_);} .st479{fill:#E51A44;} .st480{fill:#100F0D;} .st481{fill:#D70A0A;} .st482{fill:#212121;} .st483{fill:#B80320;} .st484{fill:#FF6700;} .st485{fill-rule:evenodd;clip-rule:evenodd;fill:#FF6700;} .st486{fill:#EC5F28;} .st487{clip-path:url(#SVGID_29_);} .st488{fill:#EB282C;} .st489{fill:#141412;} .st490{clip-path:url(#SVGID_31_);} .st491{fill:#776B39;} .st492{fill:#0B0704;} .st493{fill:#E06905;} .st494{fill:#DE6805;} .st495{fill:#DF6905;} .st496{fill:#452205;} .st497{fill:#1E0E02;} .st498{fill:#211002;} .st499{fill:#100801;} .st500{fill:#00F7AD;} .st501{fill:#00F8AD;} .st502{fill:#01F9AE;} .st503{fill:#00F6AC;} .st504{fill:#EA1C24;} .st505{fill:#FFCA34;} .st506{fill:#EC4444;} .st507{fill:#00A554;} .st508{fill:#F7CF1D;} .st509{fill:#FF0D36;} .st510{fill:#086DFF;} .st511{fill:#FF8217;} .st512{fill:#F90027;} .st513{fill:#FBC609;} .st514{fill:#17BBFF;} .st515{fill:#FF8C04;} .st516{fill:#DE1D00;} .st517{fill:#70C32A;} .st518{fill:#BC6B03;} .st519{fill:#118CBC;} .st520{fill:#549220;} .st521{fill:#A61600;} .st522{fill:#BE8924;} .st523{fill:#078095;} .st524{fill:#40A95B;} .st525{fill:#068095;} .st526{fill:#098096;} .st527{fill:#0A8196;} .st528{fill:#118499;} .st529{fill:#0C8297;} .st530{fill:#FAFBFB;} .st531{fill:#027B34;} .st532{fill:#057C37;} .st533{fill:#077D39;} .st534{fill:#CF2A34;} .st535{fill:#067D38;} .st536{fill:#D02D36;} .st537{fill:#087E39;} .st538{fill:#CF2C36;} .st539{fill:#5F5F5F;} .st540{fill:#5C5C5C;} .st541{fill:#555555;} .st542{fill:#5A5A5A;} .st543{fill:#575757;} .st544{fill:#6B6B6B;} .st545{fill:#666666;} .st546{fill:#D8565E;} .st547{fill:#DB656C;} .st548{fill:#F5DCDD;} .st549{fill:#FBC52F;} .st550{fill:#2F2C2B;} .st551{fill:#FBFBF9;} .st552{fill:#CDAD64;} .st553{fill:#CCAB5F;} .st554{fill:#CCAC61;} .st555{fill:#CEAE66;} .st556{fill:#CCAC62;} .st557{fill:#CCAB61;} .st558{fill:#CBAB5F;} .st559{fill:#CDAC62;} .st560{fill:#D2B674;} .st561{fill:#D1B370;} .st562{fill:#D0B36F;} .st563{fill:#D0B26E;} .st564{fill:#D1B572;} .st565{fill:#D7BE83;} .st566{fill:#D5BB7F;} .st567{fill:#CEAF68;} .st568{fill:#E1CFA4;} .st569{fill:#EEE5D0;} .st570{fill:#E5D6B2;} .st571{fill:#EBE1C6;} .st572{fill:#E8DBBC;} .st573{fill:#DECA9A;} .st574{fill:#E7D8B6;} .st575{fill:#F5F0E4;} .st576{fill:#E3D3AC;} .st577{fill:#FAF8F4;} .st578{fill:#FFCB03;} .st579{fill:#032454;} .st580{fill:#CADB2D;} .st581{fill:#242424;} .st582{fill:#051525;} .st583{fill:#F2A241;} .st584{fill:#111111;} .st585{fill:#FBCB00;} .st586{fill:#CC463E;} .st587{fill:#00239C;} .st588{fill:#FF7800;} .st589{opacity:0.15;} .st590{fill:#EB080C;} .st591{fill:#0E4A26;} .st592{fill:#0BFF22;} .st593{fill:#2D2A29;} .st594{fill:#F18D1F;} .st595{fill:#E68E27;} .st596{fill:#E27F20;} .st597{fill:#6E4A97;} .st598{fill:#A06EA5;} .st599{fill:#935293;} .st600{fill:#FEED01;} .st601{fill:#FEED02;} .st602{fill:#FE6620;} .st603{fill:#FE6720;} .st604{fill:#FBB640;} .st605{fill:#0F306C;} .st606{fill:url(#SVGID_32_);} .st607{fill:url(#SVGID_33_);} .st608{fill:url(#SVGID_34_);} .st609{fill:url(#SVGID_35_);} .st610{fill:url(#SVGID_36_);} .st611{fill:url(#SVGID_37_);} .st612{fill:url(#SVGID_38_);} .st613{fill:url(#SVGID_39_);} .st614{fill:url(#SVGID_40_);} .st615{fill:url(#SVGID_41_);} .st616{fill:#FF4200;} .st617{fill:#8F00FF;} .st618{fill:#23262E;} </style> <g id="fondo"> <rect x="0" y="0" class="st0" width="300" height="140"></rect> <g> <path class="st466" d="M0.3,21.8l46.4,58.3V42.6c0-1.4,0.7-2.1,2.1-2.1H58c0.7,0,2.1,1.4,2.1,2.1v76.3L13.6,58.6v40.9 c0,1.4-0.7,2.1-2.1,2.1H2.4c-0.7,0-2.1-1.4-2.1-2.1V21.8L0.3,21.8z"></path> <path class="st467" d="M72.5,42.1c0-0.7,0.7-1.4,1.5-1.4h37.9c0.7,0,1.5,0.7,1.5,1.4v6.8c0,0.7-0.7,1.4-1.5,1.4H84.4v14.4h23.1 c0.7,0,1.5,0.7,1.5,1.4v6.8c0,0.7-0.7,1.4-1.5,1.4H84.4v16.4h27.5c0.7,0,1.5,0.7,1.5,1.4v6.8c0,0.7-0.7,1.4-1.5,1.4H74 c-0.7,0-1.5-0.7-1.5-1.4V42.1L72.5,42.1z"></path> <path class="st468" d="M178.6,86.8c-1.3-0.7-2.9-1.2-4.5-1.2c-5.2,0-9.4,4.2-9.4,9.4c0,1.3,0.2,2.5,0.7,3.6c-4.2,2-8.9,3.1-14,3.1 c-17.3,0-31.1-13.8-31.1-31s13.8-31.7,31.1-31.7s31.8,13.8,31.8,31.7C183.1,76.6,181.5,82.1,178.6,86.8L178.6,86.8z M151.4,90.7 c11.1,0,20-8.9,20-20s-9-20-20-20s-20,8.9-20,20S141,90.7,151.4,90.7L151.4,90.7z"></path> <path d="M194.9,97.6v-57c0-0.9,0.7-1.6,1.6-1.6h4.9c0.8,0,1.6,0.8,1.6,1.6v25.2c0.7-0.3,3.8-1.9,8.1-1.9c9.4,0,16.6,8,16.6,18.1 c0,9.9-6.8,18.1-15.8,18.1c-6.7,0-10.7-4.8-10.7-4.8l-0.7,2.5c-0.2,0.9-0.7,1.5-1.5,1.5h-2.5C195.7,99.2,194.9,98.5,194.9,97.6 L194.9,97.6z M203,87.6c0.4,1,2.9,5.2,8,5.2c5.4,0,9-4.9,9-10.7c0-5.9-4-10.6-9.6-10.6c-4.4,0-7.4,2-7.4,2L203,87.6L203,87.6z"></path> <path d="M234.6,82c0-9.7,6.8-18.1,17-18.1c8.8,0,15.6,6.7,15.6,16c0,0.6-0.1,1.7-0.2,2.3c-0.1,0.9-0.8,1.5-1.5,1.5h-23.1 c0.3,4.7,4.2,9.2,9.8,9.2c3,0,5.9-1.4,7.6-2.5c1-0.6,1.6-1,2.3-0.1l2.4,3.3c0.6,0.7,0.8,1.4-0.2,2.2c-2.5,2.2-6.9,4.3-12.6,4.3 C241.4,100.1,234.6,91.9,234.6,82L234.6,82z M243.4,78.3h16.3c-0.2-4.1-3.6-7.6-7.7-7.6C247.4,70.7,243.9,74.1,243.4,78.3 L243.4,78.3z"></path> <path d="M279.7,89.9V71.9h-3.6c-0.9,0-1.6-0.8-1.6-1.6v-3.9c0-1,0.7-1.6,1.6-1.6h3.6v-9.6c0-0.9,0.8-1.6,1.6-1.6l4.8-0.1 c0.8,0,1.5,0.8,1.5,1.6v9.7h8.6c0.9,0,1.6,0.7,1.6,1.6v3.9c0,0.9-0.7,1.6-1.6,1.6h-8.6V89c0,2.9,1.1,3.4,2.7,3.4 c1.8,0,4.2-1,5.2-1.6c1.1-0.5,1.6,0,1.9,0.8l1.5,3.8c0.4,1,0.1,1.6-0.8,2.1c-0.8,0.5-5.9,2.6-9.9,2.6 C281.7,100.1,279.7,96,279.7,89.9L279.7,89.9z"></path> <path d="M174.1,100.3c2.8,0,5.1-2.3,5.1-5.1s-2.3-5.1-5.1-5.1c-2.8,0-5.1,2.3-5.1,5.1S171.3,100.3,174.1,100.3L174.1,100.3z"></path> </g> </g> <g id="logos"> </g> </svg> 