<svg width="250" height="96" viewBox="0 0 250 96" fill="none" xmlns="http://www.w3.org/2000/svg">
<path d="M43.6304 24.1535C50.8449 29.0309 56.0722 36.5113 56.2709 45.4359C65.49 40.2212 75.5126 41.1725 83.7985 47.5806L47.553 68.9927C43.6477 71.3017 39.4054 72.988 34.9902 73.9998L28.7088 75.4354V60.4313C33.9189 58.5115 39.7855 56.4792 40.7187 50.0798C42.9997 34.4445 18.764 28.5553 16.6645 49.2929C14.85 67.2631 23.1359 87.9575 0.291375 96V50.7543C0.291375 42.0027 1.95029 37.9296 3.57463 34.9633C5.94204 30.6567 8.84513 28.0796 12.353 24.4389C-3.00916 16.6731 0.300016 0 0.300016 0C0.300016 0 30.7825 15.4624 43.6304 24.1535Z" fill="#7E63F2"/>
<path d="M110.515 64.2882V76.2914H101.045V29.1519L107.81 29.2729L109.219 32.5764C119.241 23.7815 136.383 27.9412 140.409 40.9649C146.181 59.6529 127.268 74.8386 110.515 64.2882ZM118.023 37.056C105.27 39.6677 107.542 61.3998 123.665 58.0876C135.692 55.6144 133.29 33.9341 118.023 37.056Z" fill="white"/>
<path d="M204.362 65.5682L202.936 66.7184L197.182 66.8913L195.299 63.4149C178.537 75.2019 158.094 60.7946 164.125 40.9564C168.22 27.5003 185.371 24.1276 195.731 32.5679L196.724 29.2645L204.345 29.1434V65.5682H204.362ZM180.878 37.0562C169.983 39.27 169.681 57.7419 183.254 58.3386C199.653 59.065 197.804 33.623 180.878 37.0562Z" fill="white"/>
<path d="M229.351 51.4205L239.806 29.2819L250.001 29.1436L229.774 75.4356L219.009 76.2744L224.625 62.4811L209.539 29.1436L219.899 29.5327L229.351 51.4205Z" fill="white"/>
<path d="M157.007 18.8608H147.537V66.8565H157.007V18.8608Z" fill="white"/>
<path d="M37.4438 56.0468L56.2707 45.4273C56.072 36.5113 50.8447 29.0309 43.6302 24.1449C30.7822 15.4624 0.29978 0 0.29978 0C0.29978 0 -3.0094 16.6731 12.3614 24.4389L34.2815 37.2983C34.7654 37.5491 35.2406 37.8171 35.6985 38.1285H35.7158V38.1371C39.1891 40.5326 41.5047 44.7354 40.7271 50.0798C40.3469 52.7088 39.12 54.594 37.4524 56.0468H37.4438Z" fill="#4A4CB1"/>
<path d="M34.2815 37.2979L12.3615 24.4385C8.84492 28.0706 5.94183 30.6563 3.58306 34.9629C1.95871 37.9292 0.299805 42.0023 0.299805 50.7539V95.9996C23.1444 87.9571 14.8585 67.2714 16.6729 49.2925C17.9603 36.5714 27.5681 33.882 34.2902 37.2979H34.2815Z" fill="#3B3D81"/>
</svg>
