<svg width="280" height="191" viewBox="0 0 280 191" fill="none" xmlns="http://www.w3.org/2000/svg">
<path d="M89.8639 150.67C89.5304 150.994 89.9546 151.065 90.1543 151.173C90.6057 151.423 91.2069 151.529 91.7491 151.844C99.333 156.258 98.1851 164.138 96.1025 171.512C92.4093 184.585 84.7641 190.421 71.157 191.006L15 190.997L33.1715 111.042L89.3081 111.01C105.343 111.944 107.768 122.411 103.591 136.168C101.506 143.035 98.3779 147.027 91.833 150.027C91.4179 150.217 89.941 150.6 89.8662 150.673L89.8639 150.67ZM52.2051 142.738H70.0136C71.1547 142.738 73.7114 141.542 74.5599 140.708C76.3113 138.984 77.7019 133.986 76.7514 131.707C75.8598 129.566 73.1942 129.285 71.1456 129.149C66.0413 128.805 60.549 129.376 55.4106 129.176L52.2051 142.741V142.738ZM45.3993 172.645H63.6615C66.377 172.645 69.1334 170.169 70.0975 167.744C72.2028 162.452 71.3203 159.056 65.2473 158.6C59.9025 158.199 54.1084 158.904 48.7137 158.584L45.3993 172.645Z" fill="white"/>
<path d="M183.557 111.019L178.807 130.857L139.004 130.943L136.409 141.315C136.323 141.499 136.633 141.832 136.711 141.832H171.08L166.513 160.607L132.205 160.669L129.338 171.512H169.719L165.182 190.997H98.2578L117.087 111.019H183.557Z" fill="white"/>
<path d="M258.648 111.019L253.41 132.747L231.901 132.792L217.7 190.997H191.838L205.109 132.769H183.784L189.115 111.019H258.648Z" fill="white"/>
<path d="M115.046 68.8784C115.202 66.6852 116.364 63.6085 113.687 62.419C111.709 61.5399 104.862 61.6011 102.87 62.496C101.294 63.2052 100.438 64.7096 100.177 66.3748C99.7986 68.7877 100.586 69.8277 102.843 70.5323C109.749 72.6937 126.017 71.9619 128.145 80.6076C129.025 84.1874 127.41 90.8348 126.169 94.3692C121.872 106.613 112.029 105.523 101.105 105.591C95.5926 105.625 86.6475 106.166 81.7043 103.878C74.4969 100.539 76.0917 92.8558 77.6162 86.5504H94.6308C93.8957 90.2661 93.2265 92.9532 97.9112 93.3565C99.9733 93.5332 105.57 93.574 107.312 92.7583C109.311 91.8226 110.164 88.952 109.817 86.9016C109.61 85.6895 108.254 85.0778 107.21 84.7493C100.18 82.5334 84.1249 83.4737 81.8472 74.7351C80.6925 70.3012 83.1516 61.1072 85.5178 57.1717C88.4261 52.3323 93.4851 49.9828 99.0455 49.6113C105.221 49.1966 114.669 49.1966 120.842 49.6113C129.032 50.1595 133.934 53.9772 133.168 62.6184C133.052 63.9324 132.442 67.2947 132.015 68.4909C131.956 68.6563 131.872 68.7832 131.722 68.8784H115.048H115.046Z" fill="white"/>
<path d="M185.826 49.8467L182.62 63.4111L156.25 63.47C156.039 63.5063 156.005 63.6649 155.924 63.8235C155.12 65.3641 155.073 69.1342 154.292 70.9172H177.432L174.46 84.0354L151.491 84.0467C151.105 84.1373 149.712 90.8051 149.753 91.7612H176.749L173.573 105.129H128.882L141.586 49.8467H185.824H185.826Z" fill="white"/>
<path d="M37.9131 43.956L48.5642 0.328556L49.1336 0.217539C58.7457 0.770358 69.1109 -0.482548 78.6345 0.233399C86.7924 0.845125 87.6272 5.94511 86.3591 12.9256C85.2271 19.1539 82.9312 27.3419 76.257 29.4603L80.7942 43.9582H64.914L61.8037 30.8695C61.7652 30.5614 61.6517 30.6022 61.4067 30.575C59.4762 30.3643 57.1463 30.7517 55.1703 30.5999L51.9852 43.956H37.9199H37.9131ZM57.8768 20.1666H66.384C66.7266 20.1666 68.0197 19.675 68.3872 19.4484C70.6808 18.046 72.566 12.0057 69.086 11.1244C68.0379 10.8593 60.8056 10.6554 60.1431 10.9862C59.9412 11.0859 59.8232 11.2943 59.7507 11.5005C59.6644 12.6039 57.5342 19.8222 57.8768 20.1643V20.1666Z" fill="white"/>
<path d="M170.4 43.9561C173.526 29.5896 177.244 15.3002 180.536 0.949522L180.826 0.333265L181.389 0.215451C190.391 0.675378 199.923 -0.353228 208.862 0.217717C214.356 0.568893 218.646 2.76658 219.17 8.72751C219.606 13.6689 215.683 29.3812 213.469 34.0666C211.255 38.7519 205.96 43.9539 200.23 43.9539H170.397L170.4 43.9561ZM186.961 32.8522C190.078 32.9519 193.211 33.2985 196.316 32.7955C197.798 32.5554 199.134 31.5494 199.991 30.3486C201.459 28.2846 203.689 19.111 203.948 16.4013C204.674 8.82493 197.097 11.6366 192.201 11.1268L186.961 32.8522Z" fill="white"/>
<path d="M238.458 49.8467L235.261 63.6445L220.645 63.8892L210.667 105.129H192.405L202.16 63.6672H187.414L190.59 49.8467H238.458Z" fill="white"/>
<path d="M168.131 43.9558H153.158L152.931 37.8386H140L137.051 43.9558H121.852L144.415 0.212891L165.763 0.441722L168.131 43.9558ZM152.251 14.2758L151.743 14.5658L145.447 26.9589C147.827 26.9612 150.102 27.2399 152.48 26.9612L152.251 14.2735V14.2758Z" fill="white"/>
<path d="M128.43 0.229004L125.948 11.0044L105.301 11.1155L104.158 16.7683H121.74C121.81 16.7683 122.107 17.0651 121.989 17.235L119.494 26.9864L102.039 27C101.272 27.2605 100.585 32.109 100.301 33.081H121.172L118.904 43.9561H83.5137L93.947 0.229004H128.43Z" fill="white"/>
<path d="M236.189 0.229004L239.025 15.1846L249.233 0.229004H265L262.822 3.37826L242.988 28.8827L239.365 43.3897L239.025 43.9561H225.073C226.189 38.9377 227.727 33.9986 228.48 28.8986L220.309 0.229004H236.189Z" fill="white"/>
<path d="M74.6643 75.9019L73.53 81.566H17.9492C18.0831 80.8455 19.0041 75.9019 19.4238 75.9019H74.6643Z" fill="white"/>
<path d="M77.6131 62.7607C77.5247 63.4948 76.565 68.4249 76.1385 68.4249H33.8291L34.9634 62.7607H77.6131Z" fill="white"/>
<path d="M71.7155 89.269C71.2028 91.1133 71.0349 93.2249 70.2409 94.9332H34.7373L35.8716 89.269H71.7155Z" fill="white"/>
</svg>
