<?xml version="1.0" encoding="utf-8"?>
<!-- Generator: Adobe Illustrator 16.0.0, SVG Export Plug-In . SVG Version: 6.00 Build 0)  -->
<!DOCTYPE svg PUBLIC "-//W3C//DTD SVG 1.1//EN" "http://www.w3.org/Graphics/SVG/1.1/DTD/svg11.dtd">
<svg version="1.1" id="Layer_1" xmlns="http://www.w3.org/2000/svg" xmlns:xlink="http://www.w3.org/1999/xlink" x="0px" y="0px"
	 width="364px" height="76px" viewBox="0 0 364 76" enable-background="new 0 0 364 76" xml:space="preserve">
<g>
	<path fill-rule="evenodd" clip-rule="evenodd" fill="#FFFFFF" d="M72.967,25.072c3.664,0,7.41-0.494,10.976,0.098
		c8.566,1.422,13.147,10.594,10.796,20.479c-2.565,10.785-8.597,13.183-17.375,15.199c-0.951,0.218-2.004,0.33-2.298-1.089
		c-0.662-3.192-1.446-6.361-2.013-9.569c-0.414-2.343,1.352-2.152,2.879-2.198c3.978-0.118,6.214-2.142,6.008-6.176
		c-0.166-3.245-4.054-5.382-7.885-4.85c-1.451,0.202-1.931,0.699-2.068,2.12c-0.948,9.805-2.189,19.587-2.875,29.408
		c-0.245,3.495-1.311,4.905-4.733,4.518C63.555,72.92,62.713,73,61.88,73c-7.208,0.002-7.955-1.225-6.808-8.296
		c1.284-7.919,2.254-15.915,2.809-23.915c0.267-3.846,1.67-7.542,0.885-11.631c-0.391-2.036,1.262-4.598,4.712-4.228
		c3.129,0.336,6.323,0.071,9.489,0.071C72.967,25.024,72.967,25.048,72.967,25.072z"/>
	<path fill-rule="evenodd" clip-rule="evenodd" fill="#FFFFFF" d="M37.656,22.011c-1.792,0-3.286-0.1-4.761,0.021
		c-2.791,0.229-4.835,1.774-4.736,4.578c0.093,2.617,2.685,3.097,4.783,3.33c2.954,0.328,6.05-0.136,8.903,0.526
		c11.31,2.626,13.647,15.791,9.09,24.749c-3.35,6.585-9.712,8.985-16.056,11.133c-2.314,0.784-4.273-0.873-4.803-3.45
		c-0.294-1.434-0.282-2.871-0.723-4.35c-1.887-6.327-1.788-6.48,4.94-7.504c2.379-0.362,3.322-2.163,3.217-3.649
		c-0.129-1.822-1.336-3.499-4.002-3.465c-4.691,0.06-9.246,0.373-13.79-2.399c-7.95-4.848-10.032-17.139-3.708-24.921
		c4.128-5.081,8.911-9.354,16.292-8.655c1.742,0.165,2.523,0.448,2.804,2.457C35.624,14.114,36.683,17.741,37.656,22.011z"/>
	<path fill-rule="evenodd" clip-rule="evenodd" fill="#FFFFFF" d="M239.182,25.506c-3.255,7.569-6.418,15.032-9.671,22.455
		c-2.751,6.279-6.241,12.321-8.212,18.828c-1.559,5.145-3.951,6.979-9.032,6.265c-2.256-0.317-4.594-0.054-6.83-0.054
		c-0.112-0.691-0.325-1.129-0.191-1.305c7.7-10.145,2.445-20.582,0.616-30.886c-0.91-5.129-2.346-10.166-3.572-15.364
		c0.63-0.178,1.042-0.398,1.453-0.395c3.821,0.028,8.35-1.154,11.266,0.499c2.959,1.677,2.098,6.754,3.056,10.303
		c0.236,0.874,0.854,1.644,1.366,2.589c0.688-1.531,1.244-2.876,1.885-4.18C226.467,23.779,226.492,23.771,239.182,25.506z"/>
	<path fill-rule="evenodd" clip-rule="evenodd" fill="#FFFFFF" d="M179.026,61c-1.165-0.001-2.335-0.082-3.492,0.015
		c-3.162,0.263-3.829-0.701-3.154-4.02c1.232-6.059,1.664-12.281,2.424-18.436c0.089-0.719-0.091-1.41-0.906-1.44
		c-4.229-0.154-3.029-3.754-4.01-6.052c-1.792-4.194-1.511-6.738,3.969-6.094c1.364,0.16,2.278-0.385,2.122-1.95
		c-0.409-4.097,2.348-5.245,5.544-6.043c0.783-0.195,1.497-0.653,2.273-0.889c2.169-0.657,4.981-2.406,6.396-1.632
		c2.506,1.37-0.198,4.064-0.311,6.225c-0.186,3.543,0.96,4.755,4.462,4.396c1.459-0.149,3.783-1.049,4.423,0.909
		c1.053,3.22,1.788,6.639,1.962,10.01c0.085,1.665-2.163,0.878-3.34,0.956c-2.816,0.186-6.209-0.81-8.325,0.44
		c-2.484,1.467-0.356,5.26-1.155,7.845c-0.853,2.76-0.77,5.516-0.948,8.307C186.486,61.004,186.425,61,179.026,61z"/>
	<path fill-rule="evenodd" clip-rule="evenodd" fill="#FFFFFF" d="M343.725,14.422c0.311,1.768,0.221,3.252-0.323,4.933
		c-1.074,3.32-1.108,6.448,3.997,5.651c1.898-0.296,2.232,0.866,2.925,2.388c0.81,1.783,0.207,3.648,1.015,5.292
		c1.949,3.964-0.193,4.382-3.484,4.359c-6.625-0.046-6.043,0.149-7.047,6.669c-0.748,4.857-0.179,9.809-1.624,14.624
		c-0.598,1.991-1.083,2.59-3.099,2.713c-10.729,0.654-12.526-1.024-9.771-11.264c1.013-3.764-0.523-7.637,1.418-11.147
		c0.347-0.626,0.057-1.46-0.724-1.491c-4.119-0.164-3.271-3.524-4.123-5.961c-1.36-3.889-1.987-6.917,3.847-6.214
		c1.271,0.153,2.382-0.175,2.241-1.818c-0.369-4.319,2.452-5.462,5.907-6.234C337.846,16.258,340.74,15.278,343.725,14.422z"/>
	<path fill-rule="evenodd" clip-rule="evenodd" fill="#FFFFFF" d="M146.127,61c-1.164,0-2.333-0.074-3.49,0.014
		c-2.972,0.225-4.06-0.492-3.303-3.926c1.015-4.61,1.457-9.404,1.606-14.136c0.368-11.612,10.83-20.494,22.09-17.762
		c4.317,1.047,3.096,6.203,3.811,9.538c0.735,3.434-2.528,2.138-4.163,2.221c-6.376,0.325-8.008,2.373-8.654,11.521
		c-0.128,1.82,0.116,3.67-0.061,5.482C153.275,61.003,153.238,61,146.127,61z"/>
	<path fill-rule="evenodd" clip-rule="evenodd" fill="#FFFFFF" d="M48.46,7c4.966-0.014,8.547,3.146,8.535,7.531
		c-0.015,5.362-3.229,8.516-8.63,8.468c-4.716-0.042-8.504-3.331-8.267-7.848C40.365,10.083,43.049,6.759,48.46,7z"/>
	<path fill-rule="evenodd" clip-rule="evenodd" fill="#FFFFFF" d="M9,58.862c0.03-5.811,2.151-7.878,8.067-7.862
		c4.939,0.013,8.014,3.028,7.932,7.78c-0.087,5.09-3.375,8.354-8.279,8.218C12.048,66.868,8.976,63.631,9,58.862z"/>
	<path fill-rule="evenodd" clip-rule="evenodd" fill="#FFFFFF" d="M273.07,34.567c0.98-1.025,1.764-1.879,2.584-2.696
		c4.121-4.099,5.016-9.007,3.283-14.364c-1.502-4.641-5.074-6.546-9.74-7.718c-3.996-1.004-7.871-0.633-11.793-0.738
		c-3.963-0.106-8.642-1.043-11.703,0.688c-2.898,1.639-1.42,6.66-1.807,10.214c-1.223,11.232-2.762,22.433-3.766,33.683
		c-0.234,2.637-3.029,6.064-0.328,7.774c2.171,1.375,5.821,0.213,8.744,0.652c4.139,0.621,5.484-1.844,5.333-5
		c-0.208-4.361,1.25-8.499,1.098-12.789c-0.075-2.134,0.239-3.409,2.897-3.346c2.465,0.059,5.066,0.097,5.821,2.656
		c0.606,2.052-1.347,4.117-3.241,4.072c-5.049-0.118-4.167,2.352-3.549,5.772c1.639,9.063,1.551,9.294,10.348,7.505
		c5.979-1.216,9.871-5.255,11.586-10.934C280.648,44.009,278.332,38.215,273.07,34.567z M260.161,26.982
		c-1.874,0.231-3.222-0.016-3.245-2.729c-0.021-2.661,0.877-3.383,3.416-3.325c2.154,0.049,4.314,0.318,4.392,2.63
		C264.806,25.996,262.82,27.14,260.161,26.982z"/>
	<path fill-rule="evenodd" clip-rule="evenodd" fill="#FFFFFF" d="M313.934,47c6.523-0.001,7.87-1.269,6.971-7.732
		c-0.482-3.459-1.146-6.893-3.814-9.834c-4.515-4.976-10.102-6.042-16.181-5.38c-15.278,1.664-21.043,16.282-16.782,28.027
		c4.608,12.706,24.755,12.105,32.785,5.451c0.859-0.712,1.294-1.587,0.978-2.623c-0.843-2.764-9.815-6.681-12.655-5.613
		c-2.877,1.082-5.656,1.635-8.146-2.295C303.291,47,308.613,47.001,313.934,47z M303.784,37.956
		c-1.636,0.165-3.302,0.043-5.213,0.043c0.654-3.193,3.095-3.095,4.788-3.499c1.11-0.265,3.203,0.517,3.326,2.16
		C306.848,38.808,304.854,37.848,303.784,37.956z"/>
	<path fill-rule="evenodd" clip-rule="evenodd" fill="#FFFFFF" d="M119.825,23.919c-10.792,0.174-21.065,8.46-21.227,21.489
		c-0.119,9.589,6.912,17.21,18.011,16.592c12.742,0.327,21.091-10.061,21.167-20.677C137.849,31.116,130.059,23.754,119.825,23.919z
		 M117.408,48.897c-3.26-0.453-5.624-2.643-5.259-5.95c0.405-3.678,2.755-6.03,6.939-5.979c3.603,0.044,5.051,1.826,4.921,5.228
		C123.931,45.263,120.212,49.287,117.408,48.897z"/>
</g>
</svg>
