<svg width="300" height="62" viewBox="0 0 300 62" fill="none" xmlns="http://www.w3.org/2000/svg">
<path fill-rule="evenodd" clip-rule="evenodd" d="M24.2912 21.1647H19.2236C18.378 21.1295 17.5807 20.7631 17.0055 20.1454C16.4303 19.5278 16.1238 18.7089 16.153 17.8674C16.153 17.7659 16.153 17.6645 16.187 17.563C16.2957 16.6152 16.7388 15.7365 17.4374 15.0832C18.1361 14.4299 19.045 14.0444 20.0026 13.9952H24.6991L22.0279 2.04883H20.6399C11.9947 2.04883 4.22471 9.01542 3.3126 17.5968C2.40049 26.1811 8.6833 33.1476 17.3342 33.1476H22.433C22.8504 33.1604 23.2612 33.255 23.6418 33.426C24.0224 33.5971 24.3653 33.8412 24.6508 34.1444C24.9364 34.4476 25.1589 34.8039 25.3058 35.1929C25.4526 35.5819 25.5208 35.9959 25.5064 36.4111C25.5064 36.5126 25.5064 36.614 25.4724 36.7127C25.3636 37.6609 24.9201 38.5399 24.2209 39.1933C23.5216 39.8467 22.612 40.2319 21.654 40.2805H16.9603L19.5947 52.2297H20.9798C29.6279 52.2297 37.3978 45.2631 38.276 36.6789C39.1541 28.0974 32.9364 21.1647 24.2884 21.1647" fill="white"/>
<path d="M34.7258 13.6655C36.5501 13.6677 38.3007 12.949 39.5926 11.6675C40.8844 10.3859 41.6118 8.64635 41.6148 6.83133C41.6111 5.01679 40.8833 3.27797 39.5916 1.99701C38.2998 0.716055 36.5497 -0.00223041 34.7258 1.45292e-05C33.8224 -0.00183764 32.9274 0.173411 32.0921 0.515749C31.2568 0.858087 30.4974 1.36081 29.8574 1.99519C29.2174 2.62957 28.7093 3.38319 28.3621 4.21299C28.0149 5.04279 27.8355 5.93251 27.834 6.83133C27.8351 7.73038 28.0143 8.62041 28.3613 9.45053C28.7083 10.2807 29.2164 11.0346 29.8564 11.6693C30.4965 12.304 31.2559 12.8069 32.0915 13.1495C32.927 13.492 33.8221 13.6673 34.7258 13.6655Z" fill="white"/>
<path fill-rule="evenodd" clip-rule="evenodd" d="M6.82668 38.5357C3.04226 38.5357 0 41.6329 0 45.367C0.0134189 47.1706 0.741441 48.8961 2.02597 50.1688C3.3105 51.4415 5.04783 52.1586 6.86067 52.1645C8.67532 52.1556 10.4125 51.4317 11.6919 50.1514C12.9714 48.8711 13.6889 47.1386 13.6874 45.3332C13.7185 41.5653 10.6423 38.5357 6.82668 38.5357ZM79.5521 35.9176C78.572 45.0035 85.2287 52.3759 94.381 52.3759C103.536 52.3759 111.745 45.0035 112.691 35.9176C113.637 26.8289 107.015 19.4593 97.8623 19.4593C88.7072 19.4593 80.5322 26.8289 79.5521 35.9176ZM90.2935 35.5794C90.4929 33.9962 91.2578 32.537 92.4486 31.4681C93.6394 30.3993 95.1768 29.792 96.7802 29.757C97.4595 29.7398 98.1356 29.8559 98.7698 30.0987C99.404 30.3415 99.9839 30.7062 100.476 31.1721C100.969 31.638 101.364 32.1958 101.64 32.8137C101.915 33.4316 102.066 34.0976 102.083 34.7734C102.083 35.0411 102.083 35.3089 102.049 35.5794C101.85 37.1627 101.085 38.6218 99.8938 39.6907C98.703 40.7596 97.1656 41.3669 95.5622 41.4018C94.1909 41.4359 92.8622 40.927 91.8679 39.9869C90.8736 39.0468 90.2951 37.7525 90.2595 36.3882C90.2283 36.1177 90.2595 35.85 90.2935 35.5794ZM44.9966 20.3696L40.47 62H51.7525L55.197 30.4306H60.0974C60.7066 30.4133 61.3131 30.5168 61.8818 30.7348C62.4504 30.9529 62.9698 31.2813 63.4097 31.7009C63.8496 32.1204 64.2013 32.6229 64.4443 33.1789C64.6873 33.7349 64.8167 34.3334 64.8251 34.9397C64.8251 35.1764 64.8251 35.4131 64.7911 35.6471C64.6116 37.0649 63.9264 38.3714 62.8601 39.3288C61.7938 40.2862 60.4173 40.8308 58.9814 40.8635H56.5481L58.6783 50.995C62.9329 50.7582 67.2555 49.414 69.9919 47.0213C73.0342 44.3299 74.8244 40.562 75.3314 35.7147C75.8356 30.8364 74.8555 27.0656 72.3911 24.4081C69.9267 21.7139 67.2924 20.4034 62.0888 20.4034L44.9966 20.3696ZM166.568 20.3696H158.733L159.713 11.1118L147.989 14.7473L147.417 20.3696H140.896L143.091 30.3629H146.335L144.071 51.3641H155.422L157.651 30.3629H168.797L166.568 20.3696ZM190.858 20.3696L184.844 34.5733L181.669 20.3696H170.622L177.581 51.3641L173.021 62H184.068L202.31 20.3696H190.858ZM132.047 20.302C124.447 20.302 117.623 26.4259 116.844 33.9646L114.988 51.4318H126.305L128.095 34.7058C128.24 33.5219 128.808 32.4292 129.694 31.6261C130.58 30.823 131.727 30.3628 132.925 30.3291L139.072 30.2981L136.91 20.302H132.047ZM297.802 20.4682H291.553L292.567 11.2133L280.846 14.8487L280.237 20.4682H273.753L275.948 30.501H279.191L276.928 51.398H288.245L290.508 30.4982H300L297.802 20.4682Z" fill="white"/>
<path d="M251.221 38.9132C251.176 39.0425 251.164 39.1811 251.187 39.3162C251.221 39.9897 251.725 40.528 252.099 40.931C252.47 41.334 252.91 41.706 253.383 41.9399C253.89 42.2104 254.431 42.3795 255.003 42.4782C255.513 42.5796 256.017 42.6135 256.558 42.6135C257.504 42.6135 258.45 42.4444 259.328 42.109C260.24 41.7708 261.051 41.2354 261.725 40.559L270.543 46.6857C268.767 48.705 266.482 50.216 263.923 51.0624C261.383 51.8959 258.725 52.3165 256.051 52.3081C253.993 52.3046 251.946 52.0095 249.972 51.4316C248.113 50.8864 246.381 49.9824 244.873 48.7712C243.385 47.5738 242.174 46.0702 241.324 44.3636C240.385 42.441 239.867 40.3423 239.803 38.2058C239.699 35.6889 240.078 33.1754 240.919 30.7996C241.7 28.5712 242.943 26.531 244.567 24.8109C246.194 23.1016 248.161 21.7483 250.343 20.8372C252.742 19.8548 255.315 19.3631 257.909 19.3915C259.934 19.3592 261.948 19.6894 263.855 20.3666C265.543 20.9563 267.086 21.8979 268.379 23.1285C269.672 24.3591 270.686 25.8503 271.353 27.5023C272.098 29.32 272.503 31.2702 272.571 33.257C272.605 34.2011 272.571 35.1424 272.469 36.0837C272.384 37.039 272.215 37.9849 271.962 38.9103L251.221 38.9132ZM261.422 31.9128C261.456 31.7775 261.456 31.6422 261.456 31.5069V31.1716C261.462 30.7123 261.362 30.2577 261.163 29.8433C260.964 29.4288 260.671 29.0655 260.308 28.7817C259.6 28.1758 258.583 27.8743 257.334 27.8743C256.606 27.8713 255.883 28.0081 255.207 28.2773C254.628 28.529 254.093 28.8694 253.621 29.2862C253.207 29.6652 252.843 30.0951 252.538 30.5657C252.296 30.9633 252.113 31.3944 251.997 31.8451L261.422 31.9099V31.9128ZM236.154 34.3026C235.779 33.2683 235.255 32.2934 234.599 31.4083C233.42 29.8668 231.737 28.7833 229.84 28.3449V28.2096C232.058 27.5136 233.988 26.1202 235.341 24.2388C236.758 22.3224 237.401 19.7973 237.268 16.7001C237.24 15.0882 236.822 13.5066 236.05 12.0895C235.341 10.8777 234.395 9.83499 233.245 9.02617C232.093 8.25005 230.813 7.68064 229.464 7.3437C228.116 7.00743 226.732 6.83706 225.342 6.83643H207.372L202.406 51.8712H214.06L215.241 40.7309H215.142L215.581 36.8587L215.884 34.032V34.0659L215.952 33.5952H219.87C221.187 33.5952 222.201 33.8658 222.909 34.4379C223.617 35.01 224.059 35.8836 224.059 36.7911C224.127 37.4674 223.991 38.1382 223.688 38.7441C223.403 39.2412 222.995 39.6582 222.504 39.9559C221.945 40.2543 221.34 40.459 220.714 40.5618C220.005 40.6633 219.297 40.7309 218.586 40.7309H217.337L219.702 51.8712H220.615C222.886 51.9001 225.149 51.6059 227.336 50.9976C229.241 50.4799 231.021 49.5867 232.571 48.371C234.014 47.2141 235.15 45.7243 235.882 44.031C236.659 42.1118 236.999 40.0573 236.863 38.0057C236.803 36.7443 236.565 35.4976 236.154 34.3026ZM224.569 20.6061C224.334 21.057 223.984 21.4389 223.555 21.7137C223.126 21.9903 222.643 22.1737 222.138 22.252C221.625 22.3473 221.103 22.3926 220.581 22.3872H216.833L217.473 15.7927H220.886C221.865 15.7582 222.835 15.9901 223.691 16.4634C224.433 16.903 224.838 17.6752 224.872 18.7179C224.941 19.3629 224.836 20.0145 224.569 20.6061Z" fill="white"/>
</svg>
